G04 EAGLE Gerber RS-274X export*
G75*
%MOMM*%
%FSLAX34Y34*%
%LPD*%
%INBottom Copper*%
%IPPOS*%
%AMOC8*
5,1,8,0,0,1.08239X$1,22.5*%
G01*
%ADD10C,1.270000*%
%ADD11R,1.270000X0.635000*%
%ADD12P,1.632244X8X292.500000*%
%ADD13R,1.295400X1.295400*%
%ADD14C,1.295400*%
%ADD15C,1.714500*%
%ADD16C,4.368800*%
%ADD17C,0.812800*%
%ADD18C,1.056400*%
%ADD19C,1.500000*%

G36*
X246127Y-677713D02*
X246127Y-677713D01*
X246245Y-677699D01*
X246363Y-677691D01*
X246402Y-677679D01*
X246442Y-677673D01*
X246553Y-677630D01*
X246665Y-677593D01*
X246700Y-677571D01*
X246738Y-677556D01*
X246834Y-677486D01*
X246934Y-677423D01*
X246962Y-677393D01*
X246995Y-677369D01*
X247071Y-677278D01*
X247152Y-677191D01*
X247172Y-677156D01*
X247198Y-677124D01*
X247248Y-677017D01*
X247306Y-676913D01*
X247316Y-676873D01*
X247333Y-676836D01*
X247355Y-676720D01*
X247385Y-676605D01*
X247389Y-676544D01*
X247393Y-676524D01*
X247391Y-676504D01*
X247395Y-676444D01*
X247395Y-657564D01*
X248594Y-654669D01*
X250809Y-652454D01*
X253704Y-651255D01*
X271526Y-651255D01*
X271644Y-651240D01*
X271763Y-651233D01*
X271801Y-651220D01*
X271842Y-651215D01*
X271952Y-651172D01*
X272065Y-651135D01*
X272100Y-651113D01*
X272137Y-651098D01*
X272233Y-651029D01*
X272334Y-650965D01*
X272362Y-650935D01*
X272395Y-650912D01*
X272471Y-650820D01*
X272552Y-650733D01*
X272572Y-650698D01*
X272597Y-650667D01*
X272648Y-650559D01*
X272706Y-650455D01*
X272716Y-650415D01*
X272733Y-650379D01*
X272755Y-650262D01*
X272785Y-650147D01*
X272789Y-650087D01*
X272793Y-650067D01*
X272791Y-650046D01*
X272795Y-649986D01*
X272795Y-640334D01*
X272780Y-640216D01*
X272773Y-640097D01*
X272760Y-640059D01*
X272755Y-640018D01*
X272712Y-639908D01*
X272675Y-639795D01*
X272653Y-639760D01*
X272638Y-639723D01*
X272569Y-639627D01*
X272505Y-639526D01*
X272475Y-639498D01*
X272452Y-639465D01*
X272360Y-639389D01*
X272273Y-639308D01*
X272238Y-639288D01*
X272207Y-639263D01*
X272099Y-639212D01*
X271995Y-639154D01*
X271955Y-639144D01*
X271919Y-639127D01*
X271802Y-639105D01*
X271687Y-639075D01*
X271627Y-639071D01*
X271607Y-639067D01*
X271586Y-639069D01*
X271526Y-639065D01*
X-202226Y-639065D01*
X-205121Y-637866D01*
X-207336Y-635651D01*
X-208535Y-632756D01*
X-208535Y-190244D01*
X-208536Y-190235D01*
X-208535Y-190225D01*
X-208556Y-190077D01*
X-208575Y-189928D01*
X-208578Y-189920D01*
X-208579Y-189911D01*
X-208631Y-189758D01*
X-209685Y-187215D01*
X-209685Y-183625D01*
X-208311Y-180308D01*
X-206954Y-178951D01*
X-206869Y-178842D01*
X-206780Y-178735D01*
X-206772Y-178716D01*
X-206759Y-178700D01*
X-206704Y-178573D01*
X-206645Y-178447D01*
X-206641Y-178427D01*
X-206633Y-178408D01*
X-206611Y-178270D01*
X-206585Y-178134D01*
X-206586Y-178114D01*
X-206583Y-178094D01*
X-206596Y-177955D01*
X-206605Y-177817D01*
X-206611Y-177798D01*
X-206613Y-177778D01*
X-206660Y-177646D01*
X-206703Y-177515D01*
X-206714Y-177497D01*
X-206721Y-177478D01*
X-206799Y-177363D01*
X-206873Y-177246D01*
X-206888Y-177232D01*
X-206899Y-177215D01*
X-207004Y-177123D01*
X-207105Y-177028D01*
X-207122Y-177018D01*
X-207138Y-177005D01*
X-207262Y-176941D01*
X-207383Y-176874D01*
X-207403Y-176869D01*
X-207421Y-176860D01*
X-207557Y-176830D01*
X-207691Y-176795D01*
X-207719Y-176793D01*
X-207731Y-176790D01*
X-207752Y-176791D01*
X-207852Y-176785D01*
X-229480Y-176785D01*
X-229578Y-176797D01*
X-229677Y-176800D01*
X-229735Y-176817D01*
X-229795Y-176825D01*
X-229887Y-176861D01*
X-229982Y-176889D01*
X-230034Y-176919D01*
X-230091Y-176942D01*
X-230171Y-177000D01*
X-230256Y-177050D01*
X-230332Y-177116D01*
X-230348Y-177128D01*
X-230356Y-177138D01*
X-230377Y-177156D01*
X-231195Y-177975D01*
X-238705Y-177975D01*
X-244015Y-172665D01*
X-244015Y-165155D01*
X-238705Y-159845D01*
X-231195Y-159845D01*
X-230377Y-160664D01*
X-230299Y-160724D01*
X-230227Y-160792D01*
X-230174Y-160821D01*
X-230126Y-160858D01*
X-230035Y-160898D01*
X-229948Y-160946D01*
X-229890Y-160961D01*
X-229834Y-160985D01*
X-229736Y-161000D01*
X-229640Y-161025D01*
X-229540Y-161031D01*
X-229520Y-161035D01*
X-229508Y-161033D01*
X-229480Y-161035D01*
X47246Y-161035D01*
X47255Y-161034D01*
X47265Y-161035D01*
X47413Y-161014D01*
X47562Y-160995D01*
X47570Y-160992D01*
X47579Y-160991D01*
X47732Y-160939D01*
X50275Y-159885D01*
X53865Y-159885D01*
X57182Y-161259D01*
X59721Y-163798D01*
X61095Y-167115D01*
X61095Y-170705D01*
X59721Y-174022D01*
X57182Y-176561D01*
X53865Y-177935D01*
X50275Y-177935D01*
X47732Y-176881D01*
X47723Y-176879D01*
X47715Y-176874D01*
X47569Y-176837D01*
X47425Y-176797D01*
X47416Y-176797D01*
X47407Y-176795D01*
X47246Y-176785D01*
X-193468Y-176785D01*
X-193606Y-176802D01*
X-193745Y-176815D01*
X-193764Y-176822D01*
X-193784Y-176825D01*
X-193913Y-176876D01*
X-194044Y-176923D01*
X-194061Y-176934D01*
X-194079Y-176942D01*
X-194192Y-177023D01*
X-194307Y-177101D01*
X-194320Y-177117D01*
X-194337Y-177128D01*
X-194426Y-177236D01*
X-194517Y-177340D01*
X-194527Y-177358D01*
X-194540Y-177373D01*
X-194599Y-177499D01*
X-194662Y-177623D01*
X-194666Y-177643D01*
X-194675Y-177661D01*
X-194701Y-177798D01*
X-194732Y-177933D01*
X-194731Y-177954D01*
X-194735Y-177973D01*
X-194726Y-178112D01*
X-194722Y-178251D01*
X-194716Y-178271D01*
X-194715Y-178291D01*
X-194672Y-178423D01*
X-194634Y-178557D01*
X-194623Y-178574D01*
X-194617Y-178593D01*
X-194543Y-178711D01*
X-194472Y-178831D01*
X-194453Y-178852D01*
X-194447Y-178862D01*
X-194432Y-178876D01*
X-194366Y-178951D01*
X-193009Y-180308D01*
X-191635Y-183625D01*
X-191635Y-187215D01*
X-192689Y-189758D01*
X-192691Y-189767D01*
X-192696Y-189775D01*
X-192733Y-189921D01*
X-192773Y-190065D01*
X-192773Y-190074D01*
X-192775Y-190083D01*
X-192785Y-190244D01*
X-192785Y-622046D01*
X-192770Y-622164D01*
X-192763Y-622283D01*
X-192750Y-622321D01*
X-192745Y-622362D01*
X-192702Y-622472D01*
X-192665Y-622585D01*
X-192643Y-622620D01*
X-192628Y-622657D01*
X-192559Y-622753D01*
X-192495Y-622854D01*
X-192465Y-622882D01*
X-192442Y-622915D01*
X-192350Y-622991D01*
X-192263Y-623072D01*
X-192228Y-623092D01*
X-192197Y-623117D01*
X-192089Y-623168D01*
X-191985Y-623226D01*
X-191945Y-623236D01*
X-191909Y-623253D01*
X-191792Y-623275D01*
X-191677Y-623305D01*
X-191617Y-623309D01*
X-191597Y-623313D01*
X-191576Y-623311D01*
X-191516Y-623315D01*
X282236Y-623315D01*
X285131Y-624514D01*
X287346Y-626729D01*
X288545Y-629624D01*
X288545Y-654306D01*
X288546Y-654315D01*
X288545Y-654325D01*
X288566Y-654473D01*
X288585Y-654622D01*
X288588Y-654630D01*
X288589Y-654639D01*
X288641Y-654792D01*
X289695Y-657335D01*
X289695Y-660925D01*
X288641Y-663468D01*
X288639Y-663477D01*
X288634Y-663485D01*
X288597Y-663631D01*
X288557Y-663775D01*
X288557Y-663784D01*
X288555Y-663793D01*
X288545Y-663954D01*
X288545Y-676419D01*
X288560Y-676538D01*
X288567Y-676657D01*
X288580Y-676695D01*
X288585Y-676735D01*
X288629Y-676846D01*
X288665Y-676959D01*
X288687Y-676993D01*
X288702Y-677031D01*
X288772Y-677127D01*
X288836Y-677228D01*
X288865Y-677256D01*
X288888Y-677288D01*
X288980Y-677364D01*
X289067Y-677446D01*
X289103Y-677465D01*
X289133Y-677491D01*
X289241Y-677542D01*
X289346Y-677599D01*
X289385Y-677609D01*
X289421Y-677626D01*
X289538Y-677649D01*
X289654Y-677678D01*
X289714Y-677682D01*
X289733Y-677686D01*
X289754Y-677685D01*
X289815Y-677689D01*
X533909Y-677550D01*
X534027Y-677535D01*
X534145Y-677527D01*
X534184Y-677515D01*
X534224Y-677510D01*
X534335Y-677466D01*
X534447Y-677429D01*
X534482Y-677408D01*
X534520Y-677393D01*
X534616Y-677323D01*
X534716Y-677259D01*
X534744Y-677230D01*
X534777Y-677206D01*
X534853Y-677114D01*
X534934Y-677028D01*
X534954Y-676992D01*
X534980Y-676960D01*
X535030Y-676853D01*
X535088Y-676749D01*
X535098Y-676710D01*
X535115Y-676673D01*
X535137Y-676556D01*
X535167Y-676441D01*
X535171Y-676381D01*
X535175Y-676360D01*
X535173Y-676340D01*
X535177Y-676281D01*
X535177Y917448D01*
X535162Y917566D01*
X535155Y917685D01*
X535142Y917723D01*
X535137Y917764D01*
X535094Y917874D01*
X535057Y917987D01*
X535035Y918022D01*
X535020Y918059D01*
X534951Y918155D01*
X534887Y918256D01*
X534857Y918284D01*
X534834Y918317D01*
X534742Y918393D01*
X534655Y918474D01*
X534620Y918494D01*
X534589Y918519D01*
X534481Y918570D01*
X534377Y918628D01*
X534337Y918638D01*
X534301Y918655D01*
X534184Y918677D01*
X534069Y918707D01*
X534009Y918711D01*
X533989Y918715D01*
X533968Y918713D01*
X533908Y918717D01*
X-582168Y918717D01*
X-582286Y918702D01*
X-582405Y918695D01*
X-582443Y918682D01*
X-582484Y918677D01*
X-582594Y918634D01*
X-582707Y918597D01*
X-582742Y918575D01*
X-582779Y918560D01*
X-582875Y918491D01*
X-582976Y918427D01*
X-583004Y918397D01*
X-583037Y918374D01*
X-583113Y918282D01*
X-583194Y918195D01*
X-583214Y918160D01*
X-583239Y918129D01*
X-583290Y918021D01*
X-583348Y917917D01*
X-583358Y917877D01*
X-583375Y917841D01*
X-583397Y917724D01*
X-583427Y917609D01*
X-583431Y917549D01*
X-583435Y917529D01*
X-583433Y917508D01*
X-583437Y917448D01*
X-583437Y-676915D01*
X-583422Y-677034D01*
X-583415Y-677153D01*
X-583402Y-677191D01*
X-583397Y-677231D01*
X-583353Y-677342D01*
X-583317Y-677455D01*
X-583295Y-677489D01*
X-583280Y-677527D01*
X-583210Y-677623D01*
X-583146Y-677724D01*
X-583117Y-677752D01*
X-583094Y-677784D01*
X-583002Y-677860D01*
X-582915Y-677942D01*
X-582879Y-677961D01*
X-582849Y-677987D01*
X-582741Y-678038D01*
X-582636Y-678095D01*
X-582597Y-678105D01*
X-582561Y-678122D01*
X-582444Y-678145D01*
X-582328Y-678174D01*
X-582268Y-678178D01*
X-582249Y-678182D01*
X-582228Y-678181D01*
X-582167Y-678185D01*
X246127Y-677713D01*
G37*
%LPC*%
G36*
X426830Y102735D02*
X426830Y102735D01*
X423513Y104109D01*
X420974Y106648D01*
X419600Y109965D01*
X419600Y113555D01*
X419701Y113799D01*
X419704Y113808D01*
X419708Y113816D01*
X419745Y113960D01*
X419785Y114105D01*
X419785Y114115D01*
X419788Y114124D01*
X419798Y114284D01*
X419798Y649415D01*
X419783Y649533D01*
X419775Y649651D01*
X419763Y649690D01*
X419758Y649730D01*
X419714Y649841D01*
X419677Y649954D01*
X419656Y649988D01*
X419641Y650026D01*
X419571Y650122D01*
X419507Y650223D01*
X419478Y650250D01*
X419454Y650283D01*
X419362Y650359D01*
X419276Y650441D01*
X419240Y650460D01*
X419209Y650486D01*
X419101Y650537D01*
X418997Y650594D01*
X418958Y650604D01*
X418921Y650621D01*
X418805Y650644D01*
X418689Y650674D01*
X418629Y650677D01*
X418609Y650681D01*
X418589Y650680D01*
X418529Y650684D01*
X128841Y650684D01*
X128723Y650669D01*
X128605Y650661D01*
X128566Y650649D01*
X128526Y650644D01*
X128415Y650600D01*
X128302Y650563D01*
X128268Y650542D01*
X128230Y650527D01*
X128134Y650457D01*
X128033Y650393D01*
X128006Y650364D01*
X127973Y650340D01*
X127897Y650248D01*
X127815Y650162D01*
X127796Y650126D01*
X127770Y650095D01*
X127719Y649987D01*
X127662Y649883D01*
X127652Y649844D01*
X127635Y649807D01*
X127612Y649691D01*
X127582Y649575D01*
X127579Y649515D01*
X127575Y649495D01*
X127576Y649475D01*
X127572Y649415D01*
X127572Y637794D01*
X127587Y637676D01*
X127595Y637557D01*
X127607Y637519D01*
X127612Y637478D01*
X127656Y637368D01*
X127693Y637255D01*
X127714Y637220D01*
X127729Y637183D01*
X127799Y637087D01*
X127863Y636986D01*
X127892Y636958D01*
X127916Y636925D01*
X128008Y636849D01*
X128094Y636768D01*
X128130Y636748D01*
X128161Y636723D01*
X128269Y636672D01*
X128373Y636614D01*
X128412Y636604D01*
X128449Y636587D01*
X128565Y636565D01*
X128681Y636535D01*
X128741Y636531D01*
X128761Y636527D01*
X128781Y636529D01*
X128841Y636525D01*
X243184Y636525D01*
X246078Y635326D01*
X248611Y632793D01*
X249810Y629899D01*
X249810Y616839D01*
X249825Y616721D01*
X249832Y616602D01*
X249845Y616564D01*
X249850Y616523D01*
X249893Y616413D01*
X249930Y616300D01*
X249952Y616265D01*
X249967Y616228D01*
X250036Y616132D01*
X250100Y616031D01*
X250130Y616003D01*
X250153Y615970D01*
X250245Y615894D01*
X250332Y615813D01*
X250367Y615793D01*
X250398Y615768D01*
X250506Y615717D01*
X250610Y615659D01*
X250650Y615649D01*
X250686Y615632D01*
X250803Y615610D01*
X250918Y615580D01*
X250978Y615576D01*
X250998Y615572D01*
X251019Y615574D01*
X251079Y615570D01*
X283917Y615570D01*
X283926Y615571D01*
X283935Y615570D01*
X284085Y615591D01*
X284232Y615610D01*
X284241Y615613D01*
X284250Y615614D01*
X284403Y615666D01*
X284476Y615697D01*
X287659Y615697D01*
X290600Y614479D01*
X292851Y612228D01*
X294069Y609287D01*
X294069Y606103D01*
X292851Y603162D01*
X290600Y600911D01*
X287659Y599693D01*
X284476Y599693D01*
X284403Y599724D01*
X284394Y599726D01*
X284385Y599731D01*
X284241Y599768D01*
X284096Y599808D01*
X284086Y599808D01*
X284077Y599810D01*
X283917Y599820D01*
X240686Y599820D01*
X237792Y601019D01*
X235259Y603552D01*
X234060Y606446D01*
X234060Y619506D01*
X234045Y619624D01*
X234038Y619743D01*
X234025Y619781D01*
X234020Y619822D01*
X233977Y619932D01*
X233940Y620045D01*
X233918Y620080D01*
X233903Y620117D01*
X233834Y620213D01*
X233770Y620314D01*
X233740Y620342D01*
X233717Y620375D01*
X233625Y620451D01*
X233538Y620532D01*
X233503Y620552D01*
X233472Y620577D01*
X233364Y620628D01*
X233260Y620686D01*
X233220Y620696D01*
X233184Y620713D01*
X233067Y620735D01*
X232952Y620765D01*
X232892Y620769D01*
X232872Y620773D01*
X232851Y620771D01*
X232791Y620775D01*
X-427419Y620775D01*
X-427537Y620760D01*
X-427655Y620753D01*
X-427694Y620740D01*
X-427734Y620735D01*
X-427845Y620692D01*
X-427958Y620655D01*
X-427992Y620633D01*
X-428030Y620618D01*
X-428126Y620549D01*
X-428227Y620485D01*
X-428254Y620455D01*
X-428287Y620432D01*
X-428363Y620340D01*
X-428445Y620253D01*
X-428464Y620218D01*
X-428490Y620187D01*
X-428541Y620079D01*
X-428598Y619975D01*
X-428608Y619935D01*
X-428625Y619899D01*
X-428648Y619782D01*
X-428678Y619667D01*
X-428681Y619607D01*
X-428685Y619587D01*
X-428684Y619566D01*
X-428688Y619506D01*
X-428688Y609846D01*
X-428687Y609837D01*
X-428688Y609827D01*
X-428667Y609679D01*
X-428648Y609530D01*
X-428645Y609522D01*
X-428643Y609512D01*
X-428591Y609360D01*
X-428561Y609287D01*
X-428561Y606103D01*
X-429779Y603162D01*
X-432030Y600911D01*
X-434971Y599693D01*
X-438154Y599693D01*
X-441095Y600911D01*
X-443346Y603162D01*
X-444564Y606103D01*
X-444564Y609287D01*
X-444534Y609360D01*
X-444531Y609369D01*
X-444527Y609377D01*
X-444490Y609522D01*
X-444450Y609667D01*
X-444450Y609676D01*
X-444447Y609685D01*
X-444437Y609846D01*
X-444437Y630216D01*
X-443238Y633111D01*
X-441023Y635326D01*
X-438129Y636525D01*
X110554Y636525D01*
X110672Y636540D01*
X110790Y636547D01*
X110829Y636560D01*
X110869Y636565D01*
X110980Y636608D01*
X111093Y636645D01*
X111127Y636667D01*
X111165Y636682D01*
X111261Y636751D01*
X111362Y636815D01*
X111389Y636845D01*
X111422Y636868D01*
X111498Y636960D01*
X111580Y637047D01*
X111599Y637082D01*
X111625Y637113D01*
X111676Y637221D01*
X111733Y637325D01*
X111743Y637365D01*
X111760Y637401D01*
X111783Y637518D01*
X111813Y637633D01*
X111816Y637693D01*
X111820Y637713D01*
X111819Y637734D01*
X111823Y637794D01*
X111823Y659744D01*
X113022Y662638D01*
X115618Y665234D01*
X118512Y666433D01*
X429239Y666433D01*
X432133Y665234D01*
X434348Y663019D01*
X435547Y660125D01*
X435547Y118126D01*
X435560Y118028D01*
X435563Y117929D01*
X435579Y117871D01*
X435587Y117811D01*
X435624Y117719D01*
X435651Y117624D01*
X435682Y117572D01*
X435704Y117515D01*
X435762Y117435D01*
X435813Y117350D01*
X435879Y117274D01*
X435891Y117258D01*
X435900Y117250D01*
X435919Y117229D01*
X436276Y116872D01*
X437650Y113555D01*
X437650Y109965D01*
X436276Y106648D01*
X433737Y104109D01*
X430420Y102735D01*
X426830Y102735D01*
G37*
%LPD*%
%LPC*%
G36*
X-202773Y339590D02*
X-202773Y339590D01*
X-205316Y340644D01*
X-205325Y340646D01*
X-205333Y340651D01*
X-205478Y340688D01*
X-205622Y340728D01*
X-205632Y340728D01*
X-205641Y340730D01*
X-205801Y340740D01*
X-438129Y340740D01*
X-441023Y341939D01*
X-443238Y344154D01*
X-444437Y347049D01*
X-444437Y376944D01*
X-444438Y376953D01*
X-444437Y376963D01*
X-444458Y377111D01*
X-444477Y377260D01*
X-444480Y377268D01*
X-444482Y377278D01*
X-444534Y377430D01*
X-444564Y377503D01*
X-444564Y380687D01*
X-443346Y383628D01*
X-441095Y385879D01*
X-438154Y387097D01*
X-434971Y387097D01*
X-432030Y385879D01*
X-429779Y383628D01*
X-428561Y380687D01*
X-428561Y377503D01*
X-428591Y377430D01*
X-428594Y377421D01*
X-428598Y377413D01*
X-428635Y377268D01*
X-428675Y377123D01*
X-428675Y377114D01*
X-428678Y377105D01*
X-428688Y376944D01*
X-428688Y357759D01*
X-428673Y357641D01*
X-428665Y357522D01*
X-428653Y357484D01*
X-428648Y357443D01*
X-428604Y357333D01*
X-428567Y357220D01*
X-428546Y357185D01*
X-428531Y357148D01*
X-428461Y357052D01*
X-428397Y356951D01*
X-428368Y356923D01*
X-428344Y356890D01*
X-428252Y356814D01*
X-428166Y356733D01*
X-428130Y356713D01*
X-428099Y356688D01*
X-427991Y356637D01*
X-427887Y356579D01*
X-427848Y356569D01*
X-427811Y356552D01*
X-427695Y356530D01*
X-427579Y356500D01*
X-427519Y356496D01*
X-427499Y356492D01*
X-427479Y356494D01*
X-427419Y356490D01*
X-205801Y356490D01*
X-205792Y356491D01*
X-205783Y356490D01*
X-205634Y356511D01*
X-205486Y356530D01*
X-205477Y356533D01*
X-205468Y356534D01*
X-205316Y356586D01*
X-202773Y357640D01*
X-199182Y357640D01*
X-196639Y356586D01*
X-196630Y356584D01*
X-196622Y356579D01*
X-196477Y356542D01*
X-196333Y356502D01*
X-196323Y356502D01*
X-196314Y356500D01*
X-196154Y356490D01*
X206447Y356490D01*
X206585Y356507D01*
X206724Y356520D01*
X206743Y356527D01*
X206763Y356530D01*
X206892Y356581D01*
X207023Y356628D01*
X207040Y356639D01*
X207059Y356647D01*
X207171Y356728D01*
X207286Y356806D01*
X207300Y356822D01*
X207316Y356833D01*
X207405Y356941D01*
X207497Y357045D01*
X207506Y357063D01*
X207519Y357078D01*
X207578Y357204D01*
X207641Y357328D01*
X207646Y357348D01*
X207654Y357366D01*
X207680Y357503D01*
X207711Y357638D01*
X207710Y357659D01*
X207714Y357678D01*
X207705Y357817D01*
X207701Y357956D01*
X207696Y357976D01*
X207694Y357996D01*
X207652Y358128D01*
X207613Y358262D01*
X207603Y358279D01*
X207596Y358298D01*
X207522Y358416D01*
X207451Y358536D01*
X207433Y358557D01*
X207426Y358567D01*
X207411Y358581D01*
X207345Y358656D01*
X206002Y359999D01*
X204966Y362501D01*
X204966Y365209D01*
X206087Y367916D01*
X206090Y367925D01*
X206094Y367933D01*
X206132Y368078D01*
X206171Y368223D01*
X206171Y368232D01*
X206174Y368241D01*
X206184Y368402D01*
X206184Y370650D01*
X206169Y370768D01*
X206161Y370886D01*
X206149Y370925D01*
X206144Y370965D01*
X206100Y371076D01*
X206063Y371189D01*
X206042Y371223D01*
X206027Y371261D01*
X205957Y371357D01*
X205893Y371458D01*
X205864Y371485D01*
X205840Y371518D01*
X205748Y371594D01*
X205662Y371676D01*
X205626Y371695D01*
X205595Y371721D01*
X205487Y371772D01*
X205383Y371829D01*
X205344Y371839D01*
X205307Y371856D01*
X205191Y371879D01*
X205075Y371909D01*
X205015Y371912D01*
X204995Y371916D01*
X204975Y371915D01*
X204915Y371919D01*
X-255803Y371919D01*
X-255812Y371918D01*
X-255822Y371919D01*
X-255970Y371898D01*
X-256119Y371879D01*
X-256127Y371876D01*
X-256136Y371874D01*
X-256289Y371822D01*
X-258996Y370701D01*
X-261704Y370701D01*
X-264411Y371822D01*
X-264420Y371825D01*
X-264428Y371829D01*
X-264573Y371867D01*
X-264718Y371906D01*
X-264727Y371906D01*
X-264736Y371909D01*
X-264897Y371919D01*
X-351903Y371919D01*
X-352001Y371906D01*
X-352100Y371903D01*
X-352158Y371887D01*
X-352218Y371879D01*
X-352310Y371843D01*
X-352405Y371815D01*
X-352458Y371784D01*
X-352514Y371762D01*
X-352594Y371704D01*
X-352679Y371653D01*
X-352755Y371587D01*
X-352771Y371575D01*
X-352779Y371566D01*
X-352800Y371547D01*
X-353254Y371093D01*
X-367471Y371093D01*
X-368364Y371986D01*
X-368364Y386204D01*
X-367471Y387097D01*
X-353254Y387097D01*
X-352361Y386204D01*
X-352361Y384365D01*
X-352346Y384247D01*
X-352338Y384129D01*
X-352326Y384090D01*
X-352321Y384050D01*
X-352277Y383939D01*
X-352240Y383826D01*
X-352219Y383792D01*
X-352204Y383754D01*
X-352134Y383658D01*
X-352070Y383557D01*
X-352041Y383530D01*
X-352017Y383497D01*
X-351925Y383421D01*
X-351839Y383339D01*
X-351803Y383320D01*
X-351772Y383294D01*
X-351664Y383243D01*
X-351560Y383186D01*
X-351521Y383176D01*
X-351484Y383159D01*
X-351368Y383136D01*
X-351252Y383106D01*
X-351192Y383103D01*
X-351172Y383099D01*
X-351152Y383100D01*
X-351092Y383096D01*
X-264897Y383096D01*
X-264888Y383097D01*
X-264878Y383096D01*
X-264730Y383117D01*
X-264581Y383136D01*
X-264573Y383139D01*
X-264564Y383141D01*
X-264411Y383193D01*
X-261704Y384314D01*
X-258996Y384314D01*
X-256289Y383193D01*
X-256280Y383190D01*
X-256272Y383186D01*
X-256127Y383148D01*
X-255982Y383109D01*
X-255973Y383109D01*
X-255964Y383106D01*
X-255803Y383096D01*
X212884Y383096D01*
X214938Y382245D01*
X216510Y380673D01*
X217361Y378619D01*
X217361Y368402D01*
X217362Y368393D01*
X217361Y368383D01*
X217382Y368235D01*
X217401Y368086D01*
X217404Y368078D01*
X217406Y368068D01*
X217458Y367916D01*
X218579Y365209D01*
X218579Y362501D01*
X217543Y359999D01*
X216200Y358656D01*
X216115Y358547D01*
X216026Y358440D01*
X216018Y358421D01*
X216005Y358405D01*
X215950Y358278D01*
X215891Y358152D01*
X215887Y358132D01*
X215879Y358113D01*
X215857Y357975D01*
X215831Y357839D01*
X215832Y357819D01*
X215829Y357799D01*
X215842Y357660D01*
X215851Y357522D01*
X215857Y357503D01*
X215859Y357483D01*
X215906Y357351D01*
X215949Y357220D01*
X215960Y357202D01*
X215966Y357183D01*
X216044Y357068D01*
X216119Y356951D01*
X216134Y356937D01*
X216145Y356920D01*
X216249Y356828D01*
X216350Y356733D01*
X216368Y356723D01*
X216383Y356710D01*
X216508Y356646D01*
X216629Y356579D01*
X216649Y356574D01*
X216667Y356565D01*
X216802Y356535D01*
X216937Y356500D01*
X216965Y356498D01*
X216977Y356495D01*
X216997Y356496D01*
X217098Y356490D01*
X276924Y356490D01*
X277042Y356505D01*
X277160Y356512D01*
X277199Y356525D01*
X277239Y356530D01*
X277350Y356573D01*
X277463Y356610D01*
X277497Y356632D01*
X277535Y356647D01*
X277631Y356716D01*
X277732Y356780D01*
X277759Y356810D01*
X277792Y356833D01*
X277868Y356925D01*
X277950Y357012D01*
X277969Y357047D01*
X277995Y357078D01*
X278046Y357186D01*
X278103Y357290D01*
X278113Y357330D01*
X278130Y357366D01*
X278153Y357483D01*
X278183Y357598D01*
X278186Y357658D01*
X278190Y357678D01*
X278189Y357699D01*
X278193Y357759D01*
X278193Y376944D01*
X278192Y376953D01*
X278193Y376963D01*
X278172Y377111D01*
X278153Y377260D01*
X278150Y377268D01*
X278148Y377278D01*
X278096Y377430D01*
X278066Y377503D01*
X278066Y380687D01*
X279284Y383628D01*
X281535Y385879D01*
X284476Y387097D01*
X287659Y387097D01*
X290600Y385879D01*
X292851Y383628D01*
X294069Y380687D01*
X294069Y377503D01*
X294039Y377430D01*
X294036Y377421D01*
X294032Y377413D01*
X293995Y377268D01*
X293955Y377123D01*
X293955Y377114D01*
X293952Y377105D01*
X293942Y376944D01*
X293942Y347049D01*
X292743Y344154D01*
X290528Y341939D01*
X287634Y340740D01*
X-196154Y340740D01*
X-196163Y340739D01*
X-196172Y340740D01*
X-196321Y340719D01*
X-196469Y340700D01*
X-196478Y340697D01*
X-196487Y340696D01*
X-196639Y340644D01*
X-199182Y339590D01*
X-202773Y339590D01*
G37*
%LPD*%
%LPC*%
G36*
X-238705Y-152575D02*
X-238705Y-152575D01*
X-244015Y-147265D01*
X-244015Y-139755D01*
X-238705Y-134445D01*
X-231195Y-134445D01*
X-230377Y-135264D01*
X-230299Y-135324D01*
X-230227Y-135392D01*
X-230174Y-135421D01*
X-230126Y-135458D01*
X-230035Y-135498D01*
X-229948Y-135546D01*
X-229890Y-135561D01*
X-229834Y-135585D01*
X-229736Y-135600D01*
X-229640Y-135625D01*
X-229540Y-135631D01*
X-229520Y-135635D01*
X-229508Y-135633D01*
X-229480Y-135635D01*
X93726Y-135635D01*
X93844Y-135620D01*
X93963Y-135613D01*
X94001Y-135600D01*
X94042Y-135595D01*
X94152Y-135552D01*
X94265Y-135515D01*
X94300Y-135493D01*
X94337Y-135478D01*
X94433Y-135409D01*
X94534Y-135345D01*
X94562Y-135315D01*
X94595Y-135292D01*
X94671Y-135200D01*
X94752Y-135113D01*
X94772Y-135078D01*
X94797Y-135047D01*
X94848Y-134939D01*
X94906Y-134835D01*
X94916Y-134795D01*
X94933Y-134759D01*
X94955Y-134642D01*
X94985Y-134527D01*
X94989Y-134467D01*
X94993Y-134447D01*
X94991Y-134426D01*
X94995Y-134366D01*
X94995Y113009D01*
X96194Y115903D01*
X98409Y118118D01*
X101304Y119317D01*
X364746Y119317D01*
X364755Y119318D01*
X364765Y119317D01*
X364913Y119338D01*
X365062Y119357D01*
X365070Y119360D01*
X365079Y119362D01*
X365232Y119414D01*
X367775Y120467D01*
X371365Y120467D01*
X374682Y119093D01*
X377221Y116555D01*
X378595Y113238D01*
X378595Y109647D01*
X377221Y106330D01*
X374682Y103792D01*
X371365Y102418D01*
X367775Y102418D01*
X365232Y103471D01*
X365223Y103474D01*
X365215Y103478D01*
X365069Y103516D01*
X364925Y103555D01*
X364916Y103555D01*
X364907Y103558D01*
X364746Y103568D01*
X112014Y103568D01*
X111896Y103553D01*
X111777Y103545D01*
X111739Y103533D01*
X111698Y103528D01*
X111588Y103484D01*
X111475Y103447D01*
X111440Y103426D01*
X111403Y103411D01*
X111307Y103341D01*
X111206Y103277D01*
X111178Y103248D01*
X111145Y103224D01*
X111069Y103132D01*
X110988Y103046D01*
X110968Y103010D01*
X110943Y102979D01*
X110892Y102871D01*
X110834Y102767D01*
X110824Y102728D01*
X110807Y102691D01*
X110785Y102575D01*
X110755Y102459D01*
X110751Y102399D01*
X110747Y102379D01*
X110749Y102359D01*
X110745Y102299D01*
X110745Y-138686D01*
X110746Y-138695D01*
X110745Y-138705D01*
X110766Y-138853D01*
X110785Y-139002D01*
X110788Y-139010D01*
X110789Y-139019D01*
X110841Y-139172D01*
X111895Y-141715D01*
X111895Y-145305D01*
X110521Y-148622D01*
X107982Y-151161D01*
X104665Y-152535D01*
X101075Y-152535D01*
X98532Y-151481D01*
X98523Y-151479D01*
X98515Y-151474D01*
X98369Y-151437D01*
X98225Y-151397D01*
X98216Y-151397D01*
X98207Y-151395D01*
X98046Y-151385D01*
X-229480Y-151385D01*
X-229578Y-151397D01*
X-229677Y-151400D01*
X-229735Y-151417D01*
X-229795Y-151425D01*
X-229887Y-151461D01*
X-229982Y-151489D01*
X-230034Y-151519D01*
X-230091Y-151542D01*
X-230171Y-151600D01*
X-230256Y-151650D01*
X-230332Y-151716D01*
X-230348Y-151728D01*
X-230356Y-151738D01*
X-230377Y-151756D01*
X-231195Y-152575D01*
X-238705Y-152575D01*
G37*
%LPD*%
%LPC*%
G36*
X193095Y-101775D02*
X193095Y-101775D01*
X187785Y-96465D01*
X187785Y-88955D01*
X193095Y-83645D01*
X200605Y-83645D01*
X203709Y-86750D01*
X203787Y-86810D01*
X203859Y-86878D01*
X203912Y-86907D01*
X203960Y-86944D01*
X204051Y-86984D01*
X204138Y-87032D01*
X204196Y-87047D01*
X204252Y-87071D01*
X204350Y-87086D01*
X204446Y-87111D01*
X204546Y-87117D01*
X204566Y-87121D01*
X204578Y-87119D01*
X204606Y-87121D01*
X396050Y-87121D01*
X396168Y-87106D01*
X396286Y-87099D01*
X396325Y-87086D01*
X396365Y-87081D01*
X396476Y-87038D01*
X396589Y-87001D01*
X396623Y-86979D01*
X396661Y-86964D01*
X396757Y-86895D01*
X396858Y-86831D01*
X396885Y-86801D01*
X396918Y-86778D01*
X396994Y-86686D01*
X397076Y-86599D01*
X397095Y-86564D01*
X397121Y-86533D01*
X397172Y-86425D01*
X397229Y-86321D01*
X397239Y-86281D01*
X397256Y-86245D01*
X397279Y-86128D01*
X397309Y-86013D01*
X397312Y-85953D01*
X397316Y-85933D01*
X397315Y-85912D01*
X397319Y-85852D01*
X397319Y524637D01*
X397304Y524755D01*
X397296Y524874D01*
X397284Y524912D01*
X397279Y524953D01*
X397235Y525063D01*
X397198Y525176D01*
X397177Y525211D01*
X397162Y525248D01*
X397092Y525344D01*
X397028Y525445D01*
X396999Y525473D01*
X396975Y525506D01*
X396883Y525582D01*
X396797Y525663D01*
X396761Y525683D01*
X396730Y525708D01*
X396622Y525759D01*
X396518Y525817D01*
X396479Y525827D01*
X396442Y525844D01*
X396326Y525866D01*
X396210Y525896D01*
X396150Y525900D01*
X396130Y525904D01*
X396110Y525902D01*
X396050Y525906D01*
X368521Y525906D01*
X368423Y525894D01*
X368323Y525891D01*
X368265Y525874D01*
X368205Y525866D01*
X368113Y525830D01*
X368018Y525802D01*
X367966Y525772D01*
X367909Y525749D01*
X367829Y525691D01*
X367744Y525641D01*
X367669Y525575D01*
X367652Y525563D01*
X367644Y525553D01*
X367623Y525535D01*
X366800Y524711D01*
X363859Y523493D01*
X360676Y523493D01*
X357735Y524711D01*
X355484Y526962D01*
X354266Y529903D01*
X354266Y533087D01*
X355484Y536028D01*
X357735Y538279D01*
X360676Y539497D01*
X363859Y539497D01*
X366800Y538279D01*
X367623Y537455D01*
X367701Y537395D01*
X367774Y537327D01*
X367827Y537298D01*
X367874Y537261D01*
X367965Y537221D01*
X368052Y537173D01*
X368111Y537158D01*
X368166Y537134D01*
X368264Y537119D01*
X368360Y537094D01*
X368460Y537088D01*
X368480Y537084D01*
X368493Y537086D01*
X368521Y537084D01*
X404019Y537084D01*
X406073Y536233D01*
X407645Y534661D01*
X408496Y532607D01*
X408496Y-93822D01*
X407645Y-95876D01*
X406073Y-97448D01*
X404019Y-98299D01*
X204606Y-98299D01*
X204508Y-98311D01*
X204409Y-98314D01*
X204351Y-98331D01*
X204291Y-98339D01*
X204199Y-98375D01*
X204104Y-98403D01*
X204052Y-98433D01*
X203995Y-98456D01*
X203915Y-98514D01*
X203830Y-98564D01*
X203754Y-98630D01*
X203738Y-98642D01*
X203730Y-98652D01*
X203709Y-98670D01*
X200605Y-101775D01*
X193095Y-101775D01*
G37*
%LPD*%
%LPC*%
G36*
X-428391Y698678D02*
X-428391Y698678D01*
X-430893Y699715D01*
X-432808Y701629D01*
X-433844Y704131D01*
X-433844Y706839D01*
X-432808Y709341D01*
X-430893Y711255D01*
X-428391Y712292D01*
X-425684Y712292D01*
X-422976Y711170D01*
X-422967Y711168D01*
X-422959Y711163D01*
X-422814Y711126D01*
X-422670Y711086D01*
X-422660Y711086D01*
X-422651Y711084D01*
X-422491Y711074D01*
X-419278Y711074D01*
X-419209Y711082D01*
X-419139Y711081D01*
X-419052Y711102D01*
X-418963Y711114D01*
X-418898Y711139D01*
X-418830Y711156D01*
X-418750Y711198D01*
X-418667Y711231D01*
X-418610Y711272D01*
X-418549Y711304D01*
X-418482Y711365D01*
X-418410Y711417D01*
X-418365Y711471D01*
X-418313Y711518D01*
X-418264Y711593D01*
X-418207Y711662D01*
X-418177Y711726D01*
X-418139Y711784D01*
X-418109Y711869D01*
X-418071Y711950D01*
X-418058Y712019D01*
X-418035Y712085D01*
X-418028Y712174D01*
X-418011Y712262D01*
X-418016Y712332D01*
X-418010Y712402D01*
X-418026Y712490D01*
X-418031Y712580D01*
X-418053Y712646D01*
X-418065Y712715D01*
X-418102Y712797D01*
X-418129Y712882D01*
X-418167Y712941D01*
X-418195Y713005D01*
X-418251Y713075D01*
X-418299Y713151D01*
X-418350Y713199D01*
X-418394Y713253D01*
X-418466Y713308D01*
X-418531Y713369D01*
X-418592Y713403D01*
X-418648Y713445D01*
X-418792Y713516D01*
X-420733Y714320D01*
X-422648Y716234D01*
X-423684Y718736D01*
X-423684Y721444D01*
X-422648Y723946D01*
X-420733Y725860D01*
X-418231Y726897D01*
X-415524Y726897D01*
X-412816Y725775D01*
X-412807Y725773D01*
X-412799Y725768D01*
X-412654Y725731D01*
X-412510Y725691D01*
X-412500Y725691D01*
X-412491Y725689D01*
X-412331Y725679D01*
X-256349Y725679D01*
X-256231Y725694D01*
X-256113Y725701D01*
X-256074Y725714D01*
X-256034Y725719D01*
X-255923Y725762D01*
X-255810Y725799D01*
X-255776Y725821D01*
X-255738Y725836D01*
X-255642Y725905D01*
X-255541Y725969D01*
X-255514Y725999D01*
X-255481Y726022D01*
X-255405Y726114D01*
X-255323Y726201D01*
X-255304Y726236D01*
X-255278Y726267D01*
X-255227Y726375D01*
X-255170Y726479D01*
X-255160Y726519D01*
X-255143Y726555D01*
X-255120Y726672D01*
X-255090Y726787D01*
X-255087Y726847D01*
X-255083Y726867D01*
X-255084Y726888D01*
X-255080Y726948D01*
X-255080Y784826D01*
X-255093Y784925D01*
X-255096Y785024D01*
X-255112Y785082D01*
X-255120Y785142D01*
X-255157Y785234D01*
X-255184Y785329D01*
X-255215Y785381D01*
X-255237Y785438D01*
X-255295Y785518D01*
X-255346Y785603D01*
X-255412Y785678D01*
X-255424Y785695D01*
X-255433Y785703D01*
X-255452Y785724D01*
X-258052Y788323D01*
X-259589Y792034D01*
X-259589Y796052D01*
X-258052Y799763D01*
X-255211Y802603D01*
X-251500Y804140D01*
X-247483Y804140D01*
X-243772Y802603D01*
X-240931Y799763D01*
X-239394Y796052D01*
X-239394Y792034D01*
X-240931Y788323D01*
X-243531Y785724D01*
X-243592Y785646D01*
X-243660Y785573D01*
X-243689Y785520D01*
X-243726Y785473D01*
X-243765Y785381D01*
X-243813Y785295D01*
X-243828Y785236D01*
X-243852Y785181D01*
X-243868Y785083D01*
X-243893Y784987D01*
X-243899Y784887D01*
X-243902Y784867D01*
X-243901Y784854D01*
X-243903Y784826D01*
X-243903Y719994D01*
X-244754Y717940D01*
X-247342Y715352D01*
X-249396Y714501D01*
X-412331Y714501D01*
X-412340Y714500D01*
X-412349Y714501D01*
X-412498Y714480D01*
X-412646Y714461D01*
X-412655Y714458D01*
X-412664Y714457D01*
X-412816Y714405D01*
X-414963Y713516D01*
X-415023Y713481D01*
X-415088Y713455D01*
X-415161Y713403D01*
X-415239Y713358D01*
X-415289Y713309D01*
X-415345Y713269D01*
X-415403Y713199D01*
X-415467Y713137D01*
X-415504Y713077D01*
X-415548Y713024D01*
X-415587Y712942D01*
X-415634Y712866D01*
X-415654Y712799D01*
X-415684Y712736D01*
X-415701Y712648D01*
X-415727Y712562D01*
X-415730Y712492D01*
X-415744Y712423D01*
X-415738Y712334D01*
X-415742Y712244D01*
X-415728Y712176D01*
X-415724Y712106D01*
X-415696Y712021D01*
X-415678Y711933D01*
X-415647Y711870D01*
X-415626Y711804D01*
X-415578Y711728D01*
X-415538Y711647D01*
X-415493Y711594D01*
X-415456Y711535D01*
X-415390Y711473D01*
X-415332Y711405D01*
X-415275Y711365D01*
X-415224Y711317D01*
X-415145Y711274D01*
X-415072Y711222D01*
X-415007Y711197D01*
X-414946Y711163D01*
X-414859Y711141D01*
X-414775Y711109D01*
X-414705Y711101D01*
X-414638Y711084D01*
X-414477Y711074D01*
X-229425Y711074D01*
X-229307Y711089D01*
X-229189Y711096D01*
X-229150Y711109D01*
X-229110Y711114D01*
X-228999Y711157D01*
X-228886Y711194D01*
X-228852Y711216D01*
X-228814Y711231D01*
X-228718Y711300D01*
X-228617Y711364D01*
X-228590Y711394D01*
X-228557Y711417D01*
X-228481Y711509D01*
X-228399Y711596D01*
X-228380Y711631D01*
X-228354Y711662D01*
X-228303Y711770D01*
X-228246Y711874D01*
X-228236Y711914D01*
X-228219Y711950D01*
X-228196Y712067D01*
X-228166Y712182D01*
X-228163Y712242D01*
X-228159Y712262D01*
X-228160Y712283D01*
X-228156Y712343D01*
X-228156Y785080D01*
X-228169Y785179D01*
X-228172Y785278D01*
X-228188Y785336D01*
X-228196Y785396D01*
X-228233Y785488D01*
X-228260Y785583D01*
X-228291Y785635D01*
X-228313Y785692D01*
X-228371Y785772D01*
X-228422Y785857D01*
X-228488Y785932D01*
X-228500Y785949D01*
X-228509Y785957D01*
X-228528Y785978D01*
X-230874Y788323D01*
X-232411Y792034D01*
X-232411Y796052D01*
X-230874Y799763D01*
X-228033Y802603D01*
X-224322Y804140D01*
X-220305Y804140D01*
X-216594Y802603D01*
X-213753Y799763D01*
X-212216Y796052D01*
X-212216Y792034D01*
X-213753Y788323D01*
X-216607Y785470D01*
X-216668Y785392D01*
X-216736Y785319D01*
X-216765Y785266D01*
X-216802Y785219D01*
X-216841Y785128D01*
X-216889Y785041D01*
X-216904Y784982D01*
X-216928Y784927D01*
X-216944Y784829D01*
X-216969Y784733D01*
X-216975Y784633D01*
X-216978Y784613D01*
X-216977Y784600D01*
X-216979Y784572D01*
X-216979Y704373D01*
X-217830Y702319D01*
X-219402Y700747D01*
X-221456Y699896D01*
X-422491Y699896D01*
X-422500Y699895D01*
X-422509Y699896D01*
X-422658Y699875D01*
X-422806Y699856D01*
X-422815Y699853D01*
X-422824Y699852D01*
X-422976Y699800D01*
X-425684Y698678D01*
X-428391Y698678D01*
G37*
%LPD*%
%LPC*%
G36*
X142791Y391973D02*
X142791Y391973D01*
X140289Y393010D01*
X138375Y394924D01*
X137338Y397426D01*
X137338Y400134D01*
X138460Y402841D01*
X138462Y402850D01*
X138467Y402858D01*
X138504Y403003D01*
X138544Y403148D01*
X138544Y403157D01*
X138546Y403166D01*
X138556Y403327D01*
X138556Y448437D01*
X138541Y448555D01*
X138534Y448674D01*
X138521Y448712D01*
X138516Y448753D01*
X138473Y448863D01*
X138436Y448976D01*
X138414Y449011D01*
X138399Y449048D01*
X138330Y449144D01*
X138266Y449245D01*
X138236Y449273D01*
X138213Y449306D01*
X138121Y449382D01*
X138034Y449463D01*
X137999Y449483D01*
X137968Y449508D01*
X137860Y449559D01*
X137756Y449617D01*
X137716Y449627D01*
X137680Y449644D01*
X137563Y449666D01*
X137448Y449696D01*
X137388Y449700D01*
X137368Y449704D01*
X137347Y449702D01*
X137287Y449706D01*
X-354109Y449706D01*
X-354207Y449694D01*
X-354307Y449691D01*
X-354365Y449674D01*
X-354425Y449666D01*
X-354517Y449630D01*
X-354612Y449602D01*
X-354664Y449572D01*
X-354721Y449549D01*
X-354801Y449491D01*
X-354886Y449441D01*
X-354961Y449375D01*
X-354978Y449363D01*
X-354986Y449353D01*
X-355007Y449334D01*
X-355830Y448511D01*
X-358771Y447293D01*
X-361954Y447293D01*
X-364895Y448511D01*
X-367146Y450762D01*
X-368364Y453703D01*
X-368364Y456887D01*
X-367146Y459828D01*
X-364895Y462079D01*
X-361954Y463297D01*
X-358771Y463297D01*
X-355830Y462079D01*
X-355007Y461256D01*
X-354929Y461195D01*
X-354856Y461127D01*
X-354803Y461098D01*
X-354756Y461061D01*
X-354665Y461021D01*
X-354578Y460973D01*
X-354519Y460958D01*
X-354464Y460934D01*
X-354366Y460919D01*
X-354270Y460894D01*
X-354170Y460888D01*
X-354150Y460884D01*
X-354137Y460886D01*
X-354109Y460884D01*
X145257Y460884D01*
X147311Y460033D01*
X148883Y458461D01*
X149734Y456407D01*
X149734Y403327D01*
X149735Y403318D01*
X149734Y403308D01*
X149755Y403160D01*
X149774Y403011D01*
X149777Y403003D01*
X149778Y402994D01*
X149830Y402841D01*
X150952Y400134D01*
X150952Y397426D01*
X149915Y394924D01*
X148001Y393010D01*
X145499Y391973D01*
X142791Y391973D01*
G37*
%LPD*%
%LPC*%
G36*
X90193Y784073D02*
X90193Y784073D01*
X86482Y785610D01*
X83883Y788210D01*
X83805Y788270D01*
X83732Y788338D01*
X83679Y788367D01*
X83632Y788404D01*
X83541Y788444D01*
X83454Y788492D01*
X83395Y788507D01*
X83340Y788531D01*
X83242Y788546D01*
X83146Y788571D01*
X83046Y788577D01*
X83026Y788581D01*
X83013Y788579D01*
X82985Y788581D01*
X77946Y788581D01*
X75892Y789432D01*
X74320Y791004D01*
X73469Y793058D01*
X73469Y902812D01*
X74320Y904866D01*
X75892Y906438D01*
X77946Y907289D01*
X116421Y907289D01*
X116430Y907290D01*
X116439Y907289D01*
X116588Y907310D01*
X116736Y907329D01*
X116745Y907332D01*
X116754Y907333D01*
X116906Y907385D01*
X119614Y908507D01*
X122321Y908507D01*
X124823Y907470D01*
X126738Y905556D01*
X127774Y903054D01*
X127774Y900346D01*
X126738Y897844D01*
X124823Y895930D01*
X124722Y895888D01*
X124602Y895819D01*
X124478Y895754D01*
X124463Y895740D01*
X124446Y895730D01*
X124346Y895634D01*
X124243Y895540D01*
X124232Y895523D01*
X124217Y895509D01*
X124145Y895390D01*
X124068Y895274D01*
X124062Y895255D01*
X124051Y895238D01*
X124010Y895105D01*
X123965Y894973D01*
X123963Y894953D01*
X123957Y894934D01*
X123951Y894795D01*
X123940Y894656D01*
X123943Y894636D01*
X123942Y894616D01*
X123970Y894480D01*
X123994Y894343D01*
X124003Y894324D01*
X124007Y894305D01*
X124068Y894180D01*
X124125Y894053D01*
X124137Y894037D01*
X124146Y894019D01*
X124236Y893913D01*
X124323Y893804D01*
X124340Y893792D01*
X124353Y893777D01*
X124466Y893697D01*
X124578Y893613D01*
X124603Y893601D01*
X124613Y893594D01*
X124632Y893587D01*
X124722Y893542D01*
X124823Y893500D01*
X126738Y891586D01*
X127774Y889084D01*
X127774Y886376D01*
X126738Y883874D01*
X124823Y881960D01*
X124722Y881918D01*
X124602Y881849D01*
X124478Y881784D01*
X124463Y881770D01*
X124446Y881760D01*
X124346Y881664D01*
X124243Y881570D01*
X124232Y881553D01*
X124217Y881539D01*
X124145Y881420D01*
X124068Y881304D01*
X124062Y881285D01*
X124051Y881268D01*
X124010Y881135D01*
X123965Y881003D01*
X123963Y880983D01*
X123957Y880964D01*
X123951Y880825D01*
X123940Y880686D01*
X123943Y880666D01*
X123942Y880646D01*
X123970Y880510D01*
X123994Y880373D01*
X124003Y880354D01*
X124007Y880335D01*
X124068Y880210D01*
X124125Y880083D01*
X124137Y880067D01*
X124146Y880049D01*
X124236Y879943D01*
X124323Y879834D01*
X124340Y879822D01*
X124353Y879807D01*
X124466Y879727D01*
X124578Y879643D01*
X124603Y879631D01*
X124613Y879624D01*
X124632Y879617D01*
X124722Y879572D01*
X124823Y879530D01*
X126738Y877616D01*
X127774Y875114D01*
X127774Y872406D01*
X126738Y869904D01*
X124823Y867990D01*
X123496Y867440D01*
X123435Y867405D01*
X123370Y867379D01*
X123297Y867327D01*
X123219Y867282D01*
X123169Y867234D01*
X123113Y867193D01*
X123055Y867123D01*
X122991Y867061D01*
X122954Y867001D01*
X122910Y866948D01*
X122872Y866866D01*
X122825Y866790D01*
X122804Y866723D01*
X122774Y866660D01*
X122757Y866572D01*
X122731Y866486D01*
X122728Y866416D01*
X122715Y866347D01*
X122720Y866258D01*
X122716Y866168D01*
X122730Y866100D01*
X122734Y866030D01*
X122762Y865945D01*
X122780Y865857D01*
X122811Y865794D01*
X122832Y865728D01*
X122880Y865652D01*
X122920Y865571D01*
X122965Y865518D01*
X123002Y865459D01*
X123068Y865397D01*
X123126Y865329D01*
X123183Y865289D01*
X123234Y865241D01*
X123313Y865198D01*
X123386Y865146D01*
X123452Y865121D01*
X123513Y865087D01*
X123599Y865065D01*
X123684Y865033D01*
X123753Y865025D01*
X123821Y865008D01*
X123981Y864998D01*
X161640Y864998D01*
X163694Y864147D01*
X165266Y862575D01*
X166117Y860521D01*
X166117Y828787D01*
X166129Y828688D01*
X166132Y828589D01*
X166149Y828531D01*
X166157Y828471D01*
X166193Y828379D01*
X166221Y828284D01*
X166251Y828232D01*
X166274Y828175D01*
X166332Y828095D01*
X166382Y828010D01*
X166448Y827935D01*
X166460Y827918D01*
X166470Y827910D01*
X166488Y827889D01*
X169088Y825290D01*
X170625Y821579D01*
X170625Y817561D01*
X169088Y813850D01*
X166248Y811010D01*
X162537Y809473D01*
X158519Y809473D01*
X154808Y811010D01*
X151968Y813850D01*
X150431Y817561D01*
X150431Y821579D01*
X151968Y825290D01*
X154568Y827889D01*
X154628Y827967D01*
X154696Y828040D01*
X154725Y828093D01*
X154762Y828140D01*
X154802Y828231D01*
X154850Y828318D01*
X154865Y828377D01*
X154889Y828432D01*
X154904Y828530D01*
X154929Y828626D01*
X154935Y828726D01*
X154939Y828746D01*
X154937Y828759D01*
X154939Y828787D01*
X154939Y852551D01*
X154924Y852669D01*
X154917Y852788D01*
X154904Y852826D01*
X154899Y852867D01*
X154856Y852977D01*
X154819Y853090D01*
X154797Y853125D01*
X154782Y853162D01*
X154713Y853258D01*
X154649Y853359D01*
X154619Y853387D01*
X154596Y853420D01*
X154504Y853496D01*
X154417Y853577D01*
X154382Y853597D01*
X154351Y853622D01*
X154243Y853673D01*
X154139Y853731D01*
X154099Y853741D01*
X154063Y853758D01*
X153946Y853780D01*
X153831Y853810D01*
X153771Y853814D01*
X153751Y853818D01*
X153730Y853816D01*
X153670Y853820D01*
X135227Y853820D01*
X135157Y853812D01*
X135087Y853813D01*
X135000Y853792D01*
X134911Y853780D01*
X134846Y853755D01*
X134778Y853738D01*
X134699Y853696D01*
X134615Y853663D01*
X134559Y853622D01*
X134497Y853590D01*
X134431Y853529D01*
X134358Y853477D01*
X134313Y853423D01*
X134262Y853376D01*
X134212Y853301D01*
X134155Y853232D01*
X134125Y853168D01*
X134087Y853110D01*
X134058Y853025D01*
X134020Y852944D01*
X134007Y852875D01*
X133984Y852809D01*
X133977Y852720D01*
X133960Y852632D01*
X133964Y852562D01*
X133959Y852492D01*
X133974Y852404D01*
X133980Y852314D01*
X134001Y852248D01*
X134013Y852179D01*
X134050Y852097D01*
X134078Y852012D01*
X134115Y851953D01*
X134144Y851889D01*
X134200Y851819D01*
X134248Y851743D01*
X134299Y851695D01*
X134342Y851641D01*
X134414Y851586D01*
X134479Y851525D01*
X134540Y851491D01*
X134596Y851449D01*
X134741Y851378D01*
X136262Y850748D01*
X137834Y849176D01*
X138685Y847122D01*
X138685Y828787D01*
X138697Y828688D01*
X138700Y828589D01*
X138717Y828531D01*
X138725Y828471D01*
X138761Y828379D01*
X138789Y828284D01*
X138819Y828232D01*
X138842Y828175D01*
X138900Y828095D01*
X138950Y828010D01*
X139016Y827935D01*
X139028Y827918D01*
X139038Y827910D01*
X139056Y827889D01*
X141656Y825290D01*
X143193Y821579D01*
X143193Y817561D01*
X141656Y813850D01*
X138816Y811010D01*
X135105Y809473D01*
X131087Y809473D01*
X127376Y811010D01*
X124536Y813850D01*
X122999Y817561D01*
X122999Y821579D01*
X124536Y825290D01*
X127136Y827889D01*
X127196Y827967D01*
X127264Y828040D01*
X127293Y828093D01*
X127330Y828140D01*
X127370Y828231D01*
X127418Y828318D01*
X127433Y828377D01*
X127457Y828432D01*
X127472Y828530D01*
X127497Y828626D01*
X127503Y828726D01*
X127507Y828746D01*
X127505Y828759D01*
X127507Y828787D01*
X127507Y839153D01*
X127492Y839271D01*
X127485Y839389D01*
X127472Y839428D01*
X127467Y839468D01*
X127424Y839579D01*
X127387Y839692D01*
X127365Y839726D01*
X127350Y839764D01*
X127281Y839860D01*
X127217Y839961D01*
X127187Y839988D01*
X127164Y840021D01*
X127072Y840097D01*
X126985Y840179D01*
X126950Y840198D01*
X126919Y840224D01*
X126811Y840275D01*
X126707Y840332D01*
X126667Y840342D01*
X126631Y840359D01*
X126514Y840382D01*
X126399Y840412D01*
X126339Y840415D01*
X126319Y840419D01*
X126298Y840418D01*
X126238Y840422D01*
X98463Y840422D01*
X98454Y840421D01*
X98445Y840422D01*
X98296Y840401D01*
X98148Y840382D01*
X98139Y840379D01*
X98130Y840377D01*
X97978Y840325D01*
X95270Y839204D01*
X92563Y839204D01*
X90061Y840240D01*
X88146Y842155D01*
X87088Y844709D01*
X87054Y844769D01*
X87028Y844834D01*
X86975Y844907D01*
X86931Y844985D01*
X86882Y845035D01*
X86841Y845092D01*
X86772Y845149D01*
X86709Y845214D01*
X86650Y845250D01*
X86596Y845295D01*
X86515Y845333D01*
X86438Y845380D01*
X86371Y845400D01*
X86308Y845430D01*
X86220Y845447D01*
X86134Y845473D01*
X86065Y845477D01*
X85996Y845490D01*
X85906Y845484D01*
X85817Y845489D01*
X85748Y845474D01*
X85679Y845470D01*
X85593Y845442D01*
X85505Y845424D01*
X85442Y845394D01*
X85376Y845372D01*
X85300Y845324D01*
X85219Y845285D01*
X85166Y845239D01*
X85107Y845202D01*
X85046Y845137D01*
X84977Y845078D01*
X84937Y845021D01*
X84889Y844970D01*
X84846Y844892D01*
X84794Y844818D01*
X84770Y844753D01*
X84736Y844692D01*
X84714Y844605D01*
X84682Y844521D01*
X84674Y844451D01*
X84656Y844384D01*
X84646Y844223D01*
X84646Y803869D01*
X84652Y803820D01*
X84650Y803770D01*
X84672Y803663D01*
X84686Y803553D01*
X84704Y803507D01*
X84714Y803459D01*
X84763Y803360D01*
X84803Y803258D01*
X84832Y803218D01*
X84854Y803173D01*
X84925Y803089D01*
X84990Y803000D01*
X85028Y802969D01*
X85060Y802931D01*
X85150Y802868D01*
X85235Y802798D01*
X85280Y802776D01*
X85321Y802748D01*
X85423Y802709D01*
X85523Y802662D01*
X85571Y802653D01*
X85618Y802635D01*
X85727Y802623D01*
X85835Y802602D01*
X85884Y802605D01*
X85934Y802600D01*
X86043Y802615D01*
X86152Y802622D01*
X86200Y802637D01*
X86249Y802644D01*
X86401Y802696D01*
X90193Y804267D01*
X94211Y804267D01*
X97922Y802730D01*
X100762Y799890D01*
X102299Y796179D01*
X102299Y792161D01*
X100762Y788450D01*
X97922Y785610D01*
X94211Y784073D01*
X90193Y784073D01*
G37*
%LPD*%
%LPC*%
G36*
X123424Y392608D02*
X123424Y392608D01*
X120922Y393645D01*
X119007Y395559D01*
X117971Y398061D01*
X117971Y400769D01*
X119092Y403476D01*
X119095Y403485D01*
X119099Y403493D01*
X119137Y403638D01*
X119176Y403783D01*
X119176Y403792D01*
X119179Y403801D01*
X119189Y403962D01*
X119189Y423037D01*
X119174Y423155D01*
X119166Y423274D01*
X119154Y423312D01*
X119149Y423353D01*
X119105Y423463D01*
X119068Y423576D01*
X119047Y423611D01*
X119032Y423648D01*
X118962Y423744D01*
X118898Y423845D01*
X118869Y423873D01*
X118845Y423906D01*
X118753Y423982D01*
X118667Y424063D01*
X118631Y424083D01*
X118600Y424108D01*
X118492Y424159D01*
X118388Y424217D01*
X118349Y424227D01*
X118312Y424244D01*
X118196Y424266D01*
X118080Y424296D01*
X118020Y424300D01*
X118000Y424304D01*
X117980Y424302D01*
X117920Y424306D01*
X-354109Y424306D01*
X-354207Y424294D01*
X-354307Y424291D01*
X-354365Y424274D01*
X-354425Y424266D01*
X-354517Y424230D01*
X-354612Y424202D01*
X-354664Y424172D01*
X-354721Y424149D01*
X-354801Y424091D01*
X-354886Y424041D01*
X-354961Y423975D01*
X-354978Y423963D01*
X-354986Y423953D01*
X-355007Y423934D01*
X-355830Y423111D01*
X-358771Y421893D01*
X-361954Y421893D01*
X-364895Y423111D01*
X-367146Y425362D01*
X-368364Y428303D01*
X-368364Y431487D01*
X-367146Y434428D01*
X-364895Y436679D01*
X-361954Y437897D01*
X-358771Y437897D01*
X-355830Y436679D01*
X-355007Y435856D01*
X-354929Y435795D01*
X-354856Y435727D01*
X-354803Y435698D01*
X-354756Y435661D01*
X-354665Y435621D01*
X-354578Y435573D01*
X-354519Y435558D01*
X-354464Y435534D01*
X-354366Y435519D01*
X-354270Y435494D01*
X-354170Y435488D01*
X-354150Y435484D01*
X-354137Y435486D01*
X-354109Y435484D01*
X125889Y435484D01*
X127943Y434633D01*
X129515Y433061D01*
X130366Y431007D01*
X130366Y403962D01*
X130367Y403953D01*
X130366Y403943D01*
X130387Y403795D01*
X130406Y403646D01*
X130409Y403638D01*
X130411Y403629D01*
X130463Y403476D01*
X131584Y400769D01*
X131584Y398061D01*
X130548Y395559D01*
X128633Y393645D01*
X126131Y392608D01*
X123424Y392608D01*
G37*
%LPD*%
%LPC*%
G36*
X-367749Y-251917D02*
X-367749Y-251917D01*
X-370251Y-250880D01*
X-372165Y-248966D01*
X-373202Y-246464D01*
X-373202Y-243756D01*
X-372080Y-241049D01*
X-372078Y-241040D01*
X-372073Y-241032D01*
X-372036Y-240887D01*
X-371996Y-240742D01*
X-371996Y-240733D01*
X-371994Y-240724D01*
X-371984Y-240563D01*
X-371984Y-45504D01*
X-371985Y-45495D01*
X-371984Y-45486D01*
X-372005Y-45337D01*
X-372024Y-45189D01*
X-372027Y-45180D01*
X-372028Y-45171D01*
X-372080Y-45019D01*
X-373202Y-42311D01*
X-373202Y-39604D01*
X-372165Y-37102D01*
X-370251Y-35187D01*
X-367749Y-34151D01*
X-365041Y-34151D01*
X-362539Y-35187D01*
X-360625Y-37102D01*
X-359588Y-39604D01*
X-359588Y-42311D01*
X-360710Y-45019D01*
X-360712Y-45028D01*
X-360717Y-45036D01*
X-360754Y-45181D01*
X-360794Y-45325D01*
X-360794Y-45335D01*
X-360796Y-45344D01*
X-360806Y-45504D01*
X-360806Y-217309D01*
X-360798Y-217379D01*
X-360799Y-217448D01*
X-360778Y-217536D01*
X-360766Y-217625D01*
X-360741Y-217690D01*
X-360724Y-217758D01*
X-360682Y-217837D01*
X-360649Y-217921D01*
X-360608Y-217977D01*
X-360576Y-218039D01*
X-360515Y-218105D01*
X-360463Y-218178D01*
X-360409Y-218223D01*
X-360362Y-218274D01*
X-360287Y-218323D01*
X-360218Y-218381D01*
X-360154Y-218411D01*
X-360096Y-218449D01*
X-360011Y-218478D01*
X-359930Y-218516D01*
X-359861Y-218529D01*
X-359795Y-218552D01*
X-359706Y-218559D01*
X-359618Y-218576D01*
X-359548Y-218572D01*
X-359478Y-218577D01*
X-359390Y-218562D01*
X-359300Y-218556D01*
X-359234Y-218535D01*
X-359165Y-218523D01*
X-359083Y-218486D01*
X-358998Y-218458D01*
X-358939Y-218421D01*
X-358875Y-218392D01*
X-358805Y-218336D01*
X-358729Y-218288D01*
X-358681Y-218237D01*
X-358627Y-218194D01*
X-358572Y-218122D01*
X-358511Y-218057D01*
X-358477Y-217995D01*
X-358435Y-217940D01*
X-358364Y-217795D01*
X-357560Y-215854D01*
X-355646Y-213940D01*
X-355622Y-213930D01*
X-355597Y-213915D01*
X-355569Y-213906D01*
X-355459Y-213837D01*
X-355346Y-213772D01*
X-355325Y-213752D01*
X-355300Y-213736D01*
X-355211Y-213641D01*
X-355118Y-213551D01*
X-355102Y-213526D01*
X-355082Y-213504D01*
X-355019Y-213391D01*
X-354951Y-213280D01*
X-354943Y-213252D01*
X-354928Y-213226D01*
X-354896Y-213100D01*
X-354858Y-212976D01*
X-354856Y-212946D01*
X-354849Y-212918D01*
X-354839Y-212757D01*
X-354839Y-45822D01*
X-354840Y-45813D01*
X-354839Y-45803D01*
X-354860Y-45655D01*
X-354879Y-45506D01*
X-354882Y-45498D01*
X-354883Y-45489D01*
X-354935Y-45336D01*
X-356057Y-42629D01*
X-356057Y-39921D01*
X-355020Y-37419D01*
X-353106Y-35505D01*
X-350604Y-34468D01*
X-347896Y-34468D01*
X-345394Y-35505D01*
X-343480Y-37419D01*
X-342443Y-39921D01*
X-342443Y-42629D01*
X-343565Y-45336D01*
X-343567Y-45345D01*
X-343572Y-45353D01*
X-343609Y-45498D01*
X-343649Y-45643D01*
X-343649Y-45652D01*
X-343651Y-45661D01*
X-343661Y-45822D01*
X-343661Y-218282D01*
X-344512Y-220336D01*
X-344623Y-220447D01*
X-344629Y-220454D01*
X-344636Y-220460D01*
X-344726Y-220580D01*
X-344818Y-220698D01*
X-344822Y-220706D01*
X-344827Y-220714D01*
X-344898Y-220858D01*
X-346020Y-223566D01*
X-347934Y-225480D01*
X-350436Y-226517D01*
X-353144Y-226517D01*
X-355646Y-225480D01*
X-357560Y-223566D01*
X-358364Y-221625D01*
X-358399Y-221564D01*
X-358425Y-221499D01*
X-358477Y-221427D01*
X-358522Y-221349D01*
X-358570Y-221298D01*
X-358611Y-221242D01*
X-358681Y-221185D01*
X-358743Y-221120D01*
X-358803Y-221084D01*
X-358856Y-221039D01*
X-358938Y-221001D01*
X-359014Y-220954D01*
X-359081Y-220933D01*
X-359144Y-220904D01*
X-359232Y-220887D01*
X-359318Y-220860D01*
X-359388Y-220857D01*
X-359457Y-220844D01*
X-359546Y-220849D01*
X-359636Y-220845D01*
X-359704Y-220859D01*
X-359774Y-220864D01*
X-359859Y-220891D01*
X-359947Y-220909D01*
X-360010Y-220940D01*
X-360076Y-220962D01*
X-360152Y-221010D01*
X-360233Y-221049D01*
X-360286Y-221094D01*
X-360345Y-221132D01*
X-360407Y-221197D01*
X-360475Y-221256D01*
X-360515Y-221313D01*
X-360563Y-221363D01*
X-360606Y-221442D01*
X-360658Y-221516D01*
X-360683Y-221581D01*
X-360717Y-221642D01*
X-360739Y-221729D01*
X-360771Y-221813D01*
X-360779Y-221882D01*
X-360796Y-221950D01*
X-360806Y-222111D01*
X-360806Y-240563D01*
X-360805Y-240572D01*
X-360806Y-240582D01*
X-360785Y-240730D01*
X-360766Y-240879D01*
X-360763Y-240887D01*
X-360762Y-240896D01*
X-360710Y-241049D01*
X-359588Y-243756D01*
X-359588Y-246464D01*
X-360625Y-248966D01*
X-362539Y-250880D01*
X-365041Y-251917D01*
X-367749Y-251917D01*
G37*
%LPD*%
%LPC*%
G36*
X-264105Y-279575D02*
X-264105Y-279575D01*
X-267209Y-276470D01*
X-267287Y-276410D01*
X-267359Y-276342D01*
X-267412Y-276313D01*
X-267460Y-276276D01*
X-267551Y-276236D01*
X-267638Y-276188D01*
X-267696Y-276173D01*
X-267752Y-276149D01*
X-267850Y-276134D01*
X-267946Y-276109D01*
X-268046Y-276103D01*
X-268066Y-276099D01*
X-268078Y-276101D01*
X-268106Y-276099D01*
X-333534Y-276099D01*
X-335588Y-275248D01*
X-337160Y-273676D01*
X-338011Y-271622D01*
X-338011Y-46774D01*
X-338012Y-46765D01*
X-338011Y-46756D01*
X-338032Y-46607D01*
X-338051Y-46459D01*
X-338054Y-46450D01*
X-338056Y-46441D01*
X-338108Y-46289D01*
X-339229Y-43581D01*
X-339229Y-40874D01*
X-338193Y-38372D01*
X-336278Y-36457D01*
X-333776Y-35421D01*
X-331069Y-35421D01*
X-328567Y-36457D01*
X-326652Y-38372D01*
X-325616Y-40874D01*
X-325616Y-43581D01*
X-326737Y-46289D01*
X-326740Y-46298D01*
X-326744Y-46306D01*
X-326782Y-46451D01*
X-326821Y-46595D01*
X-326821Y-46605D01*
X-326824Y-46614D01*
X-326834Y-46774D01*
X-326834Y-263652D01*
X-326819Y-263770D01*
X-326811Y-263889D01*
X-326799Y-263927D01*
X-326794Y-263968D01*
X-326750Y-264078D01*
X-326713Y-264191D01*
X-326692Y-264226D01*
X-326677Y-264263D01*
X-326607Y-264359D01*
X-326543Y-264460D01*
X-326514Y-264488D01*
X-326490Y-264521D01*
X-326398Y-264597D01*
X-326312Y-264678D01*
X-326276Y-264698D01*
X-326245Y-264723D01*
X-326137Y-264774D01*
X-326033Y-264832D01*
X-325994Y-264842D01*
X-325957Y-264859D01*
X-325841Y-264881D01*
X-325725Y-264911D01*
X-325665Y-264915D01*
X-325645Y-264919D01*
X-325625Y-264917D01*
X-325565Y-264921D01*
X-268106Y-264921D01*
X-268008Y-264909D01*
X-267909Y-264906D01*
X-267851Y-264889D01*
X-267791Y-264881D01*
X-267699Y-264845D01*
X-267604Y-264817D01*
X-267552Y-264787D01*
X-267495Y-264764D01*
X-267415Y-264706D01*
X-267330Y-264656D01*
X-267254Y-264590D01*
X-267238Y-264578D01*
X-267230Y-264568D01*
X-267209Y-264550D01*
X-264105Y-261445D01*
X-256595Y-261445D01*
X-251285Y-266755D01*
X-251285Y-274265D01*
X-256595Y-279575D01*
X-264105Y-279575D01*
G37*
%LPD*%
%LPC*%
G36*
X173704Y767079D02*
X173704Y767079D01*
X171650Y767930D01*
X170078Y769502D01*
X169227Y771556D01*
X169227Y784471D01*
X169223Y784500D01*
X169225Y784530D01*
X169203Y784658D01*
X169187Y784786D01*
X169176Y784814D01*
X169171Y784843D01*
X169118Y784962D01*
X169070Y785082D01*
X169053Y785106D01*
X169040Y785133D01*
X168959Y785235D01*
X168883Y785340D01*
X168860Y785358D01*
X168842Y785381D01*
X168738Y785459D01*
X168638Y785542D01*
X168611Y785555D01*
X168588Y785573D01*
X168537Y785598D01*
X165684Y788450D01*
X164147Y792161D01*
X164147Y796179D01*
X165684Y799890D01*
X168524Y802730D01*
X172235Y804267D01*
X176253Y804267D01*
X179964Y802730D01*
X182804Y799890D01*
X184341Y796179D01*
X184341Y792161D01*
X182804Y788450D01*
X180776Y786422D01*
X180715Y786344D01*
X180647Y786272D01*
X180618Y786219D01*
X180581Y786171D01*
X180542Y786080D01*
X180494Y785993D01*
X180479Y785935D01*
X180455Y785879D01*
X180439Y785781D01*
X180414Y785686D01*
X180408Y785585D01*
X180405Y785565D01*
X180406Y785553D01*
X180404Y785525D01*
X180404Y779526D01*
X180419Y779408D01*
X180427Y779289D01*
X180439Y779251D01*
X180444Y779210D01*
X180488Y779100D01*
X180525Y778987D01*
X180546Y778952D01*
X180561Y778915D01*
X180631Y778819D01*
X180695Y778718D01*
X180724Y778690D01*
X180748Y778657D01*
X180840Y778581D01*
X180926Y778500D01*
X180962Y778480D01*
X180993Y778455D01*
X181101Y778404D01*
X181205Y778346D01*
X181244Y778336D01*
X181281Y778319D01*
X181397Y778297D01*
X181513Y778267D01*
X181573Y778263D01*
X181593Y778259D01*
X181613Y778261D01*
X181673Y778257D01*
X232474Y778257D01*
X232592Y778272D01*
X232710Y778279D01*
X232749Y778292D01*
X232789Y778297D01*
X232900Y778340D01*
X233013Y778377D01*
X233047Y778399D01*
X233085Y778414D01*
X233181Y778483D01*
X233282Y778547D01*
X233309Y778577D01*
X233342Y778600D01*
X233418Y778692D01*
X233500Y778779D01*
X233519Y778814D01*
X233545Y778845D01*
X233596Y778953D01*
X233653Y779057D01*
X233663Y779097D01*
X233680Y779133D01*
X233703Y779250D01*
X233733Y779365D01*
X233736Y779425D01*
X233740Y779445D01*
X233739Y779466D01*
X233743Y779526D01*
X233743Y844321D01*
X233742Y844330D01*
X233743Y844340D01*
X233722Y844488D01*
X233703Y844637D01*
X233699Y844645D01*
X233698Y844654D01*
X233646Y844807D01*
X233392Y845420D01*
X233381Y845439D01*
X233376Y845455D01*
X233354Y845490D01*
X233332Y845546D01*
X233279Y845618D01*
X233235Y845696D01*
X233186Y845746D01*
X233145Y845803D01*
X233076Y845860D01*
X233013Y845925D01*
X232954Y845961D01*
X232900Y846006D01*
X232819Y846044D01*
X232742Y846091D01*
X232675Y846112D01*
X232612Y846141D01*
X232524Y846158D01*
X232438Y846185D01*
X232368Y846188D01*
X232300Y846201D01*
X232210Y846196D01*
X232121Y846200D01*
X232052Y846186D01*
X231983Y846181D01*
X231897Y846154D01*
X231809Y846136D01*
X231746Y846105D01*
X231680Y846083D01*
X231604Y846035D01*
X231523Y845996D01*
X231470Y845951D01*
X231411Y845913D01*
X231350Y845848D01*
X231281Y845790D01*
X231241Y845732D01*
X231193Y845682D01*
X231150Y845603D01*
X231098Y845529D01*
X231074Y845464D01*
X231040Y845403D01*
X231019Y845322D01*
X231013Y845308D01*
X231011Y845298D01*
X230986Y845232D01*
X230978Y845163D01*
X230960Y845095D01*
X230955Y845006D01*
X230953Y844996D01*
X230953Y844985D01*
X230950Y844934D01*
X230950Y793058D01*
X230099Y791004D01*
X228527Y789432D01*
X226473Y788581D01*
X210893Y788581D01*
X210794Y788569D01*
X210695Y788566D01*
X210637Y788549D01*
X210577Y788541D01*
X210485Y788505D01*
X210390Y788477D01*
X210338Y788447D01*
X210281Y788424D01*
X210201Y788366D01*
X210116Y788316D01*
X210041Y788250D01*
X210024Y788238D01*
X210016Y788228D01*
X209995Y788210D01*
X207396Y785610D01*
X203685Y784073D01*
X199667Y784073D01*
X195956Y785610D01*
X193116Y788450D01*
X191579Y792161D01*
X191579Y796179D01*
X193116Y799890D01*
X195956Y802730D01*
X199667Y804267D01*
X203685Y804267D01*
X207396Y802730D01*
X209995Y800130D01*
X210073Y800070D01*
X210146Y800002D01*
X210199Y799973D01*
X210246Y799936D01*
X210337Y799896D01*
X210424Y799848D01*
X210483Y799833D01*
X210538Y799809D01*
X210636Y799794D01*
X210732Y799769D01*
X210832Y799763D01*
X210852Y799759D01*
X210865Y799761D01*
X210893Y799759D01*
X218504Y799759D01*
X218622Y799774D01*
X218740Y799781D01*
X218779Y799794D01*
X218819Y799799D01*
X218930Y799842D01*
X219043Y799879D01*
X219077Y799901D01*
X219115Y799916D01*
X219211Y799985D01*
X219312Y800049D01*
X219339Y800079D01*
X219372Y800102D01*
X219448Y800194D01*
X219530Y800281D01*
X219549Y800316D01*
X219575Y800347D01*
X219626Y800455D01*
X219683Y800559D01*
X219693Y800599D01*
X219710Y800635D01*
X219733Y800752D01*
X219763Y800867D01*
X219766Y800927D01*
X219770Y800947D01*
X219769Y800968D01*
X219773Y801028D01*
X219773Y855815D01*
X219772Y855824D01*
X219773Y855833D01*
X219752Y855982D01*
X219733Y856130D01*
X219730Y856139D01*
X219728Y856148D01*
X219676Y856300D01*
X218555Y859008D01*
X218555Y861715D01*
X219591Y864217D01*
X221506Y866132D01*
X224008Y867168D01*
X226715Y867168D01*
X229217Y866132D01*
X231132Y864217D01*
X232168Y861715D01*
X232168Y859008D01*
X231047Y856300D01*
X231044Y856291D01*
X231040Y856283D01*
X231002Y856138D01*
X230963Y855994D01*
X230963Y855984D01*
X230960Y855975D01*
X230950Y855815D01*
X230950Y852802D01*
X230959Y852732D01*
X230958Y852662D01*
X230979Y852575D01*
X230990Y852486D01*
X231016Y852421D01*
X231032Y852353D01*
X231074Y852274D01*
X231107Y852190D01*
X231148Y852134D01*
X231181Y852072D01*
X231241Y852006D01*
X231294Y851933D01*
X231348Y851888D01*
X231395Y851837D01*
X231470Y851787D01*
X231539Y851730D01*
X231602Y851700D01*
X231660Y851662D01*
X231745Y851633D01*
X231827Y851595D01*
X231895Y851582D01*
X231961Y851559D01*
X232051Y851552D01*
X232139Y851535D01*
X232209Y851539D01*
X232278Y851534D01*
X232367Y851549D01*
X232456Y851555D01*
X232523Y851576D01*
X232592Y851588D01*
X232673Y851625D01*
X232759Y851653D01*
X232818Y851690D01*
X232882Y851719D01*
X232952Y851775D01*
X233028Y851823D01*
X233075Y851874D01*
X233130Y851917D01*
X233184Y851989D01*
X233246Y852054D01*
X233279Y852115D01*
X233321Y852171D01*
X233392Y852316D01*
X233561Y852724D01*
X235476Y854638D01*
X237978Y855675D01*
X240685Y855675D01*
X243187Y854638D01*
X245102Y852724D01*
X246138Y850222D01*
X246138Y847514D01*
X245017Y844807D01*
X245014Y844798D01*
X245010Y844790D01*
X244972Y844645D01*
X244933Y844500D01*
X244933Y844491D01*
X244930Y844482D01*
X244920Y844321D01*
X244920Y771556D01*
X244069Y769502D01*
X242497Y767930D01*
X240443Y767079D01*
X173704Y767079D01*
G37*
%LPD*%
%LPC*%
G36*
X167695Y-254175D02*
X167695Y-254175D01*
X166877Y-253356D01*
X166799Y-253296D01*
X166727Y-253228D01*
X166674Y-253199D01*
X166626Y-253162D01*
X166535Y-253122D01*
X166448Y-253074D01*
X166390Y-253059D01*
X166334Y-253035D01*
X166236Y-253020D01*
X166140Y-252995D01*
X166040Y-252989D01*
X166020Y-252985D01*
X166008Y-252987D01*
X165980Y-252985D01*
X31494Y-252985D01*
X31485Y-252986D01*
X31475Y-252985D01*
X31327Y-253006D01*
X31178Y-253025D01*
X31170Y-253028D01*
X31161Y-253029D01*
X31008Y-253081D01*
X28465Y-254135D01*
X24875Y-254135D01*
X21558Y-252761D01*
X19019Y-250222D01*
X17645Y-246905D01*
X17645Y-243315D01*
X19019Y-239998D01*
X21558Y-237459D01*
X24875Y-236085D01*
X28465Y-236085D01*
X31008Y-237139D01*
X31017Y-237141D01*
X31025Y-237146D01*
X31171Y-237183D01*
X31315Y-237223D01*
X31324Y-237223D01*
X31333Y-237225D01*
X31494Y-237235D01*
X165980Y-237235D01*
X166078Y-237223D01*
X166177Y-237220D01*
X166235Y-237203D01*
X166295Y-237195D01*
X166387Y-237159D01*
X166482Y-237131D01*
X166534Y-237101D01*
X166591Y-237078D01*
X166671Y-237020D01*
X166756Y-236970D01*
X166832Y-236904D01*
X166848Y-236892D01*
X166856Y-236882D01*
X166877Y-236864D01*
X167695Y-236045D01*
X175205Y-236045D01*
X180515Y-241355D01*
X180515Y-248865D01*
X175205Y-254175D01*
X167695Y-254175D01*
G37*
%LPD*%
%LPC*%
G36*
X193095Y-76375D02*
X193095Y-76375D01*
X187785Y-71065D01*
X187785Y-63555D01*
X193095Y-58245D01*
X200605Y-58245D01*
X203709Y-61350D01*
X203787Y-61410D01*
X203859Y-61478D01*
X203912Y-61507D01*
X203960Y-61544D01*
X204051Y-61584D01*
X204138Y-61632D01*
X204196Y-61647D01*
X204252Y-61671D01*
X204350Y-61686D01*
X204446Y-61711D01*
X204546Y-61717D01*
X204566Y-61721D01*
X204578Y-61719D01*
X204606Y-61721D01*
X209042Y-61721D01*
X209160Y-61706D01*
X209279Y-61699D01*
X209317Y-61686D01*
X209358Y-61681D01*
X209468Y-61638D01*
X209581Y-61601D01*
X209616Y-61579D01*
X209653Y-61564D01*
X209749Y-61495D01*
X209850Y-61431D01*
X209878Y-61401D01*
X209911Y-61378D01*
X209987Y-61286D01*
X210068Y-61199D01*
X210088Y-61164D01*
X210113Y-61133D01*
X210164Y-61025D01*
X210222Y-60921D01*
X210232Y-60881D01*
X210249Y-60845D01*
X210271Y-60728D01*
X210301Y-60613D01*
X210305Y-60553D01*
X210309Y-60533D01*
X210307Y-60512D01*
X210311Y-60452D01*
X210311Y-508D01*
X210296Y-390D01*
X210289Y-271D01*
X210276Y-233D01*
X210271Y-192D01*
X210228Y-82D01*
X210191Y31D01*
X210169Y66D01*
X210154Y103D01*
X210085Y200D01*
X210021Y300D01*
X209991Y328D01*
X209968Y361D01*
X209876Y437D01*
X209789Y518D01*
X209754Y538D01*
X209723Y563D01*
X209615Y614D01*
X209511Y672D01*
X209471Y682D01*
X209435Y699D01*
X209318Y721D01*
X209203Y751D01*
X209143Y755D01*
X209123Y759D01*
X209102Y757D01*
X209042Y761D01*
X129642Y761D01*
X129633Y760D01*
X129623Y761D01*
X129475Y740D01*
X129326Y721D01*
X129318Y718D01*
X129309Y717D01*
X129156Y665D01*
X126449Y-457D01*
X123741Y-457D01*
X121239Y580D01*
X119325Y2494D01*
X118288Y4996D01*
X118288Y7704D01*
X119325Y10206D01*
X121239Y12120D01*
X123741Y13157D01*
X126449Y13157D01*
X129156Y12035D01*
X129165Y12033D01*
X129173Y12028D01*
X129318Y11991D01*
X129463Y11951D01*
X129472Y11951D01*
X129481Y11949D01*
X129642Y11939D01*
X217012Y11939D01*
X219066Y11088D01*
X220638Y9516D01*
X221489Y7462D01*
X221489Y-68422D01*
X220638Y-70476D01*
X219066Y-72048D01*
X217012Y-72899D01*
X204606Y-72899D01*
X204508Y-72911D01*
X204409Y-72914D01*
X204351Y-72931D01*
X204291Y-72939D01*
X204199Y-72975D01*
X204104Y-73003D01*
X204052Y-73033D01*
X203995Y-73056D01*
X203915Y-73114D01*
X203830Y-73164D01*
X203754Y-73230D01*
X203738Y-73242D01*
X203730Y-73252D01*
X203709Y-73270D01*
X200605Y-76375D01*
X193095Y-76375D01*
G37*
%LPD*%
%LPC*%
G36*
X167695Y-228775D02*
X167695Y-228775D01*
X166877Y-227957D01*
X166799Y-227896D01*
X166727Y-227828D01*
X166674Y-227799D01*
X166626Y-227762D01*
X166535Y-227722D01*
X166448Y-227674D01*
X166390Y-227659D01*
X166334Y-227635D01*
X166236Y-227620D01*
X166140Y-227595D01*
X166040Y-227589D01*
X166020Y-227585D01*
X166008Y-227587D01*
X165980Y-227585D01*
X82548Y-227585D01*
X82539Y-227586D01*
X82529Y-227585D01*
X82381Y-227606D01*
X82232Y-227625D01*
X82224Y-227628D01*
X82215Y-227629D01*
X82062Y-227681D01*
X79519Y-228735D01*
X75929Y-228735D01*
X72612Y-227361D01*
X70073Y-224822D01*
X68699Y-221505D01*
X68699Y-217915D01*
X70073Y-214598D01*
X72612Y-212059D01*
X75929Y-210685D01*
X79519Y-210685D01*
X82062Y-211739D01*
X82071Y-211741D01*
X82079Y-211746D01*
X82225Y-211783D01*
X82369Y-211823D01*
X82378Y-211823D01*
X82387Y-211825D01*
X82548Y-211835D01*
X165980Y-211835D01*
X166078Y-211823D01*
X166177Y-211820D01*
X166235Y-211803D01*
X166295Y-211795D01*
X166387Y-211759D01*
X166482Y-211731D01*
X166535Y-211701D01*
X166591Y-211678D01*
X166671Y-211620D01*
X166756Y-211570D01*
X166831Y-211504D01*
X166848Y-211492D01*
X166856Y-211482D01*
X166877Y-211463D01*
X167695Y-210645D01*
X175205Y-210645D01*
X180515Y-215955D01*
X180515Y-223465D01*
X175205Y-228775D01*
X167695Y-228775D01*
G37*
%LPD*%
%LPC*%
G36*
X-324498Y783374D02*
X-324498Y783374D01*
X-333087Y786932D01*
X-339661Y793506D01*
X-343218Y802095D01*
X-343218Y811391D01*
X-339661Y819980D01*
X-333087Y826554D01*
X-324498Y830112D01*
X-315201Y830112D01*
X-306612Y826554D01*
X-300038Y819980D01*
X-296481Y811391D01*
X-296481Y802095D01*
X-300038Y793506D01*
X-306612Y786932D01*
X-315201Y783374D01*
X-324498Y783374D01*
G37*
%LPD*%
%LPC*%
G36*
X267132Y783501D02*
X267132Y783501D01*
X258543Y787059D01*
X251969Y793633D01*
X248411Y802222D01*
X248411Y811518D01*
X251969Y820107D01*
X258543Y826681D01*
X267132Y830239D01*
X276428Y830239D01*
X285017Y826681D01*
X291591Y820107D01*
X295149Y811518D01*
X295149Y802222D01*
X291591Y793633D01*
X285017Y787059D01*
X276428Y783501D01*
X267132Y783501D01*
G37*
%LPD*%
%LPC*%
G36*
X-74562Y783374D02*
X-74562Y783374D01*
X-83151Y786932D01*
X-89725Y793506D01*
X-93282Y802095D01*
X-93282Y811391D01*
X-89725Y819980D01*
X-83151Y826554D01*
X-74562Y830112D01*
X-65265Y830112D01*
X-56676Y826554D01*
X-50102Y819980D01*
X-46545Y811391D01*
X-46545Y802095D01*
X-50102Y793506D01*
X-56676Y786932D01*
X-65265Y783374D01*
X-74562Y783374D01*
G37*
%LPD*%
%LPC*%
G36*
X17196Y783501D02*
X17196Y783501D01*
X8607Y787059D01*
X2033Y793633D01*
X-1525Y802222D01*
X-1525Y811518D01*
X2033Y820107D01*
X8607Y826681D01*
X17196Y830239D01*
X26492Y830239D01*
X35081Y826681D01*
X41655Y820107D01*
X45213Y811518D01*
X45213Y802222D01*
X41655Y793633D01*
X35081Y787059D01*
X26492Y783501D01*
X17196Y783501D01*
G37*
%LPD*%
%LPC*%
G36*
X-238038Y809346D02*
X-238038Y809346D01*
X-241749Y810883D01*
X-244590Y813723D01*
X-246127Y817434D01*
X-246127Y821452D01*
X-244590Y825163D01*
X-241749Y828003D01*
X-241118Y828264D01*
X-241057Y828299D01*
X-240993Y828325D01*
X-240920Y828377D01*
X-240842Y828422D01*
X-240792Y828470D01*
X-240735Y828511D01*
X-240678Y828581D01*
X-240613Y828643D01*
X-240577Y828703D01*
X-240532Y828756D01*
X-240494Y828838D01*
X-240447Y828914D01*
X-240427Y828981D01*
X-240397Y829044D01*
X-240380Y829132D01*
X-240354Y829218D01*
X-240350Y829288D01*
X-240337Y829357D01*
X-240343Y829446D01*
X-240338Y829536D01*
X-240353Y829604D01*
X-240357Y829674D01*
X-240385Y829759D01*
X-240403Y829847D01*
X-240433Y829910D01*
X-240455Y829976D01*
X-240503Y830052D01*
X-240542Y830133D01*
X-240588Y830186D01*
X-240625Y830245D01*
X-240691Y830307D01*
X-240749Y830375D01*
X-240806Y830415D01*
X-240857Y830463D01*
X-240935Y830506D01*
X-241009Y830558D01*
X-241074Y830583D01*
X-241135Y830617D01*
X-241222Y830639D01*
X-241306Y830671D01*
X-241376Y830679D01*
X-241443Y830696D01*
X-241604Y830706D01*
X-252946Y830706D01*
X-252955Y830705D01*
X-252964Y830706D01*
X-253113Y830685D01*
X-253261Y830666D01*
X-253270Y830663D01*
X-253279Y830662D01*
X-253431Y830610D01*
X-256139Y829488D01*
X-258846Y829488D01*
X-261348Y830525D01*
X-263263Y832439D01*
X-264299Y834941D01*
X-264299Y837649D01*
X-263263Y840151D01*
X-261348Y842065D01*
X-258846Y843102D01*
X-256139Y843102D01*
X-253431Y841980D01*
X-253422Y841978D01*
X-253414Y841973D01*
X-253269Y841936D01*
X-253125Y841896D01*
X-253115Y841896D01*
X-253106Y841894D01*
X-252946Y841884D01*
X-213144Y841884D01*
X-213135Y841885D01*
X-213126Y841884D01*
X-212977Y841905D01*
X-212829Y841924D01*
X-212820Y841927D01*
X-212811Y841928D01*
X-212659Y841980D01*
X-209951Y843102D01*
X-207244Y843102D01*
X-204742Y842065D01*
X-202827Y840151D01*
X-201791Y837649D01*
X-201791Y834941D01*
X-202827Y832439D01*
X-204636Y830631D01*
X-204666Y830591D01*
X-204703Y830558D01*
X-204763Y830466D01*
X-204831Y830379D01*
X-204850Y830334D01*
X-204878Y830292D01*
X-204913Y830188D01*
X-204957Y830088D01*
X-204965Y830038D01*
X-204981Y829992D01*
X-204990Y829882D01*
X-205007Y829773D01*
X-205002Y829724D01*
X-205006Y829674D01*
X-204987Y829566D01*
X-204977Y829457D01*
X-204960Y829410D01*
X-204952Y829361D01*
X-204907Y829261D01*
X-204869Y829158D01*
X-204841Y829116D01*
X-204821Y829071D01*
X-204753Y828985D01*
X-204691Y828894D01*
X-204654Y828862D01*
X-204623Y828823D01*
X-204535Y828757D01*
X-204452Y828684D01*
X-204408Y828661D01*
X-204368Y828631D01*
X-204224Y828561D01*
X-202878Y828003D01*
X-200037Y825163D01*
X-198500Y821452D01*
X-198500Y817434D01*
X-200037Y813723D01*
X-202878Y810883D01*
X-206589Y809346D01*
X-210606Y809346D01*
X-214317Y810883D01*
X-217158Y813723D01*
X-218695Y817434D01*
X-218695Y821452D01*
X-217158Y825163D01*
X-214317Y828003D01*
X-213686Y828264D01*
X-213625Y828299D01*
X-213561Y828325D01*
X-213488Y828377D01*
X-213410Y828422D01*
X-213360Y828470D01*
X-213303Y828511D01*
X-213246Y828581D01*
X-213181Y828643D01*
X-213145Y828703D01*
X-213100Y828756D01*
X-213062Y828838D01*
X-213015Y828914D01*
X-212995Y828981D01*
X-212965Y829044D01*
X-212948Y829132D01*
X-212922Y829218D01*
X-212918Y829288D01*
X-212905Y829357D01*
X-212911Y829446D01*
X-212906Y829536D01*
X-212921Y829604D01*
X-212925Y829674D01*
X-212953Y829759D01*
X-212971Y829847D01*
X-213001Y829910D01*
X-213023Y829976D01*
X-213071Y830052D01*
X-213110Y830133D01*
X-213156Y830186D01*
X-213193Y830245D01*
X-213259Y830307D01*
X-213317Y830375D01*
X-213374Y830415D01*
X-213425Y830463D01*
X-213503Y830506D01*
X-213577Y830558D01*
X-213642Y830583D01*
X-213703Y830617D01*
X-213790Y830639D01*
X-213874Y830671D01*
X-213944Y830679D01*
X-214011Y830696D01*
X-214172Y830706D01*
X-230455Y830706D01*
X-230524Y830698D01*
X-230594Y830699D01*
X-230682Y830678D01*
X-230771Y830666D01*
X-230836Y830641D01*
X-230903Y830624D01*
X-230983Y830582D01*
X-231066Y830549D01*
X-231123Y830508D01*
X-231185Y830476D01*
X-231251Y830415D01*
X-231324Y830363D01*
X-231368Y830309D01*
X-231420Y830262D01*
X-231469Y830187D01*
X-231527Y830118D01*
X-231556Y830054D01*
X-231595Y829996D01*
X-231624Y829911D01*
X-231662Y829830D01*
X-231675Y829761D01*
X-231698Y829695D01*
X-231705Y829606D01*
X-231722Y829518D01*
X-231718Y829448D01*
X-231723Y829378D01*
X-231708Y829290D01*
X-231702Y829200D01*
X-231681Y829134D01*
X-231669Y829065D01*
X-231632Y828983D01*
X-231604Y828898D01*
X-231567Y828839D01*
X-231538Y828775D01*
X-231482Y828705D01*
X-231434Y828629D01*
X-231383Y828581D01*
X-231339Y828527D01*
X-231268Y828473D01*
X-231202Y828411D01*
X-231141Y828377D01*
X-231085Y828335D01*
X-230941Y828264D01*
X-230310Y828003D01*
X-227469Y825163D01*
X-225932Y821452D01*
X-225932Y817434D01*
X-227469Y813723D01*
X-230310Y810883D01*
X-234021Y809346D01*
X-238038Y809346D01*
G37*
%LPD*%
%LPC*%
G36*
X-133116Y501828D02*
X-133116Y501828D01*
X-135618Y502865D01*
X-137533Y504779D01*
X-138569Y507281D01*
X-138569Y509989D01*
X-137448Y512696D01*
X-137445Y512705D01*
X-137441Y512713D01*
X-137403Y512858D01*
X-137364Y513003D01*
X-137364Y513012D01*
X-137361Y513021D01*
X-137351Y513182D01*
X-137351Y552348D01*
X-137352Y552357D01*
X-137351Y552367D01*
X-137372Y552515D01*
X-137391Y552664D01*
X-137394Y552672D01*
X-137396Y552681D01*
X-137448Y552834D01*
X-138569Y555541D01*
X-138569Y558249D01*
X-137533Y560751D01*
X-135618Y562665D01*
X-133116Y563702D01*
X-130409Y563702D01*
X-127907Y562665D01*
X-125992Y560751D01*
X-124956Y558249D01*
X-124956Y555541D01*
X-126077Y552834D01*
X-126080Y552825D01*
X-126084Y552817D01*
X-126122Y552672D01*
X-126161Y552527D01*
X-126161Y552518D01*
X-126164Y552509D01*
X-126174Y552348D01*
X-126174Y513182D01*
X-126173Y513173D01*
X-126174Y513163D01*
X-126153Y513015D01*
X-126134Y512866D01*
X-126131Y512858D01*
X-126129Y512849D01*
X-126077Y512696D01*
X-124956Y509989D01*
X-124956Y507281D01*
X-125992Y504779D01*
X-127907Y502865D01*
X-130409Y501828D01*
X-133116Y501828D01*
G37*
%LPD*%
%LPC*%
G36*
X-183174Y809346D02*
X-183174Y809346D01*
X-186885Y810883D01*
X-189726Y813723D01*
X-191263Y817434D01*
X-191263Y821452D01*
X-189726Y825163D01*
X-186885Y828003D01*
X-183174Y829540D01*
X-179157Y829540D01*
X-175446Y828003D01*
X-172605Y825163D01*
X-171068Y821452D01*
X-171068Y817434D01*
X-172605Y813723D01*
X-175446Y810883D01*
X-179157Y809346D01*
X-183174Y809346D01*
G37*
%LPD*%
%LPC*%
G36*
X-142026Y783946D02*
X-142026Y783946D01*
X-145737Y785483D01*
X-148578Y788323D01*
X-150115Y792034D01*
X-150115Y796052D01*
X-148578Y799763D01*
X-145737Y802603D01*
X-142026Y804140D01*
X-138009Y804140D01*
X-134298Y802603D01*
X-131457Y799763D01*
X-129920Y796052D01*
X-129920Y792034D01*
X-131457Y788323D01*
X-134298Y785483D01*
X-138009Y783946D01*
X-142026Y783946D01*
G37*
%LPD*%
%LPC*%
G36*
X-155742Y809346D02*
X-155742Y809346D01*
X-159453Y810883D01*
X-162294Y813723D01*
X-163831Y817434D01*
X-163831Y821452D01*
X-162294Y825163D01*
X-159453Y828003D01*
X-155742Y829540D01*
X-151725Y829540D01*
X-148014Y828003D01*
X-145173Y825163D01*
X-143636Y821452D01*
X-143636Y817434D01*
X-145173Y813723D01*
X-148014Y810883D01*
X-151725Y809346D01*
X-155742Y809346D01*
G37*
%LPD*%
%LPC*%
G36*
X103655Y809473D02*
X103655Y809473D01*
X99944Y811010D01*
X97104Y813850D01*
X95567Y817561D01*
X95567Y821579D01*
X97104Y825290D01*
X99944Y828130D01*
X103655Y829667D01*
X107673Y829667D01*
X111384Y828130D01*
X114224Y825290D01*
X115761Y821579D01*
X115761Y817561D01*
X114224Y813850D01*
X111384Y811010D01*
X107673Y809473D01*
X103655Y809473D01*
G37*
%LPD*%
%LPC*%
G36*
X117371Y784073D02*
X117371Y784073D01*
X113660Y785610D01*
X110820Y788450D01*
X109283Y792161D01*
X109283Y796179D01*
X110820Y799890D01*
X113660Y802730D01*
X117371Y804267D01*
X121389Y804267D01*
X125100Y802730D01*
X127940Y799890D01*
X129477Y796179D01*
X129477Y792161D01*
X127940Y788450D01*
X125100Y785610D01*
X121389Y784073D01*
X117371Y784073D01*
G37*
%LPD*%
%LPC*%
G36*
X185951Y809473D02*
X185951Y809473D01*
X182240Y811010D01*
X179400Y813850D01*
X177863Y817561D01*
X177863Y821579D01*
X179400Y825290D01*
X182240Y828130D01*
X185951Y829667D01*
X189969Y829667D01*
X193680Y828130D01*
X196520Y825290D01*
X198057Y821579D01*
X198057Y817561D01*
X196520Y813850D01*
X193680Y811010D01*
X189969Y809473D01*
X185951Y809473D01*
G37*
%LPD*%
%LPC*%
G36*
X-169458Y783946D02*
X-169458Y783946D01*
X-173169Y785483D01*
X-176010Y788323D01*
X-177547Y792034D01*
X-177547Y796052D01*
X-176010Y799763D01*
X-173169Y802603D01*
X-169458Y804140D01*
X-165441Y804140D01*
X-161730Y802603D01*
X-158889Y799763D01*
X-157352Y796052D01*
X-157352Y792034D01*
X-158889Y788323D01*
X-161730Y785483D01*
X-165441Y783946D01*
X-169458Y783946D01*
G37*
%LPD*%
%LPC*%
G36*
X193095Y-279575D02*
X193095Y-279575D01*
X187785Y-274265D01*
X187785Y-266755D01*
X193095Y-261445D01*
X200605Y-261445D01*
X205915Y-266755D01*
X205915Y-274265D01*
X200605Y-279575D01*
X193095Y-279575D01*
G37*
%LPD*%
%LPC*%
G36*
X167695Y-76375D02*
X167695Y-76375D01*
X162385Y-71065D01*
X162385Y-63555D01*
X167695Y-58245D01*
X175205Y-58245D01*
X180515Y-63555D01*
X180515Y-71065D01*
X175205Y-76375D01*
X167695Y-76375D01*
G37*
%LPD*%
%LPC*%
G36*
X-238705Y-279575D02*
X-238705Y-279575D01*
X-244015Y-274265D01*
X-244015Y-266755D01*
X-238705Y-261445D01*
X-231195Y-261445D01*
X-225885Y-266755D01*
X-225885Y-274265D01*
X-231195Y-279575D01*
X-238705Y-279575D01*
G37*
%LPD*%
%LPC*%
G36*
X167695Y-279575D02*
X167695Y-279575D01*
X162385Y-274265D01*
X162385Y-266755D01*
X167695Y-261445D01*
X175205Y-261445D01*
X180515Y-266755D01*
X180515Y-274265D01*
X175205Y-279575D01*
X167695Y-279575D01*
G37*
%LPD*%
%LPC*%
G36*
X-264105Y-254175D02*
X-264105Y-254175D01*
X-269415Y-248865D01*
X-269415Y-241355D01*
X-264105Y-236045D01*
X-256595Y-236045D01*
X-251285Y-241355D01*
X-251285Y-248865D01*
X-256595Y-254175D01*
X-264105Y-254175D01*
G37*
%LPD*%
%LPC*%
G36*
X-238705Y-254175D02*
X-238705Y-254175D01*
X-244015Y-248865D01*
X-244015Y-241355D01*
X-238705Y-236045D01*
X-231195Y-236045D01*
X-225885Y-241355D01*
X-225885Y-248865D01*
X-231195Y-254175D01*
X-238705Y-254175D01*
G37*
%LPD*%
%LPC*%
G36*
X193095Y-254175D02*
X193095Y-254175D01*
X187785Y-248865D01*
X187785Y-241355D01*
X193095Y-236045D01*
X200605Y-236045D01*
X205915Y-241355D01*
X205915Y-248865D01*
X200605Y-254175D01*
X193095Y-254175D01*
G37*
%LPD*%
%LPC*%
G36*
X-264105Y-228775D02*
X-264105Y-228775D01*
X-269415Y-223465D01*
X-269415Y-215955D01*
X-264105Y-210645D01*
X-256595Y-210645D01*
X-251285Y-215955D01*
X-251285Y-223465D01*
X-256595Y-228775D01*
X-264105Y-228775D01*
G37*
%LPD*%
%LPC*%
G36*
X-238705Y-228775D02*
X-238705Y-228775D01*
X-244015Y-223465D01*
X-244015Y-215955D01*
X-238705Y-210645D01*
X-231195Y-210645D01*
X-225885Y-215955D01*
X-225885Y-223465D01*
X-231195Y-228775D01*
X-238705Y-228775D01*
G37*
%LPD*%
%LPC*%
G36*
X193095Y-228775D02*
X193095Y-228775D01*
X187785Y-223465D01*
X187785Y-215955D01*
X193095Y-210645D01*
X200605Y-210645D01*
X205915Y-215955D01*
X205915Y-223465D01*
X200605Y-228775D01*
X193095Y-228775D01*
G37*
%LPD*%
%LPC*%
G36*
X-264105Y-203375D02*
X-264105Y-203375D01*
X-269415Y-198065D01*
X-269415Y-190555D01*
X-264105Y-185245D01*
X-256595Y-185245D01*
X-251285Y-190555D01*
X-251285Y-198065D01*
X-256595Y-203375D01*
X-264105Y-203375D01*
G37*
%LPD*%
%LPC*%
G36*
X-238705Y-203375D02*
X-238705Y-203375D01*
X-244015Y-198065D01*
X-244015Y-190555D01*
X-238705Y-185245D01*
X-231195Y-185245D01*
X-225885Y-190555D01*
X-225885Y-198065D01*
X-231195Y-203375D01*
X-238705Y-203375D01*
G37*
%LPD*%
%LPC*%
G36*
X167695Y-203375D02*
X167695Y-203375D01*
X162385Y-198065D01*
X162385Y-190555D01*
X167695Y-185245D01*
X175205Y-185245D01*
X180515Y-190555D01*
X180515Y-198065D01*
X175205Y-203375D01*
X167695Y-203375D01*
G37*
%LPD*%
%LPC*%
G36*
X193095Y-203375D02*
X193095Y-203375D01*
X187785Y-198065D01*
X187785Y-190555D01*
X193095Y-185245D01*
X200605Y-185245D01*
X205915Y-190555D01*
X205915Y-198065D01*
X200605Y-203375D01*
X193095Y-203375D01*
G37*
%LPD*%
%LPC*%
G36*
X-264105Y-177975D02*
X-264105Y-177975D01*
X-269415Y-172665D01*
X-269415Y-165155D01*
X-264105Y-159845D01*
X-256595Y-159845D01*
X-251285Y-165155D01*
X-251285Y-172665D01*
X-256595Y-177975D01*
X-264105Y-177975D01*
G37*
%LPD*%
%LPC*%
G36*
X167695Y-177975D02*
X167695Y-177975D01*
X162385Y-172665D01*
X162385Y-165155D01*
X167695Y-159845D01*
X175205Y-159845D01*
X180515Y-165155D01*
X180515Y-172665D01*
X175205Y-177975D01*
X167695Y-177975D01*
G37*
%LPD*%
%LPC*%
G36*
X193095Y-177975D02*
X193095Y-177975D01*
X187785Y-172665D01*
X187785Y-165155D01*
X193095Y-159845D01*
X200605Y-159845D01*
X205915Y-165155D01*
X205915Y-172665D01*
X200605Y-177975D01*
X193095Y-177975D01*
G37*
%LPD*%
%LPC*%
G36*
X-264105Y-152575D02*
X-264105Y-152575D01*
X-269415Y-147265D01*
X-269415Y-139755D01*
X-264105Y-134445D01*
X-256595Y-134445D01*
X-251285Y-139755D01*
X-251285Y-147265D01*
X-256595Y-152575D01*
X-264105Y-152575D01*
G37*
%LPD*%
%LPC*%
G36*
X167695Y-152575D02*
X167695Y-152575D01*
X162385Y-147265D01*
X162385Y-139755D01*
X167695Y-134445D01*
X175205Y-134445D01*
X180515Y-139755D01*
X180515Y-147265D01*
X175205Y-152575D01*
X167695Y-152575D01*
G37*
%LPD*%
%LPC*%
G36*
X193095Y-152575D02*
X193095Y-152575D01*
X187785Y-147265D01*
X187785Y-139755D01*
X193095Y-134445D01*
X200605Y-134445D01*
X205915Y-139755D01*
X205915Y-147265D01*
X200605Y-152575D01*
X193095Y-152575D01*
G37*
%LPD*%
%LPC*%
G36*
X-264105Y-127175D02*
X-264105Y-127175D01*
X-269415Y-121865D01*
X-269415Y-114355D01*
X-264105Y-109045D01*
X-256595Y-109045D01*
X-251285Y-114355D01*
X-251285Y-121865D01*
X-256595Y-127175D01*
X-264105Y-127175D01*
G37*
%LPD*%
%LPC*%
G36*
X-238705Y-127175D02*
X-238705Y-127175D01*
X-244015Y-121865D01*
X-244015Y-114355D01*
X-238705Y-109045D01*
X-231195Y-109045D01*
X-225885Y-114355D01*
X-225885Y-121865D01*
X-231195Y-127175D01*
X-238705Y-127175D01*
G37*
%LPD*%
%LPC*%
G36*
X167695Y-127175D02*
X167695Y-127175D01*
X162385Y-121865D01*
X162385Y-114355D01*
X167695Y-109045D01*
X175205Y-109045D01*
X180515Y-114355D01*
X180515Y-121865D01*
X175205Y-127175D01*
X167695Y-127175D01*
G37*
%LPD*%
%LPC*%
G36*
X-264105Y-76375D02*
X-264105Y-76375D01*
X-269415Y-71065D01*
X-269415Y-63555D01*
X-264105Y-58245D01*
X-256595Y-58245D01*
X-251285Y-63555D01*
X-251285Y-71065D01*
X-256595Y-76375D01*
X-264105Y-76375D01*
G37*
%LPD*%
%LPC*%
G36*
X193095Y-127175D02*
X193095Y-127175D01*
X187785Y-121865D01*
X187785Y-114355D01*
X193095Y-109045D01*
X200605Y-109045D01*
X205915Y-114355D01*
X205915Y-121865D01*
X200605Y-127175D01*
X193095Y-127175D01*
G37*
%LPD*%
%LPC*%
G36*
X-264105Y-101775D02*
X-264105Y-101775D01*
X-269415Y-96465D01*
X-269415Y-88955D01*
X-264105Y-83645D01*
X-256595Y-83645D01*
X-251285Y-88955D01*
X-251285Y-96465D01*
X-256595Y-101775D01*
X-264105Y-101775D01*
G37*
%LPD*%
%LPC*%
G36*
X167695Y-50975D02*
X167695Y-50975D01*
X162385Y-45665D01*
X162385Y-38155D01*
X167695Y-32845D01*
X175205Y-32845D01*
X180515Y-38155D01*
X180515Y-45665D01*
X175205Y-50975D01*
X167695Y-50975D01*
G37*
%LPD*%
%LPC*%
G36*
X-238705Y-50975D02*
X-238705Y-50975D01*
X-244015Y-45665D01*
X-244015Y-38155D01*
X-238705Y-32845D01*
X-231195Y-32845D01*
X-225885Y-38155D01*
X-225885Y-45665D01*
X-231195Y-50975D01*
X-238705Y-50975D01*
G37*
%LPD*%
%LPC*%
G36*
X-264105Y-50975D02*
X-264105Y-50975D01*
X-269415Y-45665D01*
X-269415Y-38155D01*
X-264105Y-32845D01*
X-256595Y-32845D01*
X-251285Y-38155D01*
X-251285Y-45665D01*
X-256595Y-50975D01*
X-264105Y-50975D01*
G37*
%LPD*%
%LPC*%
G36*
X-238705Y-101775D02*
X-238705Y-101775D01*
X-244015Y-96465D01*
X-244015Y-88955D01*
X-238705Y-83645D01*
X-231195Y-83645D01*
X-225885Y-88955D01*
X-225885Y-96465D01*
X-231195Y-101775D01*
X-238705Y-101775D01*
G37*
%LPD*%
%LPC*%
G36*
X167695Y-101775D02*
X167695Y-101775D01*
X162385Y-96465D01*
X162385Y-88955D01*
X167695Y-83645D01*
X175205Y-83645D01*
X180515Y-88955D01*
X180515Y-96465D01*
X175205Y-101775D01*
X167695Y-101775D01*
G37*
%LPD*%
%LPC*%
G36*
X355159Y371093D02*
X355159Y371093D01*
X354266Y371986D01*
X354266Y386204D01*
X355159Y387097D01*
X369376Y387097D01*
X370269Y386204D01*
X370269Y371986D01*
X369376Y371093D01*
X355159Y371093D01*
G37*
%LPD*%
%LPC*%
G36*
X-361954Y523493D02*
X-361954Y523493D01*
X-364895Y524711D01*
X-367146Y526962D01*
X-368364Y529903D01*
X-368364Y533087D01*
X-367146Y536028D01*
X-364895Y538279D01*
X-361954Y539497D01*
X-358771Y539497D01*
X-355830Y538279D01*
X-353579Y536028D01*
X-352361Y533087D01*
X-352361Y529903D01*
X-353579Y526962D01*
X-355830Y524711D01*
X-358771Y523493D01*
X-361954Y523493D01*
G37*
%LPD*%
%LPC*%
G36*
X360676Y574293D02*
X360676Y574293D01*
X357735Y575511D01*
X355484Y577762D01*
X354266Y580703D01*
X354266Y583887D01*
X355484Y586828D01*
X357735Y589079D01*
X360676Y590297D01*
X363859Y590297D01*
X366800Y589079D01*
X369051Y586828D01*
X370269Y583887D01*
X370269Y580703D01*
X369051Y577762D01*
X366800Y575511D01*
X363859Y574293D01*
X360676Y574293D01*
G37*
%LPD*%
%LPC*%
G36*
X284476Y574293D02*
X284476Y574293D01*
X281535Y575511D01*
X279284Y577762D01*
X278066Y580703D01*
X278066Y583887D01*
X279284Y586828D01*
X281535Y589079D01*
X284476Y590297D01*
X287659Y590297D01*
X290600Y589079D01*
X292851Y586828D01*
X294069Y583887D01*
X294069Y580703D01*
X292851Y577762D01*
X290600Y575511D01*
X287659Y574293D01*
X284476Y574293D01*
G37*
%LPD*%
%LPC*%
G36*
X284476Y548893D02*
X284476Y548893D01*
X281535Y550111D01*
X279284Y552362D01*
X278066Y555303D01*
X278066Y558487D01*
X279284Y561428D01*
X281535Y563679D01*
X284476Y564897D01*
X287659Y564897D01*
X290600Y563679D01*
X292851Y561428D01*
X294069Y558487D01*
X294069Y555303D01*
X292851Y552362D01*
X290600Y550111D01*
X287659Y548893D01*
X284476Y548893D01*
G37*
%LPD*%
%LPC*%
G36*
X-361954Y548893D02*
X-361954Y548893D01*
X-364895Y550111D01*
X-367146Y552362D01*
X-368364Y555303D01*
X-368364Y558487D01*
X-367146Y561428D01*
X-364895Y563679D01*
X-361954Y564897D01*
X-358771Y564897D01*
X-355830Y563679D01*
X-353579Y561428D01*
X-352361Y558487D01*
X-352361Y555303D01*
X-353579Y552362D01*
X-355830Y550111D01*
X-358771Y548893D01*
X-361954Y548893D01*
G37*
%LPD*%
%LPC*%
G36*
X-438154Y548893D02*
X-438154Y548893D01*
X-441095Y550111D01*
X-443346Y552362D01*
X-444564Y555303D01*
X-444564Y558487D01*
X-443346Y561428D01*
X-441095Y563679D01*
X-438154Y564897D01*
X-434971Y564897D01*
X-432030Y563679D01*
X-429779Y561428D01*
X-428561Y558487D01*
X-428561Y555303D01*
X-429779Y552362D01*
X-432030Y550111D01*
X-434971Y548893D01*
X-438154Y548893D01*
G37*
%LPD*%
%LPC*%
G36*
X-438154Y396493D02*
X-438154Y396493D01*
X-441095Y397711D01*
X-443346Y399962D01*
X-444564Y402903D01*
X-444564Y406087D01*
X-443346Y409028D01*
X-441095Y411279D01*
X-438154Y412497D01*
X-434971Y412497D01*
X-432030Y411279D01*
X-429779Y409028D01*
X-428561Y406087D01*
X-428561Y402903D01*
X-429779Y399962D01*
X-432030Y397711D01*
X-434971Y396493D01*
X-438154Y396493D01*
G37*
%LPD*%
%LPC*%
G36*
X-361954Y396493D02*
X-361954Y396493D01*
X-364895Y397711D01*
X-367146Y399962D01*
X-368364Y402903D01*
X-368364Y406087D01*
X-367146Y409028D01*
X-364895Y411279D01*
X-361954Y412497D01*
X-358771Y412497D01*
X-355830Y411279D01*
X-353579Y409028D01*
X-352361Y406087D01*
X-352361Y402903D01*
X-353579Y399962D01*
X-355830Y397711D01*
X-358771Y396493D01*
X-361954Y396493D01*
G37*
%LPD*%
%LPC*%
G36*
X284476Y396493D02*
X284476Y396493D01*
X281535Y397711D01*
X279284Y399962D01*
X278066Y402903D01*
X278066Y406087D01*
X279284Y409028D01*
X281535Y411279D01*
X284476Y412497D01*
X287659Y412497D01*
X290600Y411279D01*
X292851Y409028D01*
X294069Y406087D01*
X294069Y402903D01*
X292851Y399962D01*
X290600Y397711D01*
X287659Y396493D01*
X284476Y396493D01*
G37*
%LPD*%
%LPC*%
G36*
X360676Y396493D02*
X360676Y396493D01*
X357735Y397711D01*
X355484Y399962D01*
X354266Y402903D01*
X354266Y406087D01*
X355484Y409028D01*
X357735Y411279D01*
X360676Y412497D01*
X363859Y412497D01*
X366800Y411279D01*
X369051Y409028D01*
X370269Y406087D01*
X370269Y402903D01*
X369051Y399962D01*
X366800Y397711D01*
X363859Y396493D01*
X360676Y396493D01*
G37*
%LPD*%
%LPC*%
G36*
X-438154Y421893D02*
X-438154Y421893D01*
X-441095Y423111D01*
X-443346Y425362D01*
X-444564Y428303D01*
X-444564Y431487D01*
X-443346Y434428D01*
X-441095Y436679D01*
X-438154Y437897D01*
X-434971Y437897D01*
X-432030Y436679D01*
X-429779Y434428D01*
X-428561Y431487D01*
X-428561Y428303D01*
X-429779Y425362D01*
X-432030Y423111D01*
X-434971Y421893D01*
X-438154Y421893D01*
G37*
%LPD*%
%LPC*%
G36*
X284476Y523493D02*
X284476Y523493D01*
X281535Y524711D01*
X279284Y526962D01*
X278066Y529903D01*
X278066Y533087D01*
X279284Y536028D01*
X281535Y538279D01*
X284476Y539497D01*
X287659Y539497D01*
X290600Y538279D01*
X292851Y536028D01*
X294069Y533087D01*
X294069Y529903D01*
X292851Y526962D01*
X290600Y524711D01*
X287659Y523493D01*
X284476Y523493D01*
G37*
%LPD*%
%LPC*%
G36*
X284476Y421893D02*
X284476Y421893D01*
X281535Y423111D01*
X279284Y425362D01*
X278066Y428303D01*
X278066Y431487D01*
X279284Y434428D01*
X281535Y436679D01*
X284476Y437897D01*
X287659Y437897D01*
X290600Y436679D01*
X292851Y434428D01*
X294069Y431487D01*
X294069Y428303D01*
X292851Y425362D01*
X290600Y423111D01*
X287659Y421893D01*
X284476Y421893D01*
G37*
%LPD*%
%LPC*%
G36*
X360676Y548893D02*
X360676Y548893D01*
X357735Y550111D01*
X355484Y552362D01*
X354266Y555303D01*
X354266Y558487D01*
X355484Y561428D01*
X357735Y563679D01*
X360676Y564897D01*
X363859Y564897D01*
X366800Y563679D01*
X369051Y561428D01*
X370269Y558487D01*
X370269Y555303D01*
X369051Y552362D01*
X366800Y550111D01*
X363859Y548893D01*
X360676Y548893D01*
G37*
%LPD*%
%LPC*%
G36*
X-438154Y523493D02*
X-438154Y523493D01*
X-441095Y524711D01*
X-443346Y526962D01*
X-444564Y529903D01*
X-444564Y533087D01*
X-443346Y536028D01*
X-441095Y538279D01*
X-438154Y539497D01*
X-434971Y539497D01*
X-432030Y538279D01*
X-429779Y536028D01*
X-428561Y533087D01*
X-428561Y529903D01*
X-429779Y526962D01*
X-432030Y524711D01*
X-434971Y523493D01*
X-438154Y523493D01*
G37*
%LPD*%
%LPC*%
G36*
X-438154Y447293D02*
X-438154Y447293D01*
X-441095Y448511D01*
X-443346Y450762D01*
X-444564Y453703D01*
X-444564Y456887D01*
X-443346Y459828D01*
X-441095Y462079D01*
X-438154Y463297D01*
X-434971Y463297D01*
X-432030Y462079D01*
X-429779Y459828D01*
X-428561Y456887D01*
X-428561Y453703D01*
X-429779Y450762D01*
X-432030Y448511D01*
X-434971Y447293D01*
X-438154Y447293D01*
G37*
%LPD*%
%LPC*%
G36*
X284476Y447293D02*
X284476Y447293D01*
X281535Y448511D01*
X279284Y450762D01*
X278066Y453703D01*
X278066Y456887D01*
X279284Y459828D01*
X281535Y462079D01*
X284476Y463297D01*
X287659Y463297D01*
X290600Y462079D01*
X292851Y459828D01*
X294069Y456887D01*
X294069Y453703D01*
X292851Y450762D01*
X290600Y448511D01*
X287659Y447293D01*
X284476Y447293D01*
G37*
%LPD*%
%LPC*%
G36*
X360676Y447293D02*
X360676Y447293D01*
X357735Y448511D01*
X355484Y450762D01*
X354266Y453703D01*
X354266Y456887D01*
X355484Y459828D01*
X357735Y462079D01*
X360676Y463297D01*
X363859Y463297D01*
X366800Y462079D01*
X369051Y459828D01*
X370269Y456887D01*
X370269Y453703D01*
X369051Y450762D01*
X366800Y448511D01*
X363859Y447293D01*
X360676Y447293D01*
G37*
%LPD*%
%LPC*%
G36*
X-438154Y472693D02*
X-438154Y472693D01*
X-441095Y473911D01*
X-443346Y476162D01*
X-444564Y479103D01*
X-444564Y482287D01*
X-443346Y485228D01*
X-441095Y487479D01*
X-438154Y488697D01*
X-434971Y488697D01*
X-432030Y487479D01*
X-429779Y485228D01*
X-428561Y482287D01*
X-428561Y479103D01*
X-429779Y476162D01*
X-432030Y473911D01*
X-434971Y472693D01*
X-438154Y472693D01*
G37*
%LPD*%
%LPC*%
G36*
X-438154Y574293D02*
X-438154Y574293D01*
X-441095Y575511D01*
X-443346Y577762D01*
X-444564Y580703D01*
X-444564Y583887D01*
X-443346Y586828D01*
X-441095Y589079D01*
X-438154Y590297D01*
X-434971Y590297D01*
X-432030Y589079D01*
X-429779Y586828D01*
X-428561Y583887D01*
X-428561Y580703D01*
X-429779Y577762D01*
X-432030Y575511D01*
X-434971Y574293D01*
X-438154Y574293D01*
G37*
%LPD*%
%LPC*%
G36*
X-361954Y472693D02*
X-361954Y472693D01*
X-364895Y473911D01*
X-367146Y476162D01*
X-368364Y479103D01*
X-368364Y482287D01*
X-367146Y485228D01*
X-364895Y487479D01*
X-361954Y488697D01*
X-358771Y488697D01*
X-355830Y487479D01*
X-353579Y485228D01*
X-352361Y482287D01*
X-352361Y479103D01*
X-353579Y476162D01*
X-355830Y473911D01*
X-358771Y472693D01*
X-361954Y472693D01*
G37*
%LPD*%
%LPC*%
G36*
X284476Y472693D02*
X284476Y472693D01*
X281535Y473911D01*
X279284Y476162D01*
X278066Y479103D01*
X278066Y482287D01*
X279284Y485228D01*
X281535Y487479D01*
X284476Y488697D01*
X287659Y488697D01*
X290600Y487479D01*
X292851Y485228D01*
X294069Y482287D01*
X294069Y479103D01*
X292851Y476162D01*
X290600Y473911D01*
X287659Y472693D01*
X284476Y472693D01*
G37*
%LPD*%
%LPC*%
G36*
X360676Y472693D02*
X360676Y472693D01*
X357735Y473911D01*
X355484Y476162D01*
X354266Y479103D01*
X354266Y482287D01*
X355484Y485228D01*
X357735Y487479D01*
X360676Y488697D01*
X363859Y488697D01*
X366800Y487479D01*
X369051Y485228D01*
X370269Y482287D01*
X370269Y479103D01*
X369051Y476162D01*
X366800Y473911D01*
X363859Y472693D01*
X360676Y472693D01*
G37*
%LPD*%
%LPC*%
G36*
X-361954Y574293D02*
X-361954Y574293D01*
X-364895Y575511D01*
X-367146Y577762D01*
X-368364Y580703D01*
X-368364Y583887D01*
X-367146Y586828D01*
X-364895Y589079D01*
X-361954Y590297D01*
X-358771Y590297D01*
X-355830Y589079D01*
X-353579Y586828D01*
X-352361Y583887D01*
X-352361Y580703D01*
X-353579Y577762D01*
X-355830Y575511D01*
X-358771Y574293D01*
X-361954Y574293D01*
G37*
%LPD*%
%LPC*%
G36*
X-438154Y498093D02*
X-438154Y498093D01*
X-441095Y499311D01*
X-443346Y501562D01*
X-444564Y504503D01*
X-444564Y507687D01*
X-443346Y510628D01*
X-441095Y512879D01*
X-438154Y514097D01*
X-434971Y514097D01*
X-432030Y512879D01*
X-429779Y510628D01*
X-428561Y507687D01*
X-428561Y504503D01*
X-429779Y501562D01*
X-432030Y499311D01*
X-434971Y498093D01*
X-438154Y498093D01*
G37*
%LPD*%
%LPC*%
G36*
X-361954Y498093D02*
X-361954Y498093D01*
X-364895Y499311D01*
X-367146Y501562D01*
X-368364Y504503D01*
X-368364Y507687D01*
X-367146Y510628D01*
X-364895Y512879D01*
X-361954Y514097D01*
X-358771Y514097D01*
X-355830Y512879D01*
X-353579Y510628D01*
X-352361Y507687D01*
X-352361Y504503D01*
X-353579Y501562D01*
X-355830Y499311D01*
X-358771Y498093D01*
X-361954Y498093D01*
G37*
%LPD*%
%LPC*%
G36*
X284476Y498093D02*
X284476Y498093D01*
X281535Y499311D01*
X279284Y501562D01*
X278066Y504503D01*
X278066Y507687D01*
X279284Y510628D01*
X281535Y512879D01*
X284476Y514097D01*
X287659Y514097D01*
X290600Y512879D01*
X292851Y510628D01*
X294069Y507687D01*
X294069Y504503D01*
X292851Y501562D01*
X290600Y499311D01*
X287659Y498093D01*
X284476Y498093D01*
G37*
%LPD*%
%LPC*%
G36*
X360676Y498093D02*
X360676Y498093D01*
X357735Y499311D01*
X355484Y501562D01*
X354266Y504503D01*
X354266Y507687D01*
X355484Y510628D01*
X357735Y512879D01*
X360676Y514097D01*
X363859Y514097D01*
X366800Y512879D01*
X369051Y510628D01*
X370269Y507687D01*
X370269Y504503D01*
X369051Y501562D01*
X366800Y499311D01*
X363859Y498093D01*
X360676Y498093D01*
G37*
%LPD*%
%LPC*%
G36*
X360676Y421893D02*
X360676Y421893D01*
X357735Y423111D01*
X355484Y425362D01*
X354266Y428303D01*
X354266Y431487D01*
X355484Y434428D01*
X357735Y436679D01*
X360676Y437897D01*
X363859Y437897D01*
X366800Y436679D01*
X369051Y434428D01*
X370269Y431487D01*
X370269Y428303D01*
X369051Y425362D01*
X366800Y423111D01*
X363859Y421893D01*
X360676Y421893D01*
G37*
%LPD*%
D10*
X280670Y-707390D02*
X280670Y-859790D01*
D11*
X280670Y-704215D03*
D10*
X255270Y-707390D02*
X255270Y-859790D01*
D11*
X255270Y-704215D03*
D10*
X229870Y-707390D02*
X229870Y-859790D01*
D11*
X229870Y-704215D03*
D10*
X204470Y-707390D02*
X204470Y-859790D01*
D11*
X204470Y-704215D03*
D10*
X179070Y-707390D02*
X179070Y-859790D01*
D11*
X179070Y-704215D03*
D10*
X153670Y-707390D02*
X153670Y-859790D01*
D11*
X153670Y-704215D03*
D10*
X128270Y-707390D02*
X128270Y-859790D01*
D11*
X128270Y-704215D03*
D10*
X102870Y-707390D02*
X102870Y-859790D01*
D11*
X102870Y-704215D03*
D10*
X77470Y-707390D02*
X77470Y-859790D01*
D11*
X77470Y-704215D03*
D10*
X52070Y-707390D02*
X52070Y-859790D01*
D11*
X52070Y-704215D03*
D10*
X26670Y-707390D02*
X26670Y-859790D01*
D11*
X26670Y-704215D03*
D10*
X1270Y-707390D02*
X1270Y-859790D01*
D11*
X1270Y-704215D03*
D10*
X-24130Y-707390D02*
X-24130Y-859790D01*
D11*
X-24130Y-704215D03*
D10*
X-49530Y-707390D02*
X-49530Y-859790D01*
D11*
X-49530Y-704215D03*
D10*
X-74930Y-707390D02*
X-74930Y-859790D01*
D11*
X-74930Y-704215D03*
D10*
X-100330Y-707390D02*
X-100330Y-859790D01*
D11*
X-100330Y-704215D03*
D10*
X-125730Y-707390D02*
X-125730Y-859790D01*
D11*
X-125730Y-704215D03*
D10*
X-151130Y-707390D02*
X-151130Y-859790D01*
D11*
X-151130Y-704215D03*
D10*
X-176530Y-707390D02*
X-176530Y-859790D01*
D11*
X-176530Y-704215D03*
D10*
X-201930Y-707390D02*
X-201930Y-859790D01*
D11*
X-201930Y-704215D03*
D10*
X-227330Y-707390D02*
X-227330Y-859790D01*
D11*
X-227330Y-704215D03*
D10*
X-252730Y-707390D02*
X-252730Y-859790D01*
D11*
X-252730Y-704215D03*
D10*
X-278130Y-707390D02*
X-278130Y-859790D01*
D11*
X-278130Y-704215D03*
D10*
X-303530Y-707390D02*
X-303530Y-859790D01*
D11*
X-303530Y-704215D03*
D10*
X-328930Y-707390D02*
X-328930Y-859790D01*
D11*
X-328930Y-704215D03*
D12*
X-234950Y-41910D03*
X-260350Y-41910D03*
X-234950Y-67310D03*
X-260350Y-67310D03*
X-234950Y-92710D03*
X-260350Y-92710D03*
X-234950Y-118110D03*
X-260350Y-118110D03*
X-234950Y-143510D03*
X-260350Y-143510D03*
X-234950Y-168910D03*
X-260350Y-168910D03*
X-234950Y-194310D03*
X-260350Y-194310D03*
X-234950Y-219710D03*
X-260350Y-219710D03*
X-234950Y-245110D03*
X-260350Y-245110D03*
X-234950Y-270510D03*
X-260350Y-270510D03*
X196850Y-41910D03*
X171450Y-41910D03*
X196850Y-67310D03*
X171450Y-67310D03*
X196850Y-92710D03*
X171450Y-92710D03*
X196850Y-118110D03*
X171450Y-118110D03*
X196850Y-143510D03*
X171450Y-143510D03*
X196850Y-168910D03*
X171450Y-168910D03*
X196850Y-194310D03*
X171450Y-194310D03*
X196850Y-219710D03*
X171450Y-219710D03*
X196850Y-245110D03*
X171450Y-245110D03*
X196850Y-270510D03*
X171450Y-270510D03*
D13*
X-360363Y379095D03*
D14*
X-360363Y404495D03*
X-360363Y429895D03*
X-360363Y455295D03*
X-360363Y480695D03*
X-360363Y506095D03*
X-360363Y531495D03*
X-360363Y556895D03*
X-360363Y582295D03*
X-360363Y607695D03*
X-436563Y607695D03*
X-436563Y582295D03*
X-436563Y556895D03*
X-436563Y531495D03*
X-436563Y506095D03*
X-436563Y480695D03*
X-436563Y455295D03*
X-436563Y429895D03*
X-436563Y404495D03*
X-436563Y379095D03*
D13*
X362268Y379095D03*
D14*
X362268Y404495D03*
X362268Y429895D03*
X362268Y455295D03*
X362268Y480695D03*
X362268Y506095D03*
X362268Y531495D03*
X362268Y556895D03*
X362268Y582295D03*
X362268Y607695D03*
X286068Y607695D03*
X286068Y582295D03*
X286068Y556895D03*
X286068Y531495D03*
X286068Y506095D03*
X286068Y480695D03*
X286068Y455295D03*
X286068Y429895D03*
X286068Y404495D03*
X286068Y379095D03*
D15*
X201676Y794170D03*
X187960Y819570D03*
X174244Y794170D03*
X160528Y819570D03*
X146812Y794170D03*
X133096Y819570D03*
X119380Y794170D03*
X105664Y819570D03*
X92202Y794170D03*
D16*
X271780Y806870D03*
X21844Y806870D03*
D15*
X-140018Y794043D03*
X-153734Y819443D03*
X-167450Y794043D03*
X-181166Y819443D03*
X-194882Y794043D03*
X-208598Y819443D03*
X-222314Y794043D03*
X-236030Y819443D03*
X-249492Y794043D03*
D16*
X-69914Y806743D03*
X-319850Y806743D03*
D17*
X-358775Y377508D02*
X-260350Y377508D01*
X-358775Y377508D02*
X-360363Y379095D01*
X-260350Y377508D02*
X211773Y377508D01*
X211773Y363855D01*
D18*
X-260350Y377508D03*
X211773Y363855D03*
D19*
X280670Y-659130D03*
D10*
X255270Y-659130D01*
X255270Y-706120D01*
X280670Y-706120D02*
X280670Y-659130D01*
X280670Y-631190D01*
X-200660Y-631190D01*
X-200660Y-185420D01*
D19*
X-200978Y348615D03*
D10*
X-436563Y348615D01*
X-436563Y379095D01*
X-200978Y348615D02*
X286068Y348615D01*
X286068Y379095D01*
D19*
X-200660Y-185420D03*
D18*
X-349250Y-41275D03*
X-351790Y-219710D03*
D17*
X-349250Y-217170D02*
X-349250Y-41275D01*
X-349250Y-217170D02*
X-351790Y-219710D01*
D18*
X-366395Y-40958D03*
D17*
X-366395Y-245110D01*
D18*
X-366395Y-245110D03*
D17*
X-332423Y-270510D02*
X-260350Y-270510D01*
X-332423Y-270510D02*
X-332423Y-42228D01*
D18*
X-332423Y-42228D03*
X-131763Y508635D03*
D17*
X-131763Y556895D01*
D18*
X-131763Y556895D03*
D17*
X144145Y455295D02*
X144145Y398780D01*
X144145Y455295D02*
X-360363Y455295D01*
D18*
X144145Y398780D03*
D17*
X196850Y-67310D02*
X215900Y-67310D01*
X215900Y6350D01*
X124778Y429895D02*
X-360363Y429895D01*
D18*
X125095Y6350D03*
D17*
X215900Y6350D01*
D18*
X124778Y399415D03*
D17*
X124778Y429895D01*
X196850Y-92710D02*
X402908Y-92710D01*
X402908Y531495D02*
X362268Y531495D01*
X402908Y531495D02*
X402908Y-92710D01*
D10*
X171450Y-245110D02*
X26670Y-245110D01*
D19*
X26670Y-245110D03*
D10*
X52070Y-168910D02*
X-234950Y-168910D01*
D19*
X52070Y-168910D03*
D10*
X77724Y-219710D02*
X171450Y-219710D01*
D19*
X77724Y-219710D03*
D10*
X102870Y-143510D02*
X-234950Y-143510D01*
D19*
X102870Y-143510D03*
D10*
X-436563Y607695D02*
X-436563Y628650D01*
X102870Y111443D02*
X102870Y-143510D01*
X102870Y111443D02*
X369570Y111443D01*
D19*
X369570Y111443D03*
X428625Y111760D03*
D10*
X427673Y112713D01*
X427673Y658559D01*
X119698Y658178D02*
X119698Y628650D01*
X120079Y658559D02*
X427673Y658559D01*
X120079Y658559D02*
X119698Y658178D01*
X119698Y628650D02*
X-436563Y628650D01*
X119698Y628650D02*
X241618Y628650D01*
X241935Y628333D01*
X241935Y608013D01*
X242253Y607695D01*
X286068Y607695D01*
D19*
X128270Y-655320D03*
D10*
X128270Y-707390D01*
D18*
X-174562Y-30798D03*
X-174625Y-53023D03*
X-427038Y705485D03*
D17*
X-222568Y705485D01*
X-222568Y793789D01*
X-222314Y794043D01*
D18*
X-416878Y720090D03*
D17*
X-250508Y720090D01*
X-249492Y721106D01*
X-249492Y794043D01*
D18*
X-208598Y836295D03*
X-257493Y836295D03*
D17*
X-208598Y836295D01*
D18*
X93853Y859409D03*
D17*
X160528Y859409D01*
X160528Y819570D01*
D18*
X93917Y846011D03*
D17*
X133096Y846011D01*
X133096Y819570D01*
D18*
X239332Y848868D03*
D17*
X239332Y772668D01*
X174816Y772668D01*
X174816Y793599D02*
X174244Y794170D01*
X174816Y793599D02*
X174816Y772668D01*
D18*
X225362Y860362D03*
D17*
X225362Y794170D01*
X201676Y794170D01*
D18*
X120968Y873760D03*
X94298Y873125D03*
D17*
X120968Y873125D02*
X120968Y873760D01*
X120968Y873125D02*
X94298Y873125D01*
D18*
X120968Y887730D03*
X94298Y887730D03*
D17*
X120968Y887730D01*
D18*
X120968Y901700D03*
D17*
X79058Y901700D01*
X79058Y794170D01*
X92202Y794170D01*
M02*
