G04 EAGLE Gerber RS-274X export*
G75*
%MOMM*%
%FSLAX34Y34*%
%LPD*%
%INTop Copper*%
%IPPOS*%
%AMOC8*
5,1,8,0,0,1.08239X$1,22.5*%
G01*
%ADD10C,1.270000*%
%ADD11R,1.270000X0.635000*%
%ADD12P,1.632244X8X292.500000*%
%ADD13R,1.295400X1.295400*%
%ADD14C,1.295400*%
%ADD15R,0.950000X0.930000*%
%ADD16C,1.714500*%
%ADD17C,4.368800*%
%ADD18C,0.812800*%
%ADD19C,1.056400*%
%ADD20C,1.500000*%


D10*
X280670Y-707390D02*
X280670Y-859790D01*
D11*
X280670Y-704215D03*
D10*
X255270Y-707390D02*
X255270Y-859790D01*
D11*
X255270Y-704215D03*
D10*
X229870Y-707390D02*
X229870Y-859790D01*
D11*
X229870Y-704215D03*
D10*
X204470Y-707390D02*
X204470Y-859790D01*
D11*
X204470Y-704215D03*
D10*
X179070Y-707390D02*
X179070Y-859790D01*
D11*
X179070Y-704215D03*
D10*
X153670Y-707390D02*
X153670Y-859790D01*
D11*
X153670Y-704215D03*
D10*
X128270Y-707390D02*
X128270Y-859790D01*
D11*
X128270Y-704215D03*
D10*
X102870Y-707390D02*
X102870Y-859790D01*
D11*
X102870Y-704215D03*
D10*
X77470Y-707390D02*
X77470Y-859790D01*
D11*
X77470Y-704215D03*
D10*
X52070Y-707390D02*
X52070Y-859790D01*
D11*
X52070Y-704215D03*
D10*
X26670Y-707390D02*
X26670Y-859790D01*
D11*
X26670Y-704215D03*
D10*
X1270Y-707390D02*
X1270Y-859790D01*
D11*
X1270Y-704215D03*
D10*
X-24130Y-707390D02*
X-24130Y-859790D01*
D11*
X-24130Y-704215D03*
D10*
X-49530Y-707390D02*
X-49530Y-859790D01*
D11*
X-49530Y-704215D03*
D10*
X-74930Y-707390D02*
X-74930Y-859790D01*
D11*
X-74930Y-704215D03*
D10*
X-100330Y-707390D02*
X-100330Y-859790D01*
D11*
X-100330Y-704215D03*
D10*
X-125730Y-707390D02*
X-125730Y-859790D01*
D11*
X-125730Y-704215D03*
D10*
X-151130Y-707390D02*
X-151130Y-859790D01*
D11*
X-151130Y-704215D03*
D10*
X-176530Y-707390D02*
X-176530Y-859790D01*
D11*
X-176530Y-704215D03*
D10*
X-201930Y-707390D02*
X-201930Y-859790D01*
D11*
X-201930Y-704215D03*
D10*
X-227330Y-707390D02*
X-227330Y-859790D01*
D11*
X-227330Y-704215D03*
D10*
X-252730Y-707390D02*
X-252730Y-859790D01*
D11*
X-252730Y-704215D03*
D10*
X-278130Y-707390D02*
X-278130Y-859790D01*
D11*
X-278130Y-704215D03*
D10*
X-303530Y-707390D02*
X-303530Y-859790D01*
D11*
X-303530Y-704215D03*
D10*
X-328930Y-707390D02*
X-328930Y-859790D01*
D11*
X-328930Y-704215D03*
D12*
X-234950Y-41910D03*
X-260350Y-41910D03*
X-234950Y-67310D03*
X-260350Y-67310D03*
X-234950Y-92710D03*
X-260350Y-92710D03*
X-234950Y-118110D03*
X-260350Y-118110D03*
X-234950Y-143510D03*
X-260350Y-143510D03*
X-234950Y-168910D03*
X-260350Y-168910D03*
X-234950Y-194310D03*
X-260350Y-194310D03*
X-234950Y-219710D03*
X-260350Y-219710D03*
X-234950Y-245110D03*
X-260350Y-245110D03*
X-234950Y-270510D03*
X-260350Y-270510D03*
X196850Y-41910D03*
X171450Y-41910D03*
X196850Y-67310D03*
X171450Y-67310D03*
X196850Y-92710D03*
X171450Y-92710D03*
X196850Y-118110D03*
X171450Y-118110D03*
X196850Y-143510D03*
X171450Y-143510D03*
X196850Y-168910D03*
X171450Y-168910D03*
X196850Y-194310D03*
X171450Y-194310D03*
X196850Y-219710D03*
X171450Y-219710D03*
X196850Y-245110D03*
X171450Y-245110D03*
X196850Y-270510D03*
X171450Y-270510D03*
D13*
X-360363Y379095D03*
D14*
X-360363Y404495D03*
X-360363Y429895D03*
X-360363Y455295D03*
X-360363Y480695D03*
X-360363Y506095D03*
X-360363Y531495D03*
X-360363Y556895D03*
X-360363Y582295D03*
X-360363Y607695D03*
X-436563Y607695D03*
X-436563Y582295D03*
X-436563Y556895D03*
X-436563Y531495D03*
X-436563Y506095D03*
X-436563Y480695D03*
X-436563Y455295D03*
X-436563Y429895D03*
X-436563Y404495D03*
X-436563Y379095D03*
D13*
X362268Y379095D03*
D14*
X362268Y404495D03*
X362268Y429895D03*
X362268Y455295D03*
X362268Y480695D03*
X362268Y506095D03*
X362268Y531495D03*
X362268Y556895D03*
X362268Y582295D03*
X362268Y607695D03*
X286068Y607695D03*
X286068Y582295D03*
X286068Y556895D03*
X286068Y531495D03*
X286068Y506095D03*
X286068Y480695D03*
X286068Y455295D03*
X286068Y429895D03*
X286068Y404495D03*
X286068Y379095D03*
D15*
X-200420Y-41910D03*
X-185660Y-41910D03*
D16*
X201676Y794170D03*
X187960Y819570D03*
X174244Y794170D03*
X160528Y819570D03*
X146812Y794170D03*
X133096Y819570D03*
X119380Y794170D03*
X105664Y819570D03*
X92202Y794170D03*
D17*
X271780Y806870D03*
X21844Y806870D03*
D16*
X-140018Y794043D03*
X-153734Y819443D03*
X-167450Y794043D03*
X-181166Y819443D03*
X-194882Y794043D03*
X-208598Y819443D03*
X-222314Y794043D03*
X-236030Y819443D03*
X-249492Y794043D03*
D17*
X-69914Y806743D03*
X-319850Y806743D03*
D18*
X211773Y363855D02*
X362268Y363855D01*
D19*
X-260350Y377508D03*
X211773Y363855D03*
D18*
X362268Y363855D02*
X362268Y379095D01*
X-260350Y377508D02*
X-260350Y-41910D01*
X-234950Y-41910D02*
X-200420Y-41910D01*
D20*
X280670Y-659130D03*
D10*
X255270Y-659130D01*
X255270Y-706120D01*
X280670Y-706120D02*
X280670Y-659130D01*
D20*
X-200978Y348615D03*
D10*
X-200738Y-41593D02*
X-200420Y-41910D01*
X-200738Y348375D02*
X-200978Y348615D01*
X-200738Y348375D02*
X-200738Y-41593D01*
X-200420Y-41910D02*
X-200420Y-185420D01*
X-200660Y-185420D01*
D20*
X-200660Y-185420D03*
D18*
X-260350Y-67310D02*
X-457518Y-67310D01*
X-457518Y429895D02*
X-436563Y429895D01*
X-457518Y429895D02*
X-457518Y-67310D01*
X-470853Y-92710D02*
X-260350Y-92710D01*
X-470853Y-92710D02*
X-470853Y455295D01*
X-436563Y455295D01*
X-485458Y-118110D02*
X-260350Y-118110D01*
X-485458Y-118110D02*
X-485458Y531495D01*
X-436563Y531495D01*
X-500698Y-194310D02*
X-260350Y-194310D01*
X-500698Y-194310D02*
X-500698Y558165D01*
X-437833Y558165D01*
X-436563Y556895D01*
D19*
X-349250Y-41275D03*
D18*
X-360363Y556895D02*
X-323533Y556895D01*
X-323533Y-15558D01*
X-349250Y-41275D01*
D19*
X-351790Y-219710D03*
D18*
X-260350Y-219710D01*
X-260350Y-245110D02*
X-366395Y-245110D01*
D19*
X-366395Y-40958D03*
D18*
X-360363Y531495D02*
X-338138Y531495D01*
X-338138Y-12700D01*
X-366395Y-40958D01*
D19*
X-366395Y-245110D03*
X-332423Y-42228D03*
D18*
X-309563Y-19368D02*
X-309563Y531495D01*
X-309563Y-19368D02*
X-332423Y-42228D01*
X-309563Y531495D02*
X286068Y531495D01*
X-234950Y-194310D02*
X-224155Y-205105D01*
X-131763Y-205105D01*
D19*
X-131763Y508635D03*
D18*
X-131763Y-205105D01*
X-131763Y556895D02*
X286068Y556895D01*
D19*
X-131763Y556895D03*
D18*
X-117793Y-219710D02*
X-234950Y-219710D01*
X-117793Y-219710D02*
X-117793Y455295D01*
X286068Y455295D01*
X-104458Y429895D02*
X-104458Y-245110D01*
X-234950Y-245110D01*
X-104458Y429895D02*
X286068Y429895D01*
X171450Y-92710D02*
X144145Y-92710D01*
X144145Y398780D01*
D19*
X144145Y398780D03*
X125095Y6350D03*
X124778Y399415D03*
D18*
X125095Y399098D02*
X125095Y6350D01*
X125095Y399098D02*
X124778Y399415D01*
X196850Y-219710D02*
X475933Y-219710D01*
X475933Y559435D01*
X364808Y559435D01*
X362268Y556895D01*
X463868Y-194310D02*
X196850Y-194310D01*
X463868Y-194310D02*
X463868Y455295D01*
X362268Y455295D01*
X451168Y-168910D02*
X196850Y-168910D01*
X451168Y-168910D02*
X451168Y429895D01*
X362268Y429895D01*
D10*
X26670Y-245110D02*
X26670Y-704850D01*
D20*
X26670Y-245110D03*
D10*
X52070Y-262890D02*
X52070Y-168910D01*
X52070Y-262890D02*
X52070Y-705866D01*
D20*
X52070Y-168910D03*
X77724Y-219710D03*
D10*
X77724Y-707136D01*
D20*
X102870Y-143510D03*
D10*
X102870Y-707390D01*
D20*
X369570Y111443D03*
D10*
X428308Y111443D01*
X428625Y111760D01*
D20*
X428625Y111760D03*
X128270Y-655320D03*
D10*
X128270Y-707390D01*
D19*
X-174562Y-30798D03*
X-174625Y-53023D03*
D18*
X-174562Y-30812D02*
X-174562Y-30798D01*
X-174562Y-30812D02*
X-185660Y-41910D01*
X-185343Y-42228D01*
X-185343Y-42305D02*
X-174625Y-53023D01*
X-185343Y-42305D02*
X-185343Y-42228D01*
X-436563Y582295D02*
X-458153Y582295D01*
X-458153Y850519D02*
X-236030Y850519D01*
X-236030Y819443D01*
X-458153Y850519D02*
X-458153Y582295D01*
X-436563Y506095D02*
X-423863Y506095D01*
D19*
X-427038Y705485D03*
D18*
X-423863Y702310D01*
X-423863Y506095D01*
X-435928Y481330D02*
X-436563Y480695D01*
X-435928Y481330D02*
X-413576Y481330D01*
D19*
X-416878Y720090D03*
D18*
X-413576Y716788D01*
X-413576Y481330D01*
X-403289Y404495D02*
X-436563Y404495D01*
D19*
X-208598Y836295D03*
D18*
X-208598Y819443D01*
D19*
X-257493Y836295D03*
D18*
X-403289Y836295D02*
X-403289Y404495D01*
X-403289Y836295D02*
X-257493Y836295D01*
X-360363Y404495D02*
X-393637Y404495D01*
X-393637Y692785D02*
X-167958Y692785D01*
X-167958Y793535D01*
X-167450Y794043D01*
X-393637Y692785D02*
X-393637Y404495D01*
X-382715Y480695D02*
X-382715Y682813D01*
X-382715Y480695D02*
X-360363Y480695D01*
X-382715Y682813D02*
X-140018Y682813D01*
X-140018Y794043D01*
X-360363Y506095D02*
X-372428Y506095D01*
X-372428Y672465D01*
X-22225Y672465D01*
X-22225Y859409D01*
D19*
X93853Y859409D03*
D18*
X-22225Y859409D01*
X-345758Y582295D02*
X-360363Y582295D01*
X-345758Y582295D02*
X-345758Y661480D01*
X-7938Y661480D01*
X-7938Y846011D01*
D19*
X93917Y846011D03*
D18*
X-7938Y846011D01*
X119380Y582295D02*
X286068Y582295D01*
X119380Y582295D02*
X119380Y794170D01*
X286068Y506095D02*
X300482Y506095D01*
X300482Y737302D01*
X300419Y737239D01*
X300419Y837121D01*
X187960Y836295D02*
X187960Y819570D01*
X187960Y836295D02*
X188786Y837121D01*
X300419Y837121D01*
X310452Y480695D02*
X286068Y480695D01*
X310452Y480695D02*
X310452Y848868D01*
D19*
X239332Y848868D03*
D18*
X310452Y848868D01*
X320104Y404495D02*
X286068Y404495D01*
X320104Y404495D02*
X320104Y860362D01*
D19*
X225362Y860362D03*
D18*
X320104Y860362D01*
X362268Y404495D02*
X361633Y403860D01*
X329756Y403860D01*
X329756Y873125D01*
D19*
X120968Y873760D03*
X94298Y873125D03*
D18*
X121603Y873125D02*
X329756Y873125D01*
X121603Y873125D02*
X120968Y873760D01*
X94298Y873125D02*
X-153734Y873125D01*
X-153734Y819443D01*
X339408Y480695D02*
X362268Y480695D01*
D19*
X120968Y887730D03*
D18*
X338773Y887730D02*
X339408Y887095D01*
X338773Y887730D02*
X120968Y887730D01*
X339408Y887095D02*
X339408Y480695D01*
D19*
X94298Y887730D03*
D18*
X-181166Y887730D01*
X-181166Y819443D01*
X349568Y506095D02*
X362268Y506095D01*
X349568Y506095D02*
X349568Y901827D01*
D19*
X120968Y901700D03*
D18*
X122238Y901700D02*
X122365Y901827D01*
X122238Y901700D02*
X120968Y901700D01*
X122365Y901827D02*
X349568Y901827D01*
X362268Y582295D02*
X380048Y582295D01*
X380048Y914654D02*
X106998Y914654D01*
X106998Y820904D01*
X105664Y819570D01*
X380048Y914654D02*
X380048Y582295D01*
M02*
