M48
;GenerationSoftware,Autodesk,EAGLE,9.6.2*%
;CreationDate,2021-07-29T21:08:28Z*%
FMAT,2
ICI,OFF
METRIC,TZ,000.000
T5C0.650
T4C0.787
T3C1.000
T2C1.143
T1C3.353
%
G90
M71
T1
X-31985Y80674
X-6991Y80674
X2184Y80687
X27178Y80687
T2
X-24949Y79404
X-23603Y81944
X-22231Y79404
X-20860Y81944
X-19488Y79404
X-18117Y81944
X-16745Y79404
X-15373Y81944
X-14002Y79404
X9220Y79417
X10566Y81957
X11938Y79417
X13310Y81957
X14681Y79417
X16053Y81957
X17424Y79417
X18796Y81957
X20168Y79417
T3
X19685Y-19431
X19685Y-16891
X28067Y-65913
X-20098Y34862
X-20066Y-18542
X2667Y-24511
X5207Y-16891
X7772Y-21971
X10287Y-14351
X36957Y11144
X42863Y11176
X12827Y-65532
X17145Y-27051
X19685Y-27051
X17145Y-24511
X-23495Y-4191
X-26035Y-4191
X-23495Y-6731
X-26035Y-6731
X-23495Y-9271
X-26035Y-9271
X-23495Y-11811
X-26035Y-11811
X-23495Y-14351
X-26035Y-14351
X-23495Y-16891
X-26035Y-16891
X-23495Y-19431
X-26035Y-19431
X-23495Y-21971
X-26035Y-21971
X-23495Y-24511
X-26035Y-24511
X-23495Y-27051
X-26035Y-27051
X19685Y-4191
X17145Y-4191
X19685Y-6731
X17145Y-6731
X19685Y-9271
X17145Y-9271
X19685Y-11811
X17145Y-11811
X19685Y-14351
X17145Y-14351
X19685Y-24511
X17145Y-16891
X17145Y-21971
X17145Y-19431
X19685Y-21971
T4
X28607Y45529
X-36036Y48069
X28607Y42990
X28607Y40450
X28607Y37910
X-36036Y37910
X-36036Y40450
X-36036Y42990
X-36036Y45529
X28607Y48069
X-36036Y50609
X-36036Y53149
X-36036Y55689
X-36036Y58229
X-36036Y60769
X-43656Y60769
X-43656Y58229
X-43656Y55689
X-43656Y53149
X-43656Y50609
X-43656Y48069
X-43656Y45529
X-43656Y42990
X-43656Y40450
X-43656Y37910
X36227Y37910
X36227Y40450
X36227Y42990
X36227Y45529
X36227Y48069
X36227Y50609
X36227Y53149
X36227Y55689
X36227Y58229
X36227Y60769
X28607Y60769
X28607Y58229
X28607Y55689
X28607Y53149
X28607Y50609
T5
X-17463Y-5302
X-17456Y-3080
X12097Y90170
X9430Y88773
X12097Y88773
X9430Y87313
X12097Y87376
X22536Y86036
X23933Y84887
X9392Y84601
X9385Y85941
X-25749Y83630
X12478Y39942
X12509Y635
X14414Y39878
X-13176Y55689
X-13176Y50863
X-33242Y-4223
X-36640Y-24511
X-36640Y-4096
X-35179Y-21971
X-34925Y-4128
X-20860Y83630
X-41688Y72009
X-42704Y70549
X21177Y36386
X-26035Y37751
M30