G04 EAGLE Gerber RS-274X export*
G75*
%MOMM*%
%FSLAX34Y34*%
%LPD*%
%INSilkscreen Top*%
%IPPOS*%
%AMOC8*
5,1,8,0,0,1.08239X$1,22.5*%
G01*
%ADD10R,0.050800X1.016000*%
%ADD11R,0.050800X1.066800*%
%ADD12R,0.050800X0.355600*%
%ADD13R,0.050800X0.152400*%
%ADD14R,0.050800X0.863600*%
%ADD15R,0.050800X1.168400*%
%ADD16R,0.050800X1.371600*%
%ADD17R,0.050800X0.304800*%
%ADD18R,0.050800X1.574800*%
%ADD19R,0.050800X1.778000*%
%ADD20R,0.050800X1.930400*%
%ADD21R,0.050800X2.387600*%
%ADD22R,0.050800X0.050800*%
%ADD23R,0.050800X0.914400*%
%ADD24R,0.050800X0.762000*%
%ADD25R,0.050800X0.711200*%
%ADD26R,0.050800X0.660400*%
%ADD27R,0.050800X0.203200*%
%ADD28R,0.050800X0.558800*%
%ADD29R,0.050800X0.609600*%
%ADD30R,0.050800X0.508000*%
%ADD31R,0.050800X0.406400*%
%ADD32R,0.050800X0.254000*%
%ADD33R,0.050800X0.457200*%
%ADD34R,0.050800X2.692400*%
%ADD35R,0.050800X1.219200*%
%ADD36R,0.050800X1.422400*%
%ADD37R,0.050800X0.812800*%
%ADD38R,0.050800X0.965200*%
%ADD39R,0.050800X1.828800*%
%ADD40R,0.050800X1.879600*%
%ADD41R,0.050800X1.727200*%
%ADD42R,0.050800X1.981200*%
%ADD43R,0.050800X2.032000*%
%ADD44R,0.050800X2.133600*%
%ADD45R,0.050800X1.117600*%
%ADD46R,0.050800X0.101600*%
%ADD47R,0.050800X1.320800*%
%ADD48R,0.050800X1.270000*%
%ADD49C,0.152400*%
%ADD50C,0.203200*%
%ADD51C,0.076200*%
%ADD52C,0.101600*%
%ADD53C,0.050800*%
%ADD54C,0.508000*%


D10*
X531114Y-668020D03*
D11*
X530606Y-667766D03*
X530098Y-667766D03*
X529590Y-667766D03*
X529082Y-667766D03*
X528574Y-667766D03*
X528066Y-667766D03*
D12*
X527558Y-667766D03*
X527050Y-667766D03*
D13*
X526542Y-686562D03*
D12*
X526542Y-667766D03*
D14*
X526034Y-686562D03*
D12*
X526034Y-667766D03*
D15*
X525526Y-686562D03*
D12*
X525526Y-667766D03*
D16*
X525018Y-686562D03*
D17*
X525018Y-674624D03*
D12*
X525018Y-667766D03*
D18*
X524510Y-686562D03*
D12*
X524510Y-674878D03*
X524510Y-667766D03*
D19*
X524002Y-686562D03*
D12*
X524002Y-674878D03*
X524002Y-667766D03*
D20*
X523494Y-686816D03*
D12*
X523494Y-674878D03*
X523494Y-667766D03*
D21*
X522986Y-685038D03*
D12*
X522986Y-667766D03*
D22*
X522986Y-646430D03*
D23*
X522478Y-692912D03*
X522478Y-677672D03*
D12*
X522478Y-667766D03*
D22*
X522478Y-645922D03*
D24*
X521970Y-694182D03*
X521970Y-676910D03*
D12*
X521970Y-667766D03*
D13*
X521970Y-645414D03*
D25*
X521462Y-694944D03*
D26*
X521462Y-676402D03*
D12*
X521462Y-667766D03*
D27*
X521462Y-644652D03*
D25*
X520954Y-695452D03*
D28*
X520954Y-675894D03*
D12*
X520954Y-667766D03*
D27*
X520954Y-644144D03*
D29*
X520446Y-695960D03*
D30*
X520446Y-675640D03*
D12*
X520446Y-667766D03*
D17*
X520446Y-643636D03*
D29*
X519938Y-696468D03*
D31*
X519938Y-675132D03*
D12*
X519938Y-667766D03*
D17*
X519938Y-643128D03*
D29*
X519430Y-696976D03*
D12*
X519430Y-674878D03*
X519430Y-667766D03*
D17*
X519430Y-642620D03*
D28*
X518922Y-697230D03*
D32*
X518922Y-680466D03*
D12*
X518922Y-674878D03*
X518922Y-667766D03*
D27*
X518922Y-655828D03*
D31*
X518922Y-642112D03*
D28*
X518414Y-697230D03*
D32*
X518414Y-680466D03*
D12*
X518414Y-674878D03*
X518414Y-667766D03*
D32*
X518414Y-656082D03*
D31*
X518414Y-641604D03*
D28*
X517906Y-697738D03*
D32*
X517906Y-680466D03*
D12*
X517906Y-674878D03*
X517906Y-667766D03*
D32*
X517906Y-656082D03*
D33*
X517906Y-641350D03*
D30*
X517398Y-697992D03*
D32*
X517398Y-680466D03*
D12*
X517398Y-674878D03*
X517398Y-667766D03*
D32*
X517398Y-656082D03*
D31*
X517398Y-641096D03*
D30*
X516890Y-697992D03*
D32*
X516890Y-680466D03*
D12*
X516890Y-674878D03*
X516890Y-667766D03*
D32*
X516890Y-656082D03*
X516890Y-641858D03*
D30*
X516382Y-697992D03*
D34*
X516382Y-668274D03*
D13*
X516382Y-642366D03*
D28*
X515874Y-698246D03*
D34*
X515874Y-668274D03*
D28*
X515366Y-698246D03*
D34*
X515366Y-668274D03*
D28*
X514858Y-698246D03*
D34*
X514858Y-668274D03*
D28*
X514350Y-698246D03*
D34*
X514350Y-668274D03*
D30*
X513842Y-697992D03*
D34*
X513842Y-668274D03*
D30*
X513334Y-697992D03*
D34*
X513334Y-668274D03*
D30*
X512826Y-697992D03*
D28*
X512318Y-697738D03*
D30*
X511810Y-697484D03*
D28*
X511302Y-697230D03*
X510794Y-696722D03*
X510286Y-696722D03*
D12*
X510286Y-674878D03*
D29*
X509778Y-695960D03*
D31*
X509778Y-675132D03*
D33*
X509778Y-633730D03*
D29*
X509270Y-695452D03*
D30*
X509270Y-675640D03*
D23*
X509270Y-633476D03*
D26*
X508762Y-695198D03*
D28*
X508762Y-675894D03*
D35*
X508762Y-633476D03*
D25*
X508254Y-694436D03*
X508254Y-676656D03*
D36*
X508254Y-633476D03*
D37*
X507746Y-693420D03*
X507746Y-677164D03*
D18*
X507746Y-633222D03*
D38*
X507238Y-692150D03*
D25*
X507238Y-680212D03*
D17*
X507238Y-674624D03*
D19*
X507238Y-633222D03*
D39*
X506730Y-686816D03*
D17*
X506730Y-674624D03*
D40*
X506730Y-633222D03*
D41*
X506222Y-686816D03*
D17*
X506222Y-674624D03*
D42*
X506222Y-633222D03*
D18*
X505714Y-686562D03*
D17*
X505714Y-674624D03*
D43*
X505714Y-632968D03*
D16*
X505206Y-686562D03*
D17*
X505206Y-674624D03*
D44*
X505206Y-632968D03*
D45*
X504698Y-686308D03*
D17*
X504698Y-674624D03*
D44*
X504698Y-632968D03*
D24*
X504190Y-686562D03*
D17*
X504190Y-674624D03*
D10*
X504190Y-639064D03*
D37*
X504190Y-625856D03*
X503682Y-640080D03*
D29*
X503682Y-624840D03*
D26*
X503174Y-640842D03*
D33*
X503174Y-624078D03*
D28*
X502666Y-641350D03*
D31*
X502666Y-623316D03*
D33*
X502158Y-641858D03*
D17*
X502158Y-622808D03*
D31*
X501650Y-642112D03*
D32*
X501650Y-622554D03*
D17*
X501142Y-667512D03*
X501142Y-642112D03*
D27*
X501142Y-622300D03*
D22*
X500634Y-671322D03*
D30*
X500634Y-667512D03*
D32*
X500634Y-642366D03*
D46*
X500634Y-622300D03*
D13*
X500126Y-671830D03*
D28*
X500126Y-667258D03*
D13*
X500126Y-642366D03*
X499618Y-671830D03*
D30*
X499618Y-667004D03*
D46*
X499618Y-642620D03*
D32*
X499110Y-671830D03*
D33*
X499110Y-666750D03*
D12*
X498602Y-671830D03*
D31*
X498602Y-667004D03*
D12*
X498094Y-671830D03*
D31*
X498094Y-667004D03*
X497586Y-671576D03*
D17*
X497586Y-667004D03*
D31*
X497078Y-671576D03*
D33*
X497078Y-666750D03*
D12*
X496570Y-671830D03*
D30*
X496570Y-666496D03*
D31*
X496570Y-633984D03*
D12*
X496062Y-671830D03*
D30*
X496062Y-666496D03*
D25*
X496062Y-633984D03*
D12*
X495554Y-671830D03*
D30*
X495554Y-666496D03*
D23*
X495554Y-633984D03*
D17*
X495046Y-672084D03*
D30*
X495046Y-666496D03*
D10*
X495046Y-633984D03*
D32*
X494538Y-671830D03*
D28*
X494538Y-666750D03*
D45*
X494538Y-633984D03*
D32*
X494030Y-671830D03*
D26*
X494030Y-666242D03*
D35*
X494030Y-633984D03*
D27*
X493522Y-671576D03*
D25*
X493522Y-665988D03*
D47*
X493522Y-633984D03*
D13*
X493014Y-671322D03*
D26*
X493014Y-665734D03*
D36*
X493014Y-633984D03*
D46*
X492506Y-670560D03*
D17*
X492506Y-667004D03*
D16*
X492506Y-633730D03*
D11*
X491998Y-631698D03*
D17*
X491490Y-662940D03*
D14*
X491490Y-630682D03*
D27*
X490982Y-682752D03*
D29*
X490982Y-664464D03*
D37*
X490982Y-629920D03*
D33*
X490474Y-681990D03*
D30*
X490474Y-663956D03*
D25*
X490474Y-629412D03*
D28*
X489966Y-681482D03*
D12*
X489966Y-663194D03*
D26*
X489966Y-629158D03*
X489458Y-680974D03*
D46*
X489458Y-661924D03*
D29*
X489458Y-628904D03*
D24*
X488950Y-680466D03*
D29*
X488950Y-628396D03*
D14*
X488442Y-679958D03*
D28*
X488442Y-670814D03*
X488442Y-628142D03*
D23*
X487934Y-679704D03*
D25*
X487934Y-669544D03*
D30*
X487934Y-627888D03*
D22*
X487426Y-686054D03*
D38*
X487426Y-679450D03*
D37*
X487426Y-668528D03*
D33*
X487426Y-627634D03*
D22*
X486918Y-686054D03*
D11*
X486918Y-678942D03*
D14*
X486918Y-667766D03*
D12*
X486918Y-627634D03*
D46*
X486410Y-686308D03*
D45*
X486410Y-678688D03*
D23*
X486410Y-666496D03*
D12*
X486410Y-627634D03*
D46*
X485902Y-686308D03*
D15*
X485902Y-678434D03*
D38*
X485902Y-665734D03*
D17*
X485902Y-627380D03*
D46*
X485394Y-686308D03*
D48*
X485394Y-677926D03*
D38*
X485394Y-665226D03*
D17*
X485394Y-627380D03*
D46*
X484886Y-686308D03*
D47*
X484886Y-677672D03*
D38*
X484886Y-664210D03*
D32*
X484886Y-627634D03*
D13*
X484378Y-686562D03*
D16*
X484378Y-677418D03*
D10*
X484378Y-663448D03*
D27*
X484378Y-627380D03*
D49*
X222250Y-397510D02*
X-285750Y-397510D01*
X222250Y-397510D02*
X222250Y262890D01*
X-285750Y262890D01*
X-285750Y-397510D01*
X-271949Y-9596D02*
X-271949Y3048D01*
X-271950Y-9596D02*
X-271952Y-9714D01*
X-271958Y-9832D01*
X-271967Y-9950D01*
X-271981Y-10067D01*
X-271998Y-10184D01*
X-272019Y-10301D01*
X-272044Y-10416D01*
X-272073Y-10531D01*
X-272106Y-10645D01*
X-272142Y-10757D01*
X-272182Y-10868D01*
X-272225Y-10978D01*
X-272272Y-11087D01*
X-272322Y-11194D01*
X-272377Y-11299D01*
X-272434Y-11402D01*
X-272495Y-11503D01*
X-272559Y-11603D01*
X-272626Y-11700D01*
X-272696Y-11795D01*
X-272770Y-11887D01*
X-272846Y-11978D01*
X-272926Y-12065D01*
X-273008Y-12150D01*
X-273093Y-12232D01*
X-273180Y-12312D01*
X-273271Y-12388D01*
X-273363Y-12462D01*
X-273458Y-12532D01*
X-273555Y-12599D01*
X-273655Y-12663D01*
X-273756Y-12724D01*
X-273859Y-12781D01*
X-273964Y-12836D01*
X-274071Y-12886D01*
X-274180Y-12933D01*
X-274290Y-12976D01*
X-274401Y-13016D01*
X-274513Y-13052D01*
X-274627Y-13085D01*
X-274742Y-13114D01*
X-274857Y-13139D01*
X-274974Y-13160D01*
X-275091Y-13177D01*
X-275208Y-13191D01*
X-275326Y-13200D01*
X-275444Y-13206D01*
X-275562Y-13208D01*
X-277368Y-13208D01*
X-264882Y-564D02*
X-260367Y3048D01*
X-260367Y-13208D01*
X-264882Y-13208D02*
X-255851Y-13208D01*
X-249911Y-15014D02*
X-242686Y-15014D01*
X-237406Y-15014D02*
X-230181Y-15014D01*
X-220366Y-9596D02*
X-220366Y3048D01*
X-220367Y-9596D02*
X-220369Y-9714D01*
X-220375Y-9832D01*
X-220384Y-9950D01*
X-220398Y-10067D01*
X-220415Y-10184D01*
X-220436Y-10301D01*
X-220461Y-10416D01*
X-220490Y-10531D01*
X-220523Y-10645D01*
X-220559Y-10757D01*
X-220599Y-10868D01*
X-220642Y-10978D01*
X-220689Y-11087D01*
X-220739Y-11194D01*
X-220794Y-11299D01*
X-220851Y-11402D01*
X-220912Y-11503D01*
X-220976Y-11603D01*
X-221043Y-11700D01*
X-221113Y-11795D01*
X-221187Y-11887D01*
X-221263Y-11978D01*
X-221343Y-12065D01*
X-221425Y-12150D01*
X-221510Y-12232D01*
X-221597Y-12312D01*
X-221688Y-12388D01*
X-221780Y-12462D01*
X-221875Y-12532D01*
X-221972Y-12599D01*
X-222072Y-12663D01*
X-222173Y-12724D01*
X-222276Y-12781D01*
X-222381Y-12836D01*
X-222488Y-12886D01*
X-222597Y-12933D01*
X-222707Y-12976D01*
X-222818Y-13016D01*
X-222930Y-13052D01*
X-223044Y-13085D01*
X-223159Y-13114D01*
X-223274Y-13139D01*
X-223391Y-13160D01*
X-223508Y-13177D01*
X-223625Y-13191D01*
X-223743Y-13200D01*
X-223861Y-13206D01*
X-223979Y-13208D01*
X-225785Y-13208D01*
X-213299Y-13208D02*
X-208784Y-13208D01*
X-208651Y-13206D01*
X-208519Y-13200D01*
X-208387Y-13190D01*
X-208255Y-13177D01*
X-208123Y-13159D01*
X-207993Y-13138D01*
X-207862Y-13113D01*
X-207733Y-13084D01*
X-207605Y-13051D01*
X-207477Y-13015D01*
X-207351Y-12975D01*
X-207226Y-12931D01*
X-207102Y-12883D01*
X-206980Y-12832D01*
X-206859Y-12777D01*
X-206740Y-12719D01*
X-206622Y-12657D01*
X-206507Y-12592D01*
X-206393Y-12523D01*
X-206282Y-12452D01*
X-206173Y-12376D01*
X-206066Y-12298D01*
X-205961Y-12217D01*
X-205859Y-12132D01*
X-205759Y-12045D01*
X-205662Y-11955D01*
X-205567Y-11862D01*
X-205476Y-11766D01*
X-205387Y-11668D01*
X-205301Y-11567D01*
X-205218Y-11463D01*
X-205138Y-11357D01*
X-205062Y-11249D01*
X-204988Y-11139D01*
X-204918Y-11026D01*
X-204851Y-10912D01*
X-204788Y-10795D01*
X-204728Y-10677D01*
X-204671Y-10557D01*
X-204618Y-10435D01*
X-204569Y-10312D01*
X-204523Y-10188D01*
X-204481Y-10062D01*
X-204443Y-9935D01*
X-204408Y-9807D01*
X-204377Y-9678D01*
X-204350Y-9549D01*
X-204327Y-9418D01*
X-204307Y-9287D01*
X-204292Y-9155D01*
X-204280Y-9023D01*
X-204272Y-8891D01*
X-204268Y-8758D01*
X-204268Y-8626D01*
X-204272Y-8493D01*
X-204280Y-8361D01*
X-204292Y-8229D01*
X-204307Y-8097D01*
X-204327Y-7966D01*
X-204350Y-7835D01*
X-204377Y-7706D01*
X-204408Y-7577D01*
X-204443Y-7449D01*
X-204481Y-7322D01*
X-204523Y-7196D01*
X-204569Y-7072D01*
X-204618Y-6949D01*
X-204671Y-6827D01*
X-204728Y-6707D01*
X-204788Y-6589D01*
X-204851Y-6472D01*
X-204918Y-6358D01*
X-204988Y-6245D01*
X-205062Y-6135D01*
X-205138Y-6027D01*
X-205218Y-5921D01*
X-205301Y-5817D01*
X-205387Y-5716D01*
X-205476Y-5618D01*
X-205567Y-5522D01*
X-205662Y-5429D01*
X-205759Y-5339D01*
X-205859Y-5252D01*
X-205961Y-5167D01*
X-206066Y-5086D01*
X-206173Y-5008D01*
X-206282Y-4932D01*
X-206393Y-4861D01*
X-206507Y-4792D01*
X-206622Y-4727D01*
X-206740Y-4665D01*
X-206859Y-4607D01*
X-206980Y-4552D01*
X-207102Y-4501D01*
X-207226Y-4453D01*
X-207351Y-4409D01*
X-207477Y-4369D01*
X-207605Y-4333D01*
X-207733Y-4300D01*
X-207862Y-4271D01*
X-207993Y-4246D01*
X-208123Y-4225D01*
X-208255Y-4207D01*
X-208387Y-4194D01*
X-208519Y-4184D01*
X-208651Y-4178D01*
X-208784Y-4176D01*
X-207881Y3048D02*
X-213299Y3048D01*
X-207881Y3048D02*
X-207762Y3046D01*
X-207642Y3040D01*
X-207523Y3030D01*
X-207405Y3016D01*
X-207286Y2999D01*
X-207169Y2977D01*
X-207052Y2952D01*
X-206937Y2922D01*
X-206822Y2889D01*
X-206708Y2852D01*
X-206596Y2812D01*
X-206485Y2767D01*
X-206376Y2719D01*
X-206268Y2668D01*
X-206162Y2613D01*
X-206058Y2554D01*
X-205956Y2492D01*
X-205856Y2427D01*
X-205758Y2358D01*
X-205662Y2286D01*
X-205569Y2211D01*
X-205479Y2134D01*
X-205391Y2053D01*
X-205306Y1969D01*
X-205224Y1882D01*
X-205144Y1793D01*
X-205068Y1701D01*
X-204994Y1607D01*
X-204924Y1510D01*
X-204857Y1412D01*
X-204793Y1311D01*
X-204733Y1207D01*
X-204676Y1102D01*
X-204623Y995D01*
X-204573Y887D01*
X-204527Y777D01*
X-204485Y665D01*
X-204446Y552D01*
X-204411Y438D01*
X-204380Y323D01*
X-204352Y206D01*
X-204329Y89D01*
X-204309Y-28D01*
X-204293Y-147D01*
X-204281Y-266D01*
X-204273Y-385D01*
X-204269Y-504D01*
X-204269Y-624D01*
X-204273Y-743D01*
X-204281Y-862D01*
X-204293Y-981D01*
X-204309Y-1100D01*
X-204329Y-1217D01*
X-204352Y-1334D01*
X-204380Y-1451D01*
X-204411Y-1566D01*
X-204446Y-1680D01*
X-204485Y-1793D01*
X-204527Y-1905D01*
X-204573Y-2015D01*
X-204623Y-2123D01*
X-204676Y-2230D01*
X-204733Y-2335D01*
X-204793Y-2439D01*
X-204857Y-2540D01*
X-204924Y-2638D01*
X-204994Y-2735D01*
X-205068Y-2829D01*
X-205144Y-2921D01*
X-205224Y-3010D01*
X-205306Y-3097D01*
X-205391Y-3181D01*
X-205479Y-3262D01*
X-205569Y-3339D01*
X-205662Y-3414D01*
X-205758Y-3486D01*
X-205856Y-3555D01*
X-205956Y-3620D01*
X-206058Y-3682D01*
X-206162Y-3741D01*
X-206268Y-3796D01*
X-206376Y-3847D01*
X-206485Y-3895D01*
X-206596Y-3940D01*
X-206708Y-3980D01*
X-206822Y-4017D01*
X-206937Y-4050D01*
X-207052Y-4080D01*
X-207169Y-4105D01*
X-207286Y-4127D01*
X-207405Y-4144D01*
X-207523Y-4158D01*
X-207642Y-4168D01*
X-207762Y-4174D01*
X-207881Y-4176D01*
X-207881Y-4177D02*
X-211493Y-4177D01*
X147151Y-9596D02*
X147151Y3048D01*
X147150Y-9596D02*
X147148Y-9714D01*
X147142Y-9832D01*
X147133Y-9950D01*
X147119Y-10067D01*
X147102Y-10184D01*
X147081Y-10301D01*
X147056Y-10416D01*
X147027Y-10531D01*
X146994Y-10645D01*
X146958Y-10757D01*
X146918Y-10868D01*
X146875Y-10978D01*
X146828Y-11087D01*
X146778Y-11194D01*
X146723Y-11299D01*
X146666Y-11402D01*
X146605Y-11503D01*
X146541Y-11603D01*
X146474Y-11700D01*
X146404Y-11795D01*
X146330Y-11887D01*
X146254Y-11978D01*
X146174Y-12065D01*
X146092Y-12150D01*
X146007Y-12232D01*
X145920Y-12312D01*
X145829Y-12388D01*
X145737Y-12462D01*
X145642Y-12532D01*
X145545Y-12599D01*
X145445Y-12663D01*
X145344Y-12724D01*
X145241Y-12781D01*
X145136Y-12836D01*
X145029Y-12886D01*
X144920Y-12933D01*
X144810Y-12976D01*
X144699Y-13016D01*
X144587Y-13052D01*
X144473Y-13085D01*
X144358Y-13114D01*
X144243Y-13139D01*
X144126Y-13160D01*
X144009Y-13177D01*
X143892Y-13191D01*
X143774Y-13200D01*
X143656Y-13206D01*
X143538Y-13208D01*
X141732Y-13208D01*
X154218Y-9596D02*
X157830Y3048D01*
X154218Y-9596D02*
X163249Y-9596D01*
X160539Y-13208D02*
X160539Y-5983D01*
X169189Y-15014D02*
X176414Y-15014D01*
X181694Y-15014D02*
X188919Y-15014D01*
X198734Y-9596D02*
X198734Y3048D01*
X198733Y-9596D02*
X198731Y-9714D01*
X198725Y-9832D01*
X198716Y-9950D01*
X198702Y-10067D01*
X198685Y-10184D01*
X198664Y-10301D01*
X198639Y-10416D01*
X198610Y-10531D01*
X198577Y-10645D01*
X198541Y-10757D01*
X198501Y-10868D01*
X198458Y-10978D01*
X198411Y-11087D01*
X198361Y-11194D01*
X198306Y-11299D01*
X198249Y-11402D01*
X198188Y-11503D01*
X198124Y-11603D01*
X198057Y-11700D01*
X197987Y-11795D01*
X197913Y-11887D01*
X197837Y-11978D01*
X197757Y-12065D01*
X197675Y-12150D01*
X197590Y-12232D01*
X197503Y-12312D01*
X197412Y-12388D01*
X197320Y-12462D01*
X197225Y-12532D01*
X197128Y-12599D01*
X197028Y-12663D01*
X196927Y-12724D01*
X196824Y-12781D01*
X196719Y-12836D01*
X196612Y-12886D01*
X196503Y-12933D01*
X196393Y-12976D01*
X196282Y-13016D01*
X196170Y-13052D01*
X196056Y-13085D01*
X195941Y-13114D01*
X195826Y-13139D01*
X195709Y-13160D01*
X195592Y-13177D01*
X195475Y-13191D01*
X195357Y-13200D01*
X195239Y-13206D01*
X195121Y-13208D01*
X193315Y-13208D01*
X210768Y3048D02*
X210893Y3046D01*
X211018Y3040D01*
X211143Y3031D01*
X211267Y3017D01*
X211391Y3000D01*
X211515Y2979D01*
X211637Y2954D01*
X211759Y2925D01*
X211880Y2893D01*
X212000Y2857D01*
X212119Y2817D01*
X212236Y2774D01*
X212352Y2727D01*
X212467Y2676D01*
X212579Y2622D01*
X212691Y2564D01*
X212800Y2504D01*
X212907Y2439D01*
X213013Y2372D01*
X213116Y2301D01*
X213217Y2227D01*
X213316Y2150D01*
X213412Y2070D01*
X213506Y1987D01*
X213597Y1902D01*
X213686Y1813D01*
X213771Y1722D01*
X213854Y1628D01*
X213934Y1532D01*
X214011Y1433D01*
X214085Y1332D01*
X214156Y1229D01*
X214223Y1123D01*
X214288Y1016D01*
X214348Y907D01*
X214406Y795D01*
X214460Y683D01*
X214511Y568D01*
X214558Y452D01*
X214601Y335D01*
X214641Y216D01*
X214677Y96D01*
X214709Y-25D01*
X214738Y-147D01*
X214763Y-269D01*
X214784Y-393D01*
X214801Y-517D01*
X214815Y-641D01*
X214824Y-766D01*
X214830Y-891D01*
X214832Y-1016D01*
X210768Y3048D02*
X210625Y3046D01*
X210483Y3040D01*
X210340Y3030D01*
X210198Y3017D01*
X210057Y2999D01*
X209915Y2978D01*
X209775Y2953D01*
X209635Y2924D01*
X209496Y2891D01*
X209358Y2854D01*
X209221Y2814D01*
X209086Y2770D01*
X208951Y2722D01*
X208818Y2670D01*
X208686Y2615D01*
X208556Y2556D01*
X208428Y2494D01*
X208301Y2428D01*
X208176Y2359D01*
X208053Y2287D01*
X207933Y2211D01*
X207814Y2132D01*
X207697Y2049D01*
X207583Y1964D01*
X207471Y1875D01*
X207362Y1784D01*
X207255Y1689D01*
X207150Y1592D01*
X207049Y1491D01*
X206950Y1388D01*
X206854Y1283D01*
X206761Y1174D01*
X206671Y1063D01*
X206584Y950D01*
X206500Y835D01*
X206420Y717D01*
X206342Y597D01*
X206268Y475D01*
X206198Y351D01*
X206130Y225D01*
X206067Y97D01*
X206006Y-32D01*
X205949Y-163D01*
X205896Y-295D01*
X205847Y-429D01*
X205801Y-564D01*
X213477Y-4177D02*
X213571Y-4085D01*
X213661Y-3991D01*
X213749Y-3894D01*
X213834Y-3794D01*
X213916Y-3692D01*
X213994Y-3587D01*
X214070Y-3480D01*
X214142Y-3371D01*
X214211Y-3260D01*
X214277Y-3146D01*
X214339Y-3031D01*
X214398Y-2914D01*
X214453Y-2795D01*
X214504Y-2675D01*
X214552Y-2553D01*
X214597Y-2430D01*
X214637Y-2306D01*
X214674Y-2180D01*
X214707Y-2053D01*
X214736Y-1926D01*
X214762Y-1797D01*
X214783Y-1668D01*
X214801Y-1538D01*
X214814Y-1408D01*
X214824Y-1278D01*
X214830Y-1147D01*
X214832Y-1016D01*
X213477Y-4177D02*
X205801Y-13208D01*
X214832Y-13208D01*
D50*
X-271900Y-27920D02*
X-271900Y-284500D01*
X-271900Y-27920D02*
X-223400Y-27920D01*
X-223400Y-284500D01*
X-271900Y-284500D01*
D51*
X-217814Y-43609D02*
X-220089Y-40765D01*
X-209851Y-40765D01*
X-209851Y-43609D02*
X-209851Y-37921D01*
X-283150Y-39671D02*
X-283251Y-39673D01*
X-283351Y-39679D01*
X-283451Y-39689D01*
X-283550Y-39703D01*
X-283649Y-39720D01*
X-283748Y-39742D01*
X-283845Y-39767D01*
X-283941Y-39796D01*
X-284036Y-39829D01*
X-284130Y-39866D01*
X-284222Y-39906D01*
X-284312Y-39950D01*
X-284401Y-39997D01*
X-284488Y-40048D01*
X-284572Y-40102D01*
X-284655Y-40160D01*
X-284735Y-40221D01*
X-284813Y-40284D01*
X-284888Y-40351D01*
X-284960Y-40421D01*
X-285030Y-40493D01*
X-285097Y-40568D01*
X-285160Y-40646D01*
X-285221Y-40726D01*
X-285279Y-40809D01*
X-285333Y-40893D01*
X-285384Y-40980D01*
X-285431Y-41069D01*
X-285475Y-41159D01*
X-285515Y-41251D01*
X-285552Y-41345D01*
X-285585Y-41440D01*
X-285614Y-41536D01*
X-285639Y-41633D01*
X-285661Y-41732D01*
X-285678Y-41831D01*
X-285692Y-41930D01*
X-285702Y-42030D01*
X-285708Y-42130D01*
X-285710Y-42231D01*
X-285709Y-42231D02*
X-285707Y-42343D01*
X-285701Y-42454D01*
X-285692Y-42566D01*
X-285679Y-42677D01*
X-285662Y-42787D01*
X-285641Y-42897D01*
X-285616Y-43006D01*
X-285588Y-43114D01*
X-285556Y-43221D01*
X-285521Y-43327D01*
X-285482Y-43432D01*
X-285439Y-43535D01*
X-285393Y-43637D01*
X-285344Y-43737D01*
X-285291Y-43836D01*
X-285235Y-43932D01*
X-285175Y-44027D01*
X-285113Y-44119D01*
X-285047Y-44210D01*
X-284978Y-44298D01*
X-284906Y-44384D01*
X-284832Y-44467D01*
X-284754Y-44547D01*
X-284674Y-44625D01*
X-284592Y-44701D01*
X-284506Y-44773D01*
X-284419Y-44842D01*
X-284329Y-44909D01*
X-284237Y-44972D01*
X-284143Y-45032D01*
X-284047Y-45089D01*
X-283948Y-45143D01*
X-283849Y-45193D01*
X-283747Y-45240D01*
X-283644Y-45283D01*
X-283540Y-45323D01*
X-283434Y-45359D01*
X-281159Y-40524D02*
X-281230Y-40452D01*
X-281304Y-40383D01*
X-281380Y-40316D01*
X-281459Y-40253D01*
X-281540Y-40192D01*
X-281623Y-40134D01*
X-281708Y-40079D01*
X-281795Y-40028D01*
X-281884Y-39980D01*
X-281975Y-39935D01*
X-282067Y-39893D01*
X-282161Y-39855D01*
X-282256Y-39820D01*
X-282352Y-39789D01*
X-282450Y-39762D01*
X-282548Y-39738D01*
X-282647Y-39717D01*
X-282747Y-39701D01*
X-282847Y-39688D01*
X-282948Y-39678D01*
X-283049Y-39673D01*
X-283150Y-39671D01*
X-281159Y-40524D02*
X-275471Y-45359D01*
X-275471Y-39671D01*
D52*
X-233539Y-290068D02*
X-241328Y-301752D01*
X-233539Y-301752D02*
X-241328Y-290068D01*
X-229249Y-292664D02*
X-226004Y-290068D01*
X-226004Y-301752D01*
X-229249Y-301752D02*
X-222758Y-301752D01*
D50*
X159900Y-284500D02*
X159900Y-27920D01*
X208400Y-27920D01*
X208400Y-284500D01*
X159900Y-284500D01*
D51*
X213986Y-43609D02*
X211711Y-40765D01*
X221949Y-40765D01*
X221949Y-43609D02*
X221949Y-37921D01*
X148651Y-39671D02*
X148550Y-39673D01*
X148450Y-39679D01*
X148350Y-39689D01*
X148251Y-39703D01*
X148152Y-39720D01*
X148053Y-39742D01*
X147956Y-39767D01*
X147860Y-39796D01*
X147765Y-39829D01*
X147671Y-39866D01*
X147579Y-39906D01*
X147489Y-39950D01*
X147400Y-39997D01*
X147313Y-40048D01*
X147229Y-40102D01*
X147146Y-40160D01*
X147066Y-40221D01*
X146988Y-40284D01*
X146913Y-40351D01*
X146841Y-40421D01*
X146771Y-40493D01*
X146704Y-40568D01*
X146641Y-40646D01*
X146580Y-40726D01*
X146522Y-40809D01*
X146468Y-40893D01*
X146417Y-40980D01*
X146370Y-41069D01*
X146326Y-41159D01*
X146286Y-41251D01*
X146249Y-41345D01*
X146216Y-41440D01*
X146187Y-41536D01*
X146162Y-41633D01*
X146140Y-41732D01*
X146123Y-41831D01*
X146109Y-41930D01*
X146099Y-42030D01*
X146093Y-42130D01*
X146091Y-42231D01*
X146093Y-42343D01*
X146099Y-42454D01*
X146108Y-42566D01*
X146121Y-42677D01*
X146138Y-42787D01*
X146159Y-42897D01*
X146184Y-43006D01*
X146212Y-43114D01*
X146244Y-43221D01*
X146279Y-43327D01*
X146318Y-43432D01*
X146361Y-43535D01*
X146407Y-43637D01*
X146456Y-43737D01*
X146509Y-43836D01*
X146565Y-43932D01*
X146625Y-44027D01*
X146687Y-44119D01*
X146753Y-44210D01*
X146822Y-44298D01*
X146894Y-44384D01*
X146968Y-44467D01*
X147046Y-44547D01*
X147126Y-44625D01*
X147208Y-44701D01*
X147294Y-44773D01*
X147381Y-44842D01*
X147471Y-44909D01*
X147563Y-44972D01*
X147657Y-45032D01*
X147753Y-45089D01*
X147852Y-45143D01*
X147951Y-45193D01*
X148053Y-45240D01*
X148156Y-45283D01*
X148260Y-45323D01*
X148366Y-45359D01*
X150642Y-40524D02*
X150571Y-40452D01*
X150497Y-40383D01*
X150421Y-40316D01*
X150342Y-40253D01*
X150261Y-40192D01*
X150178Y-40134D01*
X150093Y-40079D01*
X150006Y-40028D01*
X149917Y-39980D01*
X149826Y-39935D01*
X149734Y-39893D01*
X149640Y-39855D01*
X149545Y-39820D01*
X149449Y-39789D01*
X149351Y-39762D01*
X149253Y-39738D01*
X149154Y-39717D01*
X149054Y-39701D01*
X148954Y-39688D01*
X148853Y-39678D01*
X148752Y-39673D01*
X148651Y-39671D01*
X150641Y-40524D02*
X156329Y-45359D01*
X156329Y-39671D01*
D52*
X198261Y-290068D02*
X190472Y-301752D01*
X198261Y-301752D02*
X190472Y-290068D01*
X206121Y-290068D02*
X206228Y-290070D01*
X206334Y-290076D01*
X206440Y-290086D01*
X206546Y-290099D01*
X206652Y-290117D01*
X206756Y-290138D01*
X206860Y-290163D01*
X206963Y-290192D01*
X207064Y-290224D01*
X207164Y-290261D01*
X207263Y-290301D01*
X207361Y-290344D01*
X207457Y-290391D01*
X207551Y-290442D01*
X207643Y-290496D01*
X207733Y-290553D01*
X207821Y-290613D01*
X207906Y-290677D01*
X207989Y-290744D01*
X208070Y-290814D01*
X208148Y-290886D01*
X208224Y-290962D01*
X208296Y-291040D01*
X208366Y-291121D01*
X208433Y-291204D01*
X208497Y-291289D01*
X208557Y-291377D01*
X208614Y-291467D01*
X208668Y-291559D01*
X208719Y-291653D01*
X208766Y-291749D01*
X208809Y-291847D01*
X208849Y-291946D01*
X208886Y-292046D01*
X208918Y-292147D01*
X208947Y-292250D01*
X208972Y-292354D01*
X208993Y-292458D01*
X209011Y-292564D01*
X209024Y-292670D01*
X209034Y-292776D01*
X209040Y-292882D01*
X209042Y-292989D01*
X206121Y-290068D02*
X206000Y-290070D01*
X205879Y-290076D01*
X205759Y-290086D01*
X205638Y-290099D01*
X205519Y-290117D01*
X205399Y-290138D01*
X205281Y-290163D01*
X205164Y-290192D01*
X205047Y-290225D01*
X204932Y-290261D01*
X204818Y-290302D01*
X204705Y-290345D01*
X204593Y-290393D01*
X204484Y-290444D01*
X204376Y-290499D01*
X204269Y-290557D01*
X204165Y-290618D01*
X204063Y-290683D01*
X203963Y-290751D01*
X203865Y-290822D01*
X203769Y-290896D01*
X203676Y-290973D01*
X203586Y-291054D01*
X203498Y-291137D01*
X203413Y-291223D01*
X203330Y-291312D01*
X203251Y-291403D01*
X203174Y-291497D01*
X203101Y-291593D01*
X203031Y-291691D01*
X202964Y-291792D01*
X202900Y-291895D01*
X202840Y-292000D01*
X202782Y-292107D01*
X202729Y-292215D01*
X202679Y-292325D01*
X202633Y-292437D01*
X202590Y-292550D01*
X202551Y-292665D01*
X208068Y-295261D02*
X208147Y-295183D01*
X208223Y-295103D01*
X208296Y-295020D01*
X208366Y-294934D01*
X208433Y-294847D01*
X208497Y-294756D01*
X208557Y-294664D01*
X208615Y-294570D01*
X208669Y-294473D01*
X208719Y-294375D01*
X208766Y-294275D01*
X208810Y-294174D01*
X208850Y-294071D01*
X208886Y-293966D01*
X208918Y-293861D01*
X208947Y-293754D01*
X208972Y-293647D01*
X208994Y-293538D01*
X209011Y-293429D01*
X209025Y-293320D01*
X209034Y-293210D01*
X209040Y-293099D01*
X209042Y-292989D01*
X208068Y-295261D02*
X202551Y-301752D01*
X209042Y-301752D01*
D49*
X-364173Y629285D02*
X-432753Y629285D01*
X-432753Y616839D01*
X-432753Y357505D02*
X-364173Y357505D01*
X-364173Y369189D01*
X-364173Y389001D02*
X-364173Y395351D01*
X-364173Y413639D02*
X-364173Y420751D01*
X-364173Y439039D02*
X-364173Y446151D01*
X-364173Y464439D02*
X-364173Y471551D01*
X-364173Y489839D02*
X-364173Y496951D01*
X-364173Y515239D02*
X-364173Y522351D01*
X-364173Y540639D02*
X-364173Y547751D01*
X-364173Y566039D02*
X-364173Y573151D01*
X-364173Y591439D02*
X-364173Y598551D01*
X-364173Y616839D02*
X-364173Y629285D01*
X-432753Y598551D02*
X-432753Y591439D01*
X-432753Y573151D02*
X-432753Y566039D01*
X-432753Y547751D02*
X-432753Y540639D01*
X-432753Y522351D02*
X-432753Y515239D01*
X-432753Y496951D02*
X-432753Y489839D01*
X-432753Y471551D02*
X-432753Y464439D01*
X-432753Y446151D02*
X-432753Y439039D01*
X-432753Y420751D02*
X-432753Y413639D01*
X-432753Y395351D02*
X-432753Y388239D01*
X-432753Y369951D02*
X-432753Y357505D01*
D51*
X-358549Y362472D02*
X-358549Y366451D01*
X-360871Y369436D01*
X-358549Y366451D02*
X-356228Y369436D01*
X-358549Y366451D02*
X-362197Y365125D01*
X-358549Y366451D02*
X-354902Y365125D01*
X-400368Y493282D02*
X-400368Y501904D01*
X-400367Y493282D02*
X-400365Y493168D01*
X-400359Y493053D01*
X-400349Y492939D01*
X-400335Y492826D01*
X-400318Y492712D01*
X-400296Y492600D01*
X-400271Y492488D01*
X-400241Y492378D01*
X-400208Y492268D01*
X-400171Y492160D01*
X-400131Y492053D01*
X-400086Y491947D01*
X-400039Y491843D01*
X-399987Y491741D01*
X-399932Y491641D01*
X-399874Y491542D01*
X-399812Y491446D01*
X-399747Y491351D01*
X-399679Y491260D01*
X-399607Y491170D01*
X-399533Y491083D01*
X-399456Y490999D01*
X-399375Y490917D01*
X-399292Y490838D01*
X-399207Y490762D01*
X-399118Y490689D01*
X-399028Y490620D01*
X-398935Y490553D01*
X-398839Y490490D01*
X-398742Y490430D01*
X-398642Y490373D01*
X-398541Y490320D01*
X-398438Y490270D01*
X-398333Y490224D01*
X-398227Y490181D01*
X-398119Y490143D01*
X-398010Y490108D01*
X-397900Y490077D01*
X-397789Y490049D01*
X-397677Y490026D01*
X-397564Y490006D01*
X-397451Y489990D01*
X-397337Y489978D01*
X-397223Y489970D01*
X-397108Y489966D01*
X-396994Y489966D01*
X-396879Y489970D01*
X-396765Y489978D01*
X-396651Y489990D01*
X-396538Y490006D01*
X-396425Y490026D01*
X-396313Y490049D01*
X-396202Y490077D01*
X-396092Y490108D01*
X-395983Y490143D01*
X-395875Y490181D01*
X-395769Y490224D01*
X-395664Y490270D01*
X-395561Y490320D01*
X-395460Y490373D01*
X-395360Y490430D01*
X-395263Y490490D01*
X-395167Y490553D01*
X-395074Y490620D01*
X-394984Y490689D01*
X-394895Y490762D01*
X-394810Y490838D01*
X-394727Y490917D01*
X-394646Y490999D01*
X-394569Y491083D01*
X-394495Y491170D01*
X-394423Y491260D01*
X-394355Y491351D01*
X-394290Y491446D01*
X-394228Y491542D01*
X-394170Y491641D01*
X-394115Y491741D01*
X-394063Y491843D01*
X-394016Y491947D01*
X-393971Y492053D01*
X-393931Y492160D01*
X-393894Y492268D01*
X-393861Y492378D01*
X-393831Y492488D01*
X-393806Y492600D01*
X-393784Y492712D01*
X-393767Y492826D01*
X-393753Y492939D01*
X-393743Y493053D01*
X-393737Y493168D01*
X-393735Y493282D01*
X-393735Y501904D01*
X-388557Y499251D02*
X-385240Y501904D01*
X-385240Y489966D01*
X-381924Y489966D02*
X-388557Y489966D01*
D49*
X289878Y629285D02*
X358458Y629285D01*
X289878Y629285D02*
X289878Y616839D01*
X289878Y357505D02*
X358458Y357505D01*
X358458Y369189D01*
X358458Y389001D02*
X358458Y395351D01*
X358458Y413639D02*
X358458Y420751D01*
X358458Y439039D02*
X358458Y446151D01*
X358458Y464439D02*
X358458Y471551D01*
X358458Y489839D02*
X358458Y496951D01*
X358458Y515239D02*
X358458Y522351D01*
X358458Y540639D02*
X358458Y547751D01*
X358458Y566039D02*
X358458Y573151D01*
X358458Y591439D02*
X358458Y598551D01*
X358458Y616839D02*
X358458Y629285D01*
X289878Y598551D02*
X289878Y591439D01*
X289878Y573151D02*
X289878Y566039D01*
X289878Y547751D02*
X289878Y540639D01*
X289878Y522351D02*
X289878Y515239D01*
X289878Y496951D02*
X289878Y489839D01*
X289878Y471551D02*
X289878Y464439D01*
X289878Y446151D02*
X289878Y439039D01*
X289878Y420751D02*
X289878Y413639D01*
X289878Y395351D02*
X289878Y388239D01*
X289878Y369951D02*
X289878Y357505D01*
D51*
X364081Y362472D02*
X364081Y366451D01*
X361760Y369436D01*
X364081Y366451D02*
X366402Y369436D01*
X364081Y366451D02*
X360433Y365125D01*
X364081Y366451D02*
X367729Y365125D01*
X337503Y490742D02*
X337503Y499364D01*
X337503Y490742D02*
X337505Y490628D01*
X337511Y490513D01*
X337521Y490399D01*
X337535Y490286D01*
X337552Y490172D01*
X337574Y490060D01*
X337599Y489948D01*
X337629Y489838D01*
X337662Y489728D01*
X337699Y489620D01*
X337739Y489513D01*
X337784Y489407D01*
X337831Y489303D01*
X337883Y489201D01*
X337938Y489101D01*
X337996Y489002D01*
X338058Y488906D01*
X338123Y488811D01*
X338191Y488720D01*
X338263Y488630D01*
X338337Y488543D01*
X338414Y488459D01*
X338495Y488377D01*
X338578Y488298D01*
X338663Y488222D01*
X338752Y488149D01*
X338842Y488080D01*
X338935Y488013D01*
X339031Y487950D01*
X339128Y487890D01*
X339228Y487833D01*
X339329Y487780D01*
X339432Y487730D01*
X339537Y487684D01*
X339643Y487641D01*
X339751Y487603D01*
X339860Y487568D01*
X339970Y487537D01*
X340081Y487509D01*
X340193Y487486D01*
X340306Y487466D01*
X340419Y487450D01*
X340533Y487438D01*
X340647Y487430D01*
X340762Y487426D01*
X340876Y487426D01*
X340991Y487430D01*
X341105Y487438D01*
X341219Y487450D01*
X341332Y487466D01*
X341445Y487486D01*
X341557Y487509D01*
X341668Y487537D01*
X341778Y487568D01*
X341887Y487603D01*
X341995Y487641D01*
X342101Y487684D01*
X342206Y487730D01*
X342309Y487780D01*
X342410Y487833D01*
X342510Y487890D01*
X342607Y487950D01*
X342703Y488013D01*
X342796Y488080D01*
X342886Y488149D01*
X342975Y488222D01*
X343060Y488298D01*
X343143Y488377D01*
X343224Y488459D01*
X343301Y488543D01*
X343375Y488630D01*
X343447Y488720D01*
X343515Y488811D01*
X343580Y488906D01*
X343642Y489002D01*
X343700Y489101D01*
X343755Y489201D01*
X343807Y489303D01*
X343854Y489407D01*
X343899Y489513D01*
X343939Y489620D01*
X343976Y489728D01*
X344009Y489838D01*
X344039Y489948D01*
X344064Y490060D01*
X344086Y490172D01*
X344103Y490286D01*
X344117Y490399D01*
X344127Y490513D01*
X344133Y490628D01*
X344135Y490742D01*
X344135Y499364D01*
X352961Y499365D02*
X353068Y499363D01*
X353174Y499357D01*
X353280Y499348D01*
X353386Y499335D01*
X353491Y499318D01*
X353596Y499297D01*
X353699Y499272D01*
X353802Y499244D01*
X353904Y499212D01*
X354004Y499177D01*
X354103Y499138D01*
X354201Y499095D01*
X354297Y499049D01*
X354392Y499000D01*
X354484Y498947D01*
X354575Y498891D01*
X354663Y498832D01*
X354750Y498770D01*
X354834Y498704D01*
X354916Y498636D01*
X354995Y498565D01*
X355072Y498491D01*
X355146Y498414D01*
X355217Y498335D01*
X355285Y498253D01*
X355351Y498169D01*
X355413Y498082D01*
X355472Y497994D01*
X355528Y497903D01*
X355581Y497811D01*
X355630Y497716D01*
X355676Y497620D01*
X355719Y497522D01*
X355758Y497423D01*
X355793Y497323D01*
X355825Y497221D01*
X355853Y497118D01*
X355878Y497015D01*
X355899Y496910D01*
X355916Y496805D01*
X355929Y496699D01*
X355938Y496593D01*
X355944Y496487D01*
X355946Y496380D01*
X352961Y499364D02*
X352840Y499362D01*
X352720Y499356D01*
X352600Y499347D01*
X352480Y499334D01*
X352361Y499317D01*
X352242Y499296D01*
X352124Y499272D01*
X352007Y499243D01*
X351891Y499212D01*
X351775Y499176D01*
X351661Y499137D01*
X351549Y499094D01*
X351437Y499048D01*
X351327Y498999D01*
X351219Y498945D01*
X351113Y498889D01*
X351008Y498829D01*
X350905Y498766D01*
X350805Y498700D01*
X350706Y498631D01*
X350610Y498558D01*
X350516Y498483D01*
X350424Y498405D01*
X350335Y498323D01*
X350248Y498239D01*
X350165Y498153D01*
X350083Y498064D01*
X350005Y497972D01*
X349930Y497878D01*
X349858Y497781D01*
X349788Y497683D01*
X349722Y497582D01*
X349659Y497479D01*
X349600Y497374D01*
X349543Y497268D01*
X349490Y497159D01*
X349441Y497050D01*
X349395Y496938D01*
X349352Y496825D01*
X349314Y496711D01*
X354951Y494058D02*
X355031Y494138D01*
X355109Y494220D01*
X355183Y494304D01*
X355255Y494392D01*
X355323Y494482D01*
X355389Y494574D01*
X355451Y494668D01*
X355509Y494764D01*
X355564Y494863D01*
X355616Y494963D01*
X355664Y495065D01*
X355709Y495169D01*
X355749Y495274D01*
X355786Y495381D01*
X355820Y495489D01*
X355849Y495598D01*
X355875Y495708D01*
X355896Y495819D01*
X355914Y495930D01*
X355928Y496042D01*
X355938Y496154D01*
X355944Y496267D01*
X355946Y496380D01*
X354951Y494058D02*
X349313Y487426D01*
X355946Y487426D01*
D53*
X-205390Y-33656D02*
X-206388Y-33656D01*
X-206448Y-33654D01*
X-206508Y-33649D01*
X-206568Y-33640D01*
X-206627Y-33627D01*
X-206685Y-33611D01*
X-206742Y-33591D01*
X-206798Y-33568D01*
X-206852Y-33542D01*
X-206904Y-33512D01*
X-206955Y-33479D01*
X-207003Y-33444D01*
X-207050Y-33405D01*
X-207094Y-33364D01*
X-207135Y-33320D01*
X-207174Y-33273D01*
X-207209Y-33225D01*
X-207242Y-33174D01*
X-207272Y-33122D01*
X-207298Y-33068D01*
X-207321Y-33012D01*
X-207341Y-32955D01*
X-207357Y-32897D01*
X-207370Y-32838D01*
X-207379Y-32778D01*
X-207384Y-32718D01*
X-207386Y-32658D01*
X-207386Y-30162D01*
X-207384Y-30099D01*
X-207378Y-30037D01*
X-207368Y-29975D01*
X-207355Y-29914D01*
X-207337Y-29854D01*
X-207316Y-29795D01*
X-207291Y-29737D01*
X-207263Y-29681D01*
X-207231Y-29627D01*
X-207195Y-29575D01*
X-207157Y-29526D01*
X-207116Y-29479D01*
X-207071Y-29435D01*
X-207024Y-29393D01*
X-206975Y-29355D01*
X-206923Y-29319D01*
X-206869Y-29287D01*
X-206813Y-29259D01*
X-206755Y-29234D01*
X-206696Y-29213D01*
X-206636Y-29195D01*
X-206575Y-29182D01*
X-206513Y-29172D01*
X-206451Y-29166D01*
X-206388Y-29164D01*
X-205390Y-29164D01*
X-203621Y-30162D02*
X-202373Y-29164D01*
X-202373Y-33656D01*
X-201126Y-33656D02*
X-203621Y-33656D01*
D49*
X-8382Y986448D02*
X302260Y986448D01*
X-8382Y986448D02*
X-8382Y775882D01*
X302260Y775882D01*
X302260Y986448D01*
D54*
X316230Y794170D02*
X316232Y794292D01*
X316238Y794414D01*
X316248Y794536D01*
X316261Y794657D01*
X316279Y794778D01*
X316300Y794898D01*
X316326Y795018D01*
X316355Y795136D01*
X316387Y795254D01*
X316424Y795371D01*
X316464Y795486D01*
X316508Y795600D01*
X316556Y795712D01*
X316607Y795823D01*
X316662Y795932D01*
X316720Y796040D01*
X316782Y796145D01*
X316847Y796248D01*
X316915Y796350D01*
X316987Y796449D01*
X317061Y796545D01*
X317139Y796640D01*
X317220Y796731D01*
X317303Y796821D01*
X317389Y796907D01*
X317479Y796990D01*
X317570Y797071D01*
X317665Y797149D01*
X317761Y797223D01*
X317860Y797295D01*
X317962Y797363D01*
X318065Y797428D01*
X318170Y797490D01*
X318278Y797548D01*
X318387Y797603D01*
X318498Y797654D01*
X318610Y797702D01*
X318724Y797746D01*
X318839Y797786D01*
X318956Y797823D01*
X319074Y797855D01*
X319192Y797884D01*
X319312Y797910D01*
X319432Y797931D01*
X319553Y797949D01*
X319674Y797962D01*
X319796Y797972D01*
X319918Y797978D01*
X320040Y797980D01*
X320162Y797978D01*
X320284Y797972D01*
X320406Y797962D01*
X320527Y797949D01*
X320648Y797931D01*
X320768Y797910D01*
X320888Y797884D01*
X321006Y797855D01*
X321124Y797823D01*
X321241Y797786D01*
X321356Y797746D01*
X321470Y797702D01*
X321582Y797654D01*
X321693Y797603D01*
X321802Y797548D01*
X321910Y797490D01*
X322015Y797428D01*
X322118Y797363D01*
X322220Y797295D01*
X322319Y797223D01*
X322415Y797149D01*
X322510Y797071D01*
X322601Y796990D01*
X322691Y796907D01*
X322777Y796821D01*
X322860Y796731D01*
X322941Y796640D01*
X323019Y796545D01*
X323093Y796449D01*
X323165Y796350D01*
X323233Y796248D01*
X323298Y796145D01*
X323360Y796040D01*
X323418Y795932D01*
X323473Y795823D01*
X323524Y795712D01*
X323572Y795600D01*
X323616Y795486D01*
X323656Y795371D01*
X323693Y795254D01*
X323725Y795136D01*
X323754Y795018D01*
X323780Y794898D01*
X323801Y794778D01*
X323819Y794657D01*
X323832Y794536D01*
X323842Y794414D01*
X323848Y794292D01*
X323850Y794170D01*
X323848Y794048D01*
X323842Y793926D01*
X323832Y793804D01*
X323819Y793683D01*
X323801Y793562D01*
X323780Y793442D01*
X323754Y793322D01*
X323725Y793204D01*
X323693Y793086D01*
X323656Y792969D01*
X323616Y792854D01*
X323572Y792740D01*
X323524Y792628D01*
X323473Y792517D01*
X323418Y792408D01*
X323360Y792300D01*
X323298Y792195D01*
X323233Y792092D01*
X323165Y791990D01*
X323093Y791891D01*
X323019Y791795D01*
X322941Y791700D01*
X322860Y791609D01*
X322777Y791519D01*
X322691Y791433D01*
X322601Y791350D01*
X322510Y791269D01*
X322415Y791191D01*
X322319Y791117D01*
X322220Y791045D01*
X322118Y790977D01*
X322015Y790912D01*
X321910Y790850D01*
X321802Y790792D01*
X321693Y790737D01*
X321582Y790686D01*
X321470Y790638D01*
X321356Y790594D01*
X321241Y790554D01*
X321124Y790517D01*
X321006Y790485D01*
X320888Y790456D01*
X320768Y790430D01*
X320648Y790409D01*
X320527Y790391D01*
X320406Y790378D01*
X320284Y790368D01*
X320162Y790362D01*
X320040Y790360D01*
X319918Y790362D01*
X319796Y790368D01*
X319674Y790378D01*
X319553Y790391D01*
X319432Y790409D01*
X319312Y790430D01*
X319192Y790456D01*
X319074Y790485D01*
X318956Y790517D01*
X318839Y790554D01*
X318724Y790594D01*
X318610Y790638D01*
X318498Y790686D01*
X318387Y790737D01*
X318278Y790792D01*
X318170Y790850D01*
X318065Y790912D01*
X317962Y790977D01*
X317860Y791045D01*
X317761Y791117D01*
X317665Y791191D01*
X317570Y791269D01*
X317479Y791350D01*
X317389Y791433D01*
X317303Y791519D01*
X317220Y791609D01*
X317139Y791700D01*
X317061Y791795D01*
X316987Y791891D01*
X316915Y791990D01*
X316847Y792092D01*
X316782Y792195D01*
X316720Y792300D01*
X316662Y792408D01*
X316607Y792517D01*
X316556Y792628D01*
X316508Y792740D01*
X316464Y792854D01*
X316424Y792969D01*
X316387Y793086D01*
X316355Y793204D01*
X316326Y793322D01*
X316300Y793442D01*
X316279Y793562D01*
X316261Y793683D01*
X316248Y793804D01*
X316238Y793926D01*
X316232Y794048D01*
X316230Y794170D01*
D51*
X212725Y893117D02*
X212725Y901739D01*
X212725Y893117D02*
X212727Y893003D01*
X212733Y892888D01*
X212743Y892774D01*
X212757Y892661D01*
X212774Y892547D01*
X212796Y892435D01*
X212821Y892323D01*
X212851Y892213D01*
X212884Y892103D01*
X212921Y891995D01*
X212961Y891888D01*
X213006Y891782D01*
X213053Y891678D01*
X213105Y891576D01*
X213160Y891476D01*
X213218Y891377D01*
X213280Y891281D01*
X213345Y891186D01*
X213413Y891095D01*
X213485Y891005D01*
X213559Y890918D01*
X213636Y890834D01*
X213717Y890752D01*
X213800Y890673D01*
X213885Y890597D01*
X213974Y890524D01*
X214064Y890455D01*
X214157Y890388D01*
X214253Y890325D01*
X214350Y890265D01*
X214450Y890208D01*
X214551Y890155D01*
X214654Y890105D01*
X214759Y890059D01*
X214865Y890016D01*
X214973Y889978D01*
X215082Y889943D01*
X215192Y889912D01*
X215303Y889884D01*
X215415Y889861D01*
X215528Y889841D01*
X215641Y889825D01*
X215755Y889813D01*
X215869Y889805D01*
X215984Y889801D01*
X216098Y889801D01*
X216213Y889805D01*
X216327Y889813D01*
X216441Y889825D01*
X216554Y889841D01*
X216667Y889861D01*
X216779Y889884D01*
X216890Y889912D01*
X217000Y889943D01*
X217109Y889978D01*
X217217Y890016D01*
X217323Y890059D01*
X217428Y890105D01*
X217531Y890155D01*
X217632Y890208D01*
X217732Y890265D01*
X217829Y890325D01*
X217925Y890388D01*
X218018Y890455D01*
X218108Y890524D01*
X218197Y890597D01*
X218282Y890673D01*
X218365Y890752D01*
X218446Y890834D01*
X218523Y890918D01*
X218597Y891005D01*
X218669Y891095D01*
X218737Y891186D01*
X218802Y891281D01*
X218864Y891377D01*
X218922Y891476D01*
X218977Y891576D01*
X219029Y891678D01*
X219076Y891782D01*
X219121Y891888D01*
X219161Y891995D01*
X219198Y892103D01*
X219231Y892213D01*
X219261Y892323D01*
X219286Y892435D01*
X219308Y892547D01*
X219325Y892661D01*
X219339Y892774D01*
X219349Y892888D01*
X219355Y893003D01*
X219357Y893117D01*
X219357Y901739D01*
X224536Y889801D02*
X227852Y889801D01*
X227966Y889803D01*
X228081Y889809D01*
X228195Y889819D01*
X228308Y889833D01*
X228422Y889850D01*
X228534Y889872D01*
X228646Y889897D01*
X228756Y889927D01*
X228866Y889960D01*
X228974Y889997D01*
X229081Y890037D01*
X229187Y890082D01*
X229291Y890129D01*
X229393Y890181D01*
X229493Y890236D01*
X229592Y890294D01*
X229688Y890356D01*
X229783Y890421D01*
X229874Y890489D01*
X229964Y890561D01*
X230051Y890635D01*
X230135Y890712D01*
X230217Y890793D01*
X230296Y890876D01*
X230372Y890961D01*
X230445Y891050D01*
X230514Y891140D01*
X230581Y891233D01*
X230644Y891329D01*
X230704Y891426D01*
X230761Y891526D01*
X230814Y891627D01*
X230864Y891730D01*
X230910Y891835D01*
X230953Y891941D01*
X230991Y892049D01*
X231026Y892158D01*
X231057Y892268D01*
X231085Y892379D01*
X231108Y892491D01*
X231128Y892604D01*
X231144Y892717D01*
X231156Y892831D01*
X231164Y892945D01*
X231168Y893060D01*
X231168Y893174D01*
X231164Y893289D01*
X231156Y893403D01*
X231144Y893517D01*
X231128Y893630D01*
X231108Y893743D01*
X231085Y893855D01*
X231057Y893966D01*
X231026Y894076D01*
X230991Y894185D01*
X230953Y894293D01*
X230910Y894399D01*
X230864Y894504D01*
X230814Y894607D01*
X230761Y894708D01*
X230704Y894808D01*
X230644Y894905D01*
X230581Y895001D01*
X230514Y895094D01*
X230445Y895184D01*
X230372Y895273D01*
X230296Y895358D01*
X230217Y895441D01*
X230135Y895522D01*
X230051Y895599D01*
X229964Y895673D01*
X229874Y895745D01*
X229783Y895813D01*
X229688Y895878D01*
X229592Y895940D01*
X229493Y895998D01*
X229393Y896053D01*
X229291Y896105D01*
X229187Y896152D01*
X229081Y896197D01*
X228974Y896237D01*
X228866Y896274D01*
X228756Y896307D01*
X228646Y896337D01*
X228534Y896362D01*
X228422Y896384D01*
X228308Y896401D01*
X228195Y896415D01*
X228081Y896425D01*
X227966Y896431D01*
X227852Y896433D01*
X228515Y901739D02*
X224536Y901739D01*
X228515Y901739D02*
X228617Y901737D01*
X228718Y901731D01*
X228819Y901721D01*
X228920Y901708D01*
X229020Y901690D01*
X229119Y901669D01*
X229218Y901644D01*
X229315Y901615D01*
X229412Y901583D01*
X229507Y901547D01*
X229600Y901507D01*
X229692Y901464D01*
X229782Y901417D01*
X229871Y901366D01*
X229957Y901313D01*
X230041Y901256D01*
X230123Y901196D01*
X230203Y901133D01*
X230280Y901067D01*
X230355Y900998D01*
X230427Y900926D01*
X230496Y900851D01*
X230562Y900774D01*
X230625Y900694D01*
X230685Y900612D01*
X230742Y900528D01*
X230795Y900442D01*
X230846Y900353D01*
X230893Y900263D01*
X230936Y900171D01*
X230976Y900078D01*
X231012Y899983D01*
X231044Y899886D01*
X231073Y899789D01*
X231098Y899690D01*
X231119Y899591D01*
X231137Y899491D01*
X231150Y899390D01*
X231160Y899289D01*
X231166Y899188D01*
X231168Y899086D01*
X231166Y898984D01*
X231160Y898883D01*
X231150Y898782D01*
X231137Y898681D01*
X231119Y898581D01*
X231098Y898482D01*
X231073Y898383D01*
X231044Y898286D01*
X231012Y898189D01*
X230976Y898094D01*
X230936Y898001D01*
X230893Y897909D01*
X230846Y897819D01*
X230795Y897730D01*
X230742Y897644D01*
X230685Y897560D01*
X230625Y897478D01*
X230562Y897398D01*
X230496Y897321D01*
X230427Y897246D01*
X230355Y897174D01*
X230280Y897105D01*
X230203Y897039D01*
X230123Y896976D01*
X230041Y896916D01*
X229957Y896859D01*
X229871Y896806D01*
X229782Y896755D01*
X229692Y896708D01*
X229600Y896665D01*
X229507Y896625D01*
X229412Y896589D01*
X229315Y896557D01*
X229218Y896528D01*
X229119Y896503D01*
X229020Y896482D01*
X228920Y896464D01*
X228819Y896451D01*
X228718Y896441D01*
X228617Y896435D01*
X228515Y896433D01*
X225862Y896433D01*
D49*
X-39434Y986321D02*
X-350076Y986321D01*
X-350076Y775755D01*
X-39434Y775755D01*
X-39434Y986321D01*
D54*
X-25464Y794043D02*
X-25462Y794165D01*
X-25456Y794287D01*
X-25446Y794409D01*
X-25433Y794530D01*
X-25415Y794651D01*
X-25394Y794771D01*
X-25368Y794891D01*
X-25339Y795009D01*
X-25307Y795127D01*
X-25270Y795244D01*
X-25230Y795359D01*
X-25186Y795473D01*
X-25138Y795585D01*
X-25087Y795696D01*
X-25032Y795805D01*
X-24974Y795913D01*
X-24912Y796018D01*
X-24847Y796121D01*
X-24779Y796223D01*
X-24707Y796322D01*
X-24633Y796418D01*
X-24555Y796513D01*
X-24474Y796604D01*
X-24391Y796694D01*
X-24305Y796780D01*
X-24215Y796863D01*
X-24124Y796944D01*
X-24029Y797022D01*
X-23933Y797096D01*
X-23834Y797168D01*
X-23732Y797236D01*
X-23629Y797301D01*
X-23524Y797363D01*
X-23416Y797421D01*
X-23307Y797476D01*
X-23196Y797527D01*
X-23084Y797575D01*
X-22970Y797619D01*
X-22855Y797659D01*
X-22738Y797696D01*
X-22620Y797728D01*
X-22502Y797757D01*
X-22382Y797783D01*
X-22262Y797804D01*
X-22141Y797822D01*
X-22020Y797835D01*
X-21898Y797845D01*
X-21776Y797851D01*
X-21654Y797853D01*
X-21532Y797851D01*
X-21410Y797845D01*
X-21288Y797835D01*
X-21167Y797822D01*
X-21046Y797804D01*
X-20926Y797783D01*
X-20806Y797757D01*
X-20688Y797728D01*
X-20570Y797696D01*
X-20453Y797659D01*
X-20338Y797619D01*
X-20224Y797575D01*
X-20112Y797527D01*
X-20001Y797476D01*
X-19892Y797421D01*
X-19784Y797363D01*
X-19679Y797301D01*
X-19576Y797236D01*
X-19474Y797168D01*
X-19375Y797096D01*
X-19279Y797022D01*
X-19184Y796944D01*
X-19093Y796863D01*
X-19003Y796780D01*
X-18917Y796694D01*
X-18834Y796604D01*
X-18753Y796513D01*
X-18675Y796418D01*
X-18601Y796322D01*
X-18529Y796223D01*
X-18461Y796121D01*
X-18396Y796018D01*
X-18334Y795913D01*
X-18276Y795805D01*
X-18221Y795696D01*
X-18170Y795585D01*
X-18122Y795473D01*
X-18078Y795359D01*
X-18038Y795244D01*
X-18001Y795127D01*
X-17969Y795009D01*
X-17940Y794891D01*
X-17914Y794771D01*
X-17893Y794651D01*
X-17875Y794530D01*
X-17862Y794409D01*
X-17852Y794287D01*
X-17846Y794165D01*
X-17844Y794043D01*
X-17846Y793921D01*
X-17852Y793799D01*
X-17862Y793677D01*
X-17875Y793556D01*
X-17893Y793435D01*
X-17914Y793315D01*
X-17940Y793195D01*
X-17969Y793077D01*
X-18001Y792959D01*
X-18038Y792842D01*
X-18078Y792727D01*
X-18122Y792613D01*
X-18170Y792501D01*
X-18221Y792390D01*
X-18276Y792281D01*
X-18334Y792173D01*
X-18396Y792068D01*
X-18461Y791965D01*
X-18529Y791863D01*
X-18601Y791764D01*
X-18675Y791668D01*
X-18753Y791573D01*
X-18834Y791482D01*
X-18917Y791392D01*
X-19003Y791306D01*
X-19093Y791223D01*
X-19184Y791142D01*
X-19279Y791064D01*
X-19375Y790990D01*
X-19474Y790918D01*
X-19576Y790850D01*
X-19679Y790785D01*
X-19784Y790723D01*
X-19892Y790665D01*
X-20001Y790610D01*
X-20112Y790559D01*
X-20224Y790511D01*
X-20338Y790467D01*
X-20453Y790427D01*
X-20570Y790390D01*
X-20688Y790358D01*
X-20806Y790329D01*
X-20926Y790303D01*
X-21046Y790282D01*
X-21167Y790264D01*
X-21288Y790251D01*
X-21410Y790241D01*
X-21532Y790235D01*
X-21654Y790233D01*
X-21776Y790235D01*
X-21898Y790241D01*
X-22020Y790251D01*
X-22141Y790264D01*
X-22262Y790282D01*
X-22382Y790303D01*
X-22502Y790329D01*
X-22620Y790358D01*
X-22738Y790390D01*
X-22855Y790427D01*
X-22970Y790467D01*
X-23084Y790511D01*
X-23196Y790559D01*
X-23307Y790610D01*
X-23416Y790665D01*
X-23524Y790723D01*
X-23629Y790785D01*
X-23732Y790850D01*
X-23834Y790918D01*
X-23933Y790990D01*
X-24029Y791064D01*
X-24124Y791142D01*
X-24215Y791223D01*
X-24305Y791306D01*
X-24391Y791392D01*
X-24474Y791482D01*
X-24555Y791573D01*
X-24633Y791668D01*
X-24707Y791764D01*
X-24779Y791863D01*
X-24847Y791965D01*
X-24912Y792068D01*
X-24974Y792173D01*
X-25032Y792281D01*
X-25087Y792390D01*
X-25138Y792501D01*
X-25186Y792613D01*
X-25230Y792727D01*
X-25270Y792842D01*
X-25307Y792959D01*
X-25339Y793077D01*
X-25368Y793195D01*
X-25394Y793315D01*
X-25415Y793435D01*
X-25433Y793556D01*
X-25446Y793677D01*
X-25456Y793799D01*
X-25462Y793921D01*
X-25464Y794043D01*
D51*
X-212789Y906960D02*
X-212789Y915582D01*
X-212788Y906960D02*
X-212786Y906846D01*
X-212780Y906731D01*
X-212770Y906617D01*
X-212756Y906504D01*
X-212739Y906390D01*
X-212717Y906278D01*
X-212692Y906166D01*
X-212662Y906056D01*
X-212629Y905946D01*
X-212592Y905838D01*
X-212552Y905731D01*
X-212507Y905625D01*
X-212460Y905521D01*
X-212408Y905419D01*
X-212353Y905319D01*
X-212295Y905220D01*
X-212233Y905124D01*
X-212168Y905029D01*
X-212100Y904938D01*
X-212028Y904848D01*
X-211954Y904761D01*
X-211877Y904677D01*
X-211796Y904595D01*
X-211713Y904516D01*
X-211628Y904440D01*
X-211539Y904367D01*
X-211449Y904298D01*
X-211356Y904231D01*
X-211260Y904168D01*
X-211163Y904108D01*
X-211063Y904051D01*
X-210962Y903998D01*
X-210859Y903948D01*
X-210754Y903902D01*
X-210648Y903859D01*
X-210540Y903821D01*
X-210431Y903786D01*
X-210321Y903755D01*
X-210210Y903727D01*
X-210098Y903704D01*
X-209985Y903684D01*
X-209872Y903668D01*
X-209758Y903656D01*
X-209644Y903648D01*
X-209529Y903644D01*
X-209415Y903644D01*
X-209300Y903648D01*
X-209186Y903656D01*
X-209072Y903668D01*
X-208959Y903684D01*
X-208846Y903704D01*
X-208734Y903727D01*
X-208623Y903755D01*
X-208513Y903786D01*
X-208404Y903821D01*
X-208296Y903859D01*
X-208190Y903902D01*
X-208085Y903948D01*
X-207982Y903998D01*
X-207881Y904051D01*
X-207781Y904108D01*
X-207684Y904168D01*
X-207588Y904231D01*
X-207495Y904298D01*
X-207405Y904367D01*
X-207316Y904440D01*
X-207231Y904516D01*
X-207148Y904595D01*
X-207067Y904677D01*
X-206990Y904761D01*
X-206916Y904848D01*
X-206844Y904938D01*
X-206776Y905029D01*
X-206711Y905124D01*
X-206649Y905220D01*
X-206591Y905319D01*
X-206536Y905419D01*
X-206484Y905521D01*
X-206437Y905625D01*
X-206392Y905731D01*
X-206352Y905838D01*
X-206315Y905946D01*
X-206282Y906056D01*
X-206252Y906166D01*
X-206227Y906278D01*
X-206205Y906390D01*
X-206188Y906504D01*
X-206174Y906617D01*
X-206164Y906731D01*
X-206158Y906846D01*
X-206156Y906960D01*
X-206156Y915582D01*
X-198325Y915582D02*
X-200978Y906297D01*
X-194345Y906297D01*
X-196335Y908950D02*
X-196335Y903644D01*
M02*
